<svg width="24" height="24" viewBox="0 0 24 24" fill="none" xmlns="http://www.w3.org/2000/svg">
<path fill-rule="evenodd" clip-rule="evenodd" d="M11.9993 8.17578C11.2431 8.17384 10.5034 8.39628 9.87372 8.81495C9.24404 9.23361 8.75272 9.82968 8.46196 10.5277C8.1712 11.2257 8.09406 11.9943 8.24032 12.7362C8.38657 13.4781 8.74965 14.1599 9.28358 14.6954C9.81751 15.2308 10.4983 15.5958 11.2398 15.7442C11.9812 15.8925 12.75 15.8176 13.4489 15.5288C14.1477 15.24 14.7452 14.7504 15.1656 14.1219C15.5861 13.4934 15.8106 12.7543 15.8108 11.9981C15.8092 10.9867 15.4075 10.0171 14.6934 9.30088C13.9792 8.58471 13.0107 8.18023 11.9993 8.17578ZM11.9993 13.2715C11.7472 13.2722 11.5005 13.198 11.2906 13.0584C11.0806 12.9188 10.9168 12.7201 10.8199 12.4873C10.723 12.2546 10.6973 11.9983 10.7461 11.751C10.7949 11.5036 10.916 11.2763 11.0941 11.0978C11.2722 10.9194 11.4992 10.7977 11.7465 10.7484C11.9937 10.699 12.25 10.7241 12.483 10.8205C12.7159 10.9169 12.9151 11.0802 13.0551 11.2899C13.1952 11.4995 13.2699 11.746 13.2698 11.9981C13.2689 12.3351 13.1349 12.658 12.8969 12.8965C12.6589 13.135 12.3362 13.2698 11.9993 13.2715ZM22.0725 11.5235C21.9563 11.2324 19.1302 4.35547 11.9993 4.35547C4.86942 4.35547 2.04318 11.2325 1.92612 11.5235C1.80588 11.8278 1.80588 12.1664 1.92612 12.4707C2.04318 12.7637 4.86942 19.6407 11.9993 19.6407C19.1302 19.6407 21.9563 12.7637 22.0725 12.4707C22.1927 12.1664 22.1927 11.8278 22.0725 11.5235V11.5235ZM11.9993 17.0928C7.49338 17.0928 5.19461 13.3594 4.50809 12C5.19461 10.6573 7.51877 6.90241 11.9993 6.90241C16.5081 6.90241 18.8059 10.6387 19.4915 11.9942C18.805 13.3379 16.4807 17.0928 11.9993 17.0928Z" fill="#757575"/>
</svg>
