<svg width="40" height="40" viewBox="0 0 40 40" fill="none" xmlns="http://www.w3.org/2000/svg">
<g clip-path="url(#clip0)">
<path d="M39.6085 20.4624C39.6085 19.1028 39.4982 17.7359 39.2631 16.3984H20.3984V24.1001H31.2013C30.753 26.584 29.3127 28.7813 27.2035 30.1776V35.1748H33.6485C37.4332 31.6915 39.6085 26.5473 39.6085 20.4624Z" fill="#4285F4"/>
<path d="M20.3998 39.9996C25.7939 39.9996 30.3429 38.2285 33.6572 35.1714L27.2123 30.1741C25.4191 31.394 23.1042 32.0848 20.4072 32.0848C15.1895 32.0848 10.7654 28.5647 9.17809 23.832H2.52734V28.9836C5.92253 35.7372 12.8378 39.9996 20.3998 39.9996Z" fill="#34A853"/>
<path d="M9.16934 23.8325C8.33156 21.3486 8.33156 18.6589 9.16934 16.175V11.0234H2.52594C-0.31073 16.6747 -0.31073 23.3328 2.52594 28.9841L9.16934 23.8325Z" fill="#FBBC04"/>
<path d="M20.3998 7.9161C23.2512 7.87201 26.007 8.94494 28.0721 10.9144L33.7822 5.20436C30.1665 1.80917 25.3677 -0.0574433 20.3998 0.00134778C12.8378 0.00134778 5.92253 4.2637 2.52734 11.0247L9.17074 16.1763C10.7508 11.4362 15.1821 7.9161 20.3998 7.9161Z" fill="#EA4335"/>
</g>
<defs>
<clipPath id="clip0">
<rect width="40" height="40" fill="white"/>
</clipPath>
</defs>
</svg>
