<svg width="24" height="24" viewBox="0 0 24 24" fill="none" xmlns="http://www.w3.org/2000/svg">
<path d="M11.9985 1.80859C9.63448 1.81132 7.36804 2.75168 5.69645 4.42336C4.02486 6.09505 3.08462 8.36154 3.08203 10.7256C3.08203 18.7275 10.727 21.8769 11.0522 22.0068C11.6596 22.2503 12.3374 22.2503 12.9448 22.0068C13.27 21.8769 20.915 18.7275 20.915 10.7256C20.9124 8.36154 19.9722 6.09505 18.3006 4.42336C16.629 2.75168 14.3626 1.81132 11.9985 1.80859ZM11.9985 12.2724C11.4947 12.2723 11.0023 12.1228 10.5834 11.8428C10.1646 11.5628 9.83815 11.1649 9.64545 10.6994C9.45275 10.2339 9.40242 9.72167 9.50082 9.22756C9.59921 8.73345 9.84192 8.27961 10.1982 7.92344C10.5546 7.56726 11.0085 7.32475 11.5027 7.22657C11.9968 7.12838 12.509 7.17893 12.9744 7.37183C13.4398 7.56473 13.8376 7.89131 14.1174 8.31028C14.3972 8.72924 14.5465 9.22177 14.5464 9.72558C14.5464 10.0601 14.4805 10.3914 14.3524 10.7004C14.2243 11.0095 14.0366 11.2903 13.8 11.5268C13.5634 11.7633 13.2825 11.9508 12.9734 12.0788C12.6643 12.2067 12.3331 12.2725 11.9985 12.2724Z" fill="#404040"/>
</svg>
