<svg width="24" height="24" viewBox="0 0 24 24" fill="none" xmlns="http://www.w3.org/2000/svg">
<path d="M20 7.99886H17V6.20886C17 3.59886 15.09 1.26886 12.49 1.01886C9.51 0.738858 7 3.07886 7 5.99886V7.99886H4V21.9989H20V7.99886ZM12 16.9989C10.9 16.9989 10 16.0989 10 14.9989C10 13.8989 10.9 12.9989 12 12.9989C13.1 12.9989 14 13.8989 14 14.9989C14 16.0989 13.1 16.9989 12 16.9989ZM9 7.99886V5.99886C9 4.33886 10.34 2.99886 12 2.99886C13.66 2.99886 15 4.33886 15 5.99886V7.99886H9Z" fill="#79808F"/>
</svg>
