<svg width="24" height="24" viewBox="0 0 24 24" fill="none" xmlns="http://www.w3.org/2000/svg">
<path fill-rule="evenodd" clip-rule="evenodd" d="M19.6416 4.35547H4.35595C3.6803 4.35553 3.03233 4.62399 2.55461 5.10179C2.07689 5.57959 1.80854 6.2276 1.80859 6.90326V17.0938C1.80859 17.4283 1.87447 17.7595 2.0025 18.0686C2.13052 18.3776 2.31816 18.6584 2.55472 18.8949C2.79127 19.1314 3.0721 19.3189 3.38116 19.4469C3.69022 19.5748 4.02146 19.6407 4.35595 19.6406H19.6416C19.9761 19.6407 20.3074 19.5749 20.6165 19.447C20.9256 19.3191 21.2065 19.1315 21.4431 18.895C21.6797 18.6585 21.8674 18.3777 21.9955 18.0686C22.1235 17.7596 22.1894 17.4283 22.1895 17.0938V6.90326C22.1895 6.56867 22.1236 6.23736 21.9955 5.92824C21.8675 5.61913 21.6798 5.33826 21.4432 5.10167C21.2066 4.86509 20.9257 4.67742 20.6166 4.54939C20.3075 4.42135 19.9762 4.35546 19.6416 4.35547ZM19.6416 17.0938H4.35595V6.90326H19.6416V17.0938ZM11.2349 14.291C11.4552 14.4564 11.7232 14.5459 11.9988 14.5459C12.2743 14.5459 12.5424 14.4564 12.7627 14.291L17.8579 10.4697C17.9917 10.3694 18.1044 10.2437 18.1897 10.0998C18.2749 9.95588 18.331 9.79661 18.3547 9.63105C18.3784 9.46548 18.3692 9.29688 18.3278 9.13485C18.2863 8.97283 18.2133 8.82056 18.113 8.68673C18.0127 8.55291 17.887 8.44016 17.7431 8.35491C17.5992 8.26966 17.4399 8.21359 17.2744 8.1899C17.1088 8.16621 16.9402 8.17535 16.7782 8.21682C16.6162 8.25829 16.4639 8.33126 16.3301 8.43158L11.999 11.6797L7.66748 8.43158C7.53366 8.3313 7.3814 8.25835 7.21938 8.21692C7.05737 8.17548 6.88878 8.16636 6.72324 8.19007C6.38892 8.23797 6.08733 8.41671 5.88479 8.68698C5.78451 8.8208 5.71157 8.97307 5.67013 9.13508C5.62869 9.29709 5.61957 9.46568 5.64329 9.63122C5.69118 9.96554 5.86993 10.2671 6.14019 10.4697L11.2349 14.291Z" fill="#3B9DCE"/>
</svg>
