<svg width="24" height="24" viewBox="0 0 24 24" fill="none" xmlns="http://www.w3.org/2000/svg">
<path d="M19.6416 4.35547H4.35595C3.6803 4.35553 3.03233 4.62399 2.55461 5.10179C2.07689 5.57959 1.80854 6.2276 1.80859 6.90326V17.0938C1.80859 17.4283 1.87447 17.7595 2.0025 18.0686C2.13052 18.3776 2.31816 18.6584 2.55472 18.8949C2.79127 19.1314 3.0721 19.3189 3.38116 19.4469C3.69022 19.5748 4.02146 19.6407 4.35595 19.6406H19.6416C19.9761 19.6407 20.3074 19.5749 20.6165 19.447C20.9256 19.3191 21.2065 19.1315 21.4431 18.895C21.6797 18.6585 21.8674 18.3777 21.9955 18.0686C22.1235 17.7596 22.1894 17.4283 22.1895 17.0938V6.90326C22.1895 6.56867 22.1236 6.23736 21.9955 5.92824C21.8675 5.61913 21.6798 5.33826 21.4432 5.10167C21.2066 4.86509 20.9257 4.67742 20.6166 4.54939C20.3075 4.42135 19.9762 4.35546 19.6416 4.35547ZM17.8579 10.4697L12.7627 14.291C12.5424 14.4564 12.2743 14.5459 11.9988 14.5459C11.7232 14.5459 11.4552 14.4564 11.2349 14.291L6.14019 10.4697C6.00637 10.3694 5.89361 10.2437 5.80835 10.0999C5.72309 9.956 5.667 9.79676 5.64329 9.63122C5.59539 9.2969 5.68226 8.95725 5.88479 8.68698C6.08733 8.41671 6.38892 8.23797 6.72324 8.19007C6.88878 8.16636 7.05737 8.17548 7.21938 8.21692C7.3814 8.25835 7.53366 8.3313 7.66748 8.43158L11.999 11.6797L16.3301 8.43158C16.4639 8.33126 16.6162 8.25829 16.7782 8.21682C16.9402 8.17535 17.1088 8.16621 17.2744 8.1899C17.4399 8.21359 17.5992 8.26966 17.7431 8.35491C17.887 8.44016 18.0127 8.55291 18.113 8.68673C18.2133 8.82056 18.2863 8.97283 18.3278 9.13485C18.3692 9.29688 18.3784 9.46548 18.3547 9.63105C18.331 9.79661 18.2749 9.95588 18.1897 10.0998C18.1044 10.2437 17.9917 10.3694 17.8579 10.4697Z" fill="#404040"/>
</svg>
