<svg width="24" height="24" viewBox="0 0 24 24" fill="none" xmlns="http://www.w3.org/2000/svg">
<path fill-rule="evenodd" clip-rule="evenodd" d="M20.4512 13.4034L16.6289 12.1299C16.047 11.9359 15.4147 11.9583 14.848 12.1929C14.2813 12.4276 13.8183 12.8587 13.5439 13.4073L13.081 14.334C12.2763 14.0866 11.5444 13.6461 10.9491 13.0508C10.3539 12.4556 9.91331 11.7237 9.66593 10.919L10.5927 10.4561C11.1413 10.1819 11.5725 9.71911 11.8073 9.15261C12.0421 8.58611 12.0648 7.95393 11.8711 7.3721L10.5967 3.55079C10.3833 2.9102 9.92428 2.38054 9.32054 2.07821C8.71681 1.77589 8.01774 1.72563 7.37697 1.93848L4.42091 2.91895C4.0843 3.03092 3.77472 3.21181 3.51191 3.45007C3.2491 3.68834 3.03882 3.97875 2.89448 4.3028C2.13704 6.01607 1.76748 7.87554 1.81222 9.74824C1.85696 11.6209 2.31489 13.4606 3.15327 15.1358C3.30244 15.4499 3.46738 15.7562 3.64747 16.0537C4.17828 16.9368 4.81986 17.7484 5.5566 18.4687C5.6816 18.5947 5.82809 18.7393 5.9902 18.8847C8.33253 21.0133 11.3848 22.1914 14.5498 22.1885C16.3235 22.193 18.0781 21.8233 19.6992 21.1036C20.0233 20.9597 20.3139 20.7497 20.5522 20.487C20.7905 20.2243 20.9713 19.9148 21.083 19.5782L22.0645 16.623C22.277 15.9821 22.2265 15.2831 21.924 14.6794C21.6215 14.0757 21.0918 13.6168 20.4512 13.4034ZM18.665 18.7754C16.8599 19.5709 14.8629 19.8259 12.9159 19.5094C10.9688 19.1929 9.15538 18.3185 7.69526 16.9922C7.5674 16.877 7.45308 16.7627 7.3379 16.6485C6.7527 16.0744 6.24335 15.4279 5.82228 14.7245C5.68241 14.4937 5.55464 14.2558 5.43947 14.0118C4.76629 12.6711 4.39784 11.1982 4.36052 9.69853C4.3232 8.19884 4.61793 6.70944 5.2236 5.33698L8.1797 4.35645L9.45308 8.1778L6.90529 9.45118C6.90819 11.4776 7.71459 13.4201 9.14765 14.8528C10.5807 16.2855 12.5234 17.0914 14.5498 17.0937L15.8232 14.5459L19.6455 15.8204L18.665 18.7754Z" fill="#3B9DCE"/>
</svg>
