<svg width="656" height="543" viewBox="0 0 656 543" fill="none" xmlns="http://www.w3.org/2000/svg">
<g clip-path="url(#clip0)">
<path d="M580.02 310.4C576.419 341.239 568.936 365.999 558.666 385.746C544.999 412.056 521.622 422.657 500.74 433.749C494.705 436.949 488.432 439.675 481.975 441.905C443.975 455.087 401.444 451.59 368.036 444.63C344.604 439.744 320.819 436.738 296.908 435.641C290.088 435.334 283.262 435.181 276.428 435.184C265.892 435.197 76.164 438.797 29.9707 345.317C18.5659 322.258 10.7485 294.089 7.94002 259.753C-0.00714493 162.68 43.6715 98.9256 100.012 57.2536C206.592 -21.5755 352.682 -18.2696 457.69 62.6359C527.636 116.527 593.126 198.089 580.02 310.4Z" fill="#F2F2F2"/>
<path d="M205 282.298C205 359.458 159.109 386.4 102.5 386.4C45.8908 386.4 0 359.458 0 282.298C0 205.137 102.5 106.977 102.5 106.977C102.5 106.977 205 205.137 205 282.298Z" fill="#3B9DCE"/>
<path d="M98.7671 374.596L99.8167 310.02L143.505 230.13L99.9814 299.89L100.453 270.854L130.563 213.054L100.578 263.17L101.427 210.947L133.669 164.931L101.56 202.735L102.09 106.977L98.7575 233.743L99.0316 228.514L66.2507 178.359L98.5061 238.552L95.4516 296.877L95.3607 295.328L57.5703 242.548L95.2459 300.797L94.8639 308.091L94.7956 308.201L94.827 308.8L87.078 456.773H97.4312L98.6735 380.342L136.257 322.236L98.7671 374.596Z" fill="#3F3D56"/>
<path d="M656 287.079C656 364.24 610.109 391.181 553.5 391.181C496.891 391.181 451 364.24 451 287.079C451 209.918 553.5 111.758 553.5 111.758C553.5 111.758 656 209.918 656 287.079Z" fill="#3B9DCE"/>
<path d="M549.767 379.378L550.817 314.801L594.505 234.911L550.981 304.671L551.453 275.635L581.563 217.835L551.578 267.951L552.427 215.728L584.669 169.712L552.56 207.516L553.09 111.758L549.758 238.524L550.032 233.295L517.251 183.14L549.506 243.334L546.452 301.658L546.361 300.11L508.57 247.329L546.246 305.579L545.864 312.873L545.796 312.982L545.827 313.581L538.078 461.554H548.431L549.674 385.123L587.257 327.017L549.767 379.378Z" fill="#3F3D56"/>
<path d="M442.801 221.544C442.801 305.906 392.627 335.362 330.735 335.362C268.842 335.362 218.668 305.906 218.668 221.544C218.668 137.182 330.735 29.8594 330.735 29.8594C330.735 29.8594 442.801 137.181 442.801 221.544Z" fill="#3B9DCE"/>
<path d="M326.651 322.461L327.799 251.857L375.564 164.511L327.979 240.782L328.495 209.036L361.414 145.841L328.631 200.634L329.559 143.537L364.811 93.2264L329.705 134.559L330.285 29.8633L326.641 168.461L326.94 162.744L291.1 107.908L326.366 173.719L323.026 237.487L322.927 235.794L281.609 178.089L322.802 241.774L322.384 249.749L322.309 249.869L322.344 250.523L313.871 412.308H325.191L326.549 328.743L367.64 265.213L326.651 322.461Z" fill="#3F3D56"/>
<path d="M568.532 468.55C568.532 486.657 449.828 543 303.399 543C156.97 543 38.2656 486.657 38.2656 468.55C38.2656 450.443 147.403 409.809 293.832 409.809C440.261 409.809 568.532 450.443 568.532 468.55Z" fill="#3F3D56"/>
<path opacity="0.1" d="M568.532 468.55C568.532 486.657 449.828 543 303.399 543C156.97 543 38.2656 486.657 38.2656 468.55C38.2656 450.443 147.403 409.809 293.832 409.809C440.261 409.809 568.532 450.443 568.532 468.55Z" fill="black"/>
<path d="M568.532 468.55C568.532 486.657 449.828 501.335 303.399 501.335C156.97 501.335 38.2656 486.657 38.2656 468.55C38.2656 450.443 147.403 409.809 293.832 409.809C440.261 409.809 568.532 450.443 568.532 468.55Z" fill="#3F3D56"/>
<path d="M392.527 377.762C392.527 403.737 408.83 424.756 428.977 424.756L392.527 377.762Z" fill="#3F3D56"/>
<path d="M428.977 424.752C428.977 398.485 447.169 377.23 469.652 377.23L428.977 424.752Z" fill="#3B9DCE"/>
<path d="M405.734 380.117C405.734 404.791 416.13 424.756 428.977 424.756L405.734 380.117Z" fill="#3B9DCE"/>
<path d="M428.977 424.754C428.977 391.19 450.005 364.031 475.991 364.031L428.977 424.754Z" fill="#3F3D56"/>
<path d="M421.309 425.085C421.309 425.085 426.478 424.926 428.036 423.817C429.593 422.708 435.987 421.384 436.373 423.162C436.76 424.941 444.142 432.007 438.306 432.054C432.47 432.101 424.746 431.145 423.191 430.199C421.636 429.252 421.309 425.085 421.309 425.085Z" fill="#A8A8A8"/>
<path opacity="0.2" d="M438.41 431.435C432.574 431.482 424.85 430.526 423.295 429.58C422.111 428.859 421.639 426.272 421.481 425.078C421.372 425.083 421.309 425.085 421.309 425.085C421.309 425.085 421.636 429.252 423.191 430.199C424.746 431.145 432.47 432.101 438.306 432.054C439.99 432.04 440.572 431.441 440.54 430.554C440.306 431.09 439.664 431.425 438.41 431.435Z" fill="black"/>
<path opacity="0.1" d="M306.817 479.477C356.633 479.477 397.017 473.055 397.017 465.133C397.017 457.211 356.633 450.789 306.817 450.789C257.001 450.789 216.617 457.211 216.617 465.133C216.617 473.055 257.001 479.477 306.817 479.477Z" fill="black"/>
<path d="M346.45 433.031H337.566V453.522H346.45V433.031Z" fill="#FFB9B9"/>
<path d="M347.135 156.402H312.969V217.876H347.135V156.402Z" fill="#FF6584"/>
<path d="M372.224 272.742L373.407 282.199L342.266 291.655L338.324 274.319L372.224 272.742Z" fill="#FFB9B9"/>
<path d="M326.107 181.729C326.107 181.729 325.319 188.821 323.742 188.821C322.166 188.821 316.647 191.579 316.647 191.579L315.07 199.066L326.107 205.764L344.24 203.794L349.364 195.913L344.24 190.791C344.24 190.791 339.904 181.335 341.481 179.365C343.057 177.395 326.107 181.729 326.107 181.729Z" fill="#FFB9B9"/>
<path opacity="0.1" d="M326.107 181.729C326.107 181.729 325.319 188.821 323.742 188.821C322.166 188.821 316.647 191.579 316.647 191.579L315.07 199.066L326.107 205.764L344.24 203.794L349.364 195.913L344.24 190.791C344.24 190.791 339.904 181.335 341.481 179.365C343.057 177.395 326.107 181.729 326.107 181.729Z" fill="black"/>
<path d="M276.835 427.195C276.835 427.195 273.288 450.836 268.952 452.412C264.616 453.988 285.507 456.746 285.507 456.746L287.084 448.078C287.084 448.078 287.478 432.317 289.055 429.953C290.632 427.589 276.835 427.195 276.835 427.195Z" fill="#FFB9B9"/>
<path d="M317.041 289.685C317.041 289.685 374.198 279.441 374.592 277.471C374.986 275.501 386.418 292.443 379.322 325.54C372.227 358.637 354.489 436.651 354.489 436.651C354.489 436.651 336.356 442.167 336.751 437.833C337.145 433.499 343.058 358.243 343.058 358.243L339.116 326.328L332.415 330.268L304.428 385.43L290.237 433.105C290.237 433.105 272.105 436.257 274.864 429.559C277.623 422.861 286.689 370.851 286.689 370.851L311.523 297.565C311.523 297.565 310.735 289.685 317.041 289.685Z" fill="#2F2E41"/>
<path d="M331.427 187.046C340.57 187.046 347.982 179.637 347.982 170.498C347.982 161.358 340.57 153.949 331.427 153.949C322.283 153.949 314.871 161.358 314.871 170.498C314.871 179.637 322.283 187.046 331.427 187.046Z" fill="#FFB9B9"/>
<path d="M348.576 191.184C348.576 191.184 340.692 198.67 322.166 196.7C303.639 194.73 327.29 238.859 327.29 238.859L334.779 283.382C334.779 283.382 367.891 279.442 369.073 271.956C370.256 264.47 348.576 191.184 348.576 191.184Z" fill="#F2F2F2"/>
<path d="M340.69 233.343C340.69 233.343 331.23 228.614 327.682 215.612C324.135 202.61 320.981 189.213 319.01 189.607C317.346 189.94 301.913 195.89 296.911 199.869C295.988 200.603 295.421 201.27 295.359 201.822C294.965 205.368 309.55 240.829 309.55 240.829C309.55 240.829 320.981 266.439 316.251 274.714C311.521 282.988 311.127 293.626 319.799 292.838C328.471 292.05 357.246 290.474 353.304 268.41C353.304 268.41 360.794 283.776 381.686 272.744C381.686 272.744 394.299 270.774 393.905 266.439C393.511 262.105 373.802 224.674 373.802 224.674C373.802 224.674 370.648 208.126 376.561 201.822L363.159 186.061C363.159 186.061 360.006 181.333 356.852 183.697C353.699 186.061 346.603 190.001 345.421 190.395C344.238 190.789 343.461 188.979 343.461 188.979C340.73 194.689 339.634 201.044 340.296 207.338C341.479 217.582 340.69 233.343 340.69 233.343Z" fill="#2F2E41"/>
<path d="M278.015 447.684C278.015 447.684 277.135 444.926 272.057 447.684C272.057 447.684 273.679 439.016 268.161 439.016C262.642 439.016 260.671 449.26 260.671 449.26C260.671 449.26 259.095 455.958 248.452 458.716C237.809 461.474 246.087 470.931 253.576 470.931C261.066 470.931 270.92 465.02 270.92 465.02C270.92 465.02 291.418 465.414 291.812 461.474C292.206 457.534 289.841 445.714 288.264 445.714C286.688 445.714 283.534 451.23 283.534 451.23L278.015 447.684Z" fill="#2F2E41"/>
<path d="M345.026 440.751C345.026 440.751 339.508 434.84 336.354 444.691C333.201 454.541 330.836 458.481 332.807 460.057C334.778 461.633 336.354 460.845 335.566 463.997C334.778 467.149 337.931 473.848 345.026 473.848C352.122 473.848 354.093 468.725 353.698 465.179C353.304 461.633 350.151 457.299 350.151 457.299L346.997 446.267L345.026 440.751Z" fill="#2F2E41"/>
<path d="M376.169 163.602L355.277 170.694C355.277 170.694 336.357 181.726 344.634 184.09C352.912 186.454 360.007 176.998 360.007 176.998L378.14 172.27L376.169 163.602Z" fill="#FFB9B9"/>
<path d="M320.162 144.91C317.681 146.609 315.707 148.935 313.829 151.282C310.015 156.052 306.277 161.749 307.217 167.782C307.574 170.074 308.593 172.207 309.166 174.454C309.941 177.487 309.89 180.661 309.834 183.791C309.88 185.121 309.715 186.449 309.345 187.728C308.793 188.973 308.144 190.173 307.403 191.317C305.504 194.851 305.458 199.051 305.456 203.062C305.365 204.413 305.549 205.768 305.997 207.046C306.515 208.252 307.48 209.198 308.28 210.239C309.607 211.997 310.492 214.048 310.861 216.219C311.231 218.391 311.074 220.619 310.404 222.717C311.433 222.721 312.442 222.432 313.312 221.884C314.182 221.335 314.878 220.55 315.317 219.62C315.454 220.62 315.368 221.638 315.065 222.6C314.762 223.563 314.25 224.447 313.566 225.189C318.078 223.848 322.915 221.588 324.562 217.18C325.046 215.683 325.318 214.125 325.372 212.552C326.248 201.495 326.748 190.025 322.781 179.667C321.512 176.353 319.785 173.145 319.359 169.622C318.934 166.099 320.234 162.028 323.472 160.573C323.548 161.475 323.949 162.319 324.6 162.947C325.321 163.482 326.654 163.147 326.667 162.25L328.231 164.426C328.83 164.132 329.343 163.685 329.716 163.131L330.788 164.443L333.069 162.785L335.049 164.92C335.811 164.486 336.419 163.825 336.787 163.029C337.213 163.665 337.74 164.364 338.502 164.433C340.163 164.583 340.506 161.949 341.956 161.127C342.492 160.89 343.095 160.854 343.656 161.024C344.216 161.193 344.698 161.559 345.012 162.053C345.61 163.07 345.828 164.266 345.627 165.429C345.027 170.847 340.402 175.79 341.773 181.066C342.544 184.033 345.141 186.412 345.337 189.471C345.493 191.915 344.056 194.228 344.078 196.678C344.103 199.548 346.088 201.986 348.025 204.106C351.472 207.878 355.101 211.473 358.911 214.892L357.734 212.834C358.283 212.791 358.836 212.867 359.353 213.057C359.87 213.247 360.34 213.547 360.731 213.936C361.069 212.753 360.508 211.52 359.979 210.409C356.81 203.757 354.251 196.674 353.869 189.317C353.338 179.089 357.017 168.703 354.685 158.73C353.344 153.147 350.219 148.152 345.783 144.504C343.626 142.73 341.991 141.667 339.199 141.472C336.077 141.2 332.937 141.225 329.82 141.545C326.376 141.873 323.063 143.027 320.162 144.91Z" fill="#FF6584"/>
<path d="M360.008 186.457C360.008 186.457 364.344 186.851 366.315 186.457C368.286 186.063 371.045 184.093 371.045 184.093L386.024 173.061L373.016 175.031C373.016 175.031 375.381 156.906 374.593 156.512C373.804 156.118 412.828 148.632 412.04 160.846C411.252 173.061 389.177 197.095 376.564 201.824L368.286 203.006L360.008 186.457Z" fill="#2F2E41"/>
<path d="M402.484 326.145H216.617V369.859H402.484V326.145Z" fill="white"/>
<path d="M378.225 336.047H240.191V359.27H378.225V336.047Z" fill="#3F3D56"/>
<path d="M272.271 347.151C272.215 346.556 269.58 346.291 265.965 346.44C268.06 343.491 269.273 341.138 268.804 340.767C268.361 340.417 266.549 341.929 264.342 344.385C264.134 341.091 263.649 338.781 263.085 338.781C262.469 338.781 261.949 341.529 261.778 345.305C258.708 343.098 256.228 341.803 255.847 342.286C255.482 342.747 257.142 344.694 259.78 347.023C256.298 347.539 253.845 348.268 253.899 348.853C253.955 349.449 256.59 349.714 260.205 349.565C258.11 352.514 256.897 354.867 257.366 355.237C257.809 355.587 259.621 354.075 261.828 351.62C262.036 354.914 262.521 357.223 263.085 357.223C263.701 357.223 264.221 354.476 264.392 350.699C267.462 352.906 269.942 354.202 270.323 353.719C270.688 353.258 269.028 351.311 266.39 348.981C269.872 348.465 272.325 347.736 272.271 347.151Z" fill="white"/>
<path d="M295.501 347.151C295.446 346.556 292.811 346.291 289.195 346.44C291.29 343.491 292.504 341.138 292.034 340.767C291.591 340.417 289.779 341.929 287.573 344.385C287.364 341.091 286.88 338.781 286.315 338.781C285.7 338.781 285.179 341.529 285.008 345.305C281.938 343.098 279.459 341.803 279.077 342.286C278.713 342.747 280.372 344.694 283.01 347.023C279.528 347.539 277.076 348.268 277.13 348.853C277.185 349.449 279.82 349.714 283.436 349.565C281.34 352.514 280.127 354.867 280.596 355.237C281.039 355.587 282.852 354.075 285.058 351.62C285.267 354.914 285.751 357.223 286.315 357.223C286.931 357.223 287.451 354.476 287.622 350.699C290.693 352.906 293.172 354.202 293.554 353.719C293.918 353.258 292.259 351.311 289.621 348.981C293.102 348.465 295.555 347.736 295.501 347.151Z" fill="white"/>
<path d="M318.735 347.151C318.68 346.556 316.045 346.291 312.43 346.44C314.525 343.491 315.738 341.138 315.269 340.767C314.826 340.417 313.014 341.929 310.807 344.385C310.598 341.091 310.114 338.781 309.55 338.781C308.934 338.781 308.414 341.529 308.243 345.305C305.173 343.098 302.693 341.803 302.311 342.286C301.947 342.747 303.606 344.694 306.245 347.023C302.763 347.539 300.31 348.268 300.364 348.853C300.419 349.449 303.054 349.714 306.67 349.565C304.575 352.514 303.361 354.867 303.831 355.237C304.274 355.587 306.086 354.075 308.293 351.62C308.501 354.914 308.985 357.223 309.55 357.223C310.165 357.223 310.686 354.476 310.857 350.699C313.927 352.906 316.406 354.202 316.788 353.719C317.152 353.258 315.493 351.311 312.855 348.981C316.337 348.465 318.79 347.736 318.735 347.151Z" fill="white"/>
<path d="M341.97 347.151C341.915 346.556 339.28 346.291 335.664 346.44C337.759 343.491 338.973 341.138 338.503 340.767C338.06 340.417 336.248 341.929 334.041 344.385C333.833 341.091 333.349 338.781 332.784 338.781C332.169 338.781 331.648 341.529 331.477 345.305C328.407 343.098 325.927 341.803 325.546 342.286C325.181 342.747 326.841 344.694 329.479 347.023C325.997 347.539 323.544 348.268 323.599 348.853C323.654 349.449 326.289 349.714 329.904 349.565C327.809 352.514 326.596 354.867 327.065 355.237C327.508 355.587 329.32 354.075 331.527 351.62C331.735 354.914 332.22 357.223 332.784 357.223C333.4 357.223 333.92 354.476 334.091 350.699C337.161 352.906 339.641 354.202 340.023 353.719C340.387 353.258 338.727 351.311 336.089 348.981C339.571 348.465 342.024 347.736 341.97 347.151Z" fill="white"/>
<path d="M365.2 347.151C365.145 346.556 362.51 346.291 358.894 346.44C360.99 343.491 362.203 341.138 361.733 340.767C361.291 340.417 359.478 341.929 357.272 344.385C357.063 341.091 356.579 338.781 356.015 338.781C355.399 338.781 354.879 341.529 354.708 345.305C351.637 343.098 349.158 341.803 348.776 342.286C348.412 342.747 350.071 344.694 352.709 347.023C349.228 347.539 346.775 348.268 346.829 348.853C346.884 349.449 349.519 349.714 353.135 349.565C351.04 352.514 349.826 354.867 350.296 355.237C350.739 355.587 352.551 354.075 354.757 351.62C354.966 354.914 355.45 357.223 356.015 357.223C356.63 357.223 357.151 354.476 357.322 350.699C360.392 352.906 362.871 354.202 363.253 353.719C363.617 353.258 361.958 351.311 359.32 348.981C362.802 348.465 365.254 347.736 365.2 347.151Z" fill="white"/>
<path d="M292.995 307.419C292.995 307.419 291.024 333.424 300.484 334.606C309.945 335.788 301.273 305.055 301.273 305.055L292.995 307.419Z" fill="#FFB9B9"/>
<path d="M298.12 201.035L295.361 201.823C295.361 201.823 283.93 293.234 291.419 310.964C291.419 310.964 299.303 306.63 303.245 307.418L309.552 232.95L298.12 201.035Z" fill="#2F2E41"/>
</g>
<defs>
<clipPath id="clip0">
<rect width="656" height="543" fill="white"/>
</clipPath>
</defs>
</svg>
