<svg width="686" height="633" viewBox="0 0 686 633" fill="none" xmlns="http://www.w3.org/2000/svg">
<path d="M290.89 585.336C324.612 601.915 362.739 608.457 399.215 599.394C459.616 584.382 514.381 545.552 545.517 491.6C553.977 476.94 560.964 460.042 557.542 443.473C548.176 398.205 468.23 379.416 502.925 326.215C512.457 311.597 529.461 304.122 546.961 304.448C608.255 305.585 662.457 255.76 671.55 196.902C679.105 147.977 655.052 95.6236 612.969 69.3578C601.025 61.9148 587.479 56.3732 573.407 56.1349C529.695 55.3927 501.017 102.516 459.852 117.137C392.732 140.982 330.294 73.7823 262.073 53.2164C201.55 34.9635 130.785 58.078 92.8367 108.477C54.8814 158.876 52.3484 233.091 86.7816 285.997C92.7659 295.19 99.8991 304.124 102.265 314.832C107.038 336.577 91.0368 356.983 75.5124 372.955C38.9291 410.653 -4.96483 456.016 13.8531 508.326C21.7419 530.238 39.3741 547.167 60.6152 556.841C111.846 580.172 165.568 568.152 218.564 569.924C244.522 570.788 271.884 575.996 290.89 585.336Z" fill="#E7F3F9"/>
<g clip-path="url(#clip0)">
<path d="M146.796 497.458C198.486 497.458 240.389 494.284 240.389 490.37C240.389 486.455 198.486 483.281 146.796 483.281C95.1062 483.281 53.2031 486.455 53.2031 490.37C53.2031 494.284 95.1062 497.458 146.796 497.458Z" fill="#E6E6E6"/>
<path d="M124.742 243.867C141.03 236.959 161.317 241.336 181.13 244.374C181.314 240.695 183.549 236.217 181.208 233.651C178.364 230.533 178.626 227.256 180.337 223.961C184.713 215.535 178.443 206.569 172.112 199.114C170.686 197.438 168.882 196.12 166.849 195.269C164.816 194.418 162.61 194.057 160.41 194.216L148.683 195.051C145.829 195.255 143.106 196.322 140.877 198.111C138.648 199.9 137.021 202.325 136.212 205.061C133.412 208.859 131.913 212.646 132.857 216.414C128.662 219.272 127.958 222.722 129.842 226.612C131.441 229.061 131.424 231.444 129.77 233.762C127.598 236.717 125.934 240.012 124.847 243.512L124.742 243.867Z" fill="#2F2E41"/>
<path d="M511.816 453.294H179.846C176.894 453.294 174.063 452.124 171.975 450.043C169.888 447.961 168.715 445.138 168.715 442.194C289.054 428.248 407.131 428.248 522.947 442.194C522.947 445.138 521.774 447.961 519.687 450.043C517.599 452.124 514.768 453.294 511.816 453.294Z" fill="#2F2E41"/>
<path d="M522.947 442.847L168.715 442.194L209.769 373.31L209.966 372.984V221.172C209.965 219.329 210.329 217.505 211.036 215.802C211.743 214.1 212.78 212.553 214.087 211.25C215.393 209.947 216.944 208.913 218.652 208.208C220.359 207.503 222.189 207.14 224.037 207.141H465.661C467.509 207.14 469.339 207.503 471.046 208.208C472.753 208.913 474.304 209.947 475.611 211.25C476.918 212.553 477.954 214.1 478.661 215.802C479.368 217.505 479.732 219.329 479.732 221.172V374.029L522.947 442.847Z" fill="#3F3D56"/>
<path d="M223.716 216.934C222.501 216.935 221.336 217.417 220.477 218.274C219.618 219.131 219.134 220.292 219.133 221.504V359.924C219.134 361.136 219.618 362.298 220.477 363.155C221.336 364.012 222.501 364.494 223.716 364.495H467.947C469.162 364.493 470.327 364.012 471.186 363.155C472.045 362.298 472.528 361.136 472.53 359.924V221.504C472.529 220.292 472.045 219.131 471.186 218.274C470.327 217.417 469.162 216.935 467.947 216.934H223.716Z" fill="white"/>
<path d="M224.74 382.777C224.364 382.778 223.997 382.886 223.68 383.088C223.364 383.29 223.113 383.578 222.955 383.917L210.305 411.34C210.167 411.639 210.107 411.967 210.13 412.295C210.152 412.622 210.258 412.939 210.435 413.216C210.613 413.492 210.858 413.72 211.147 413.878C211.436 414.035 211.76 414.118 212.089 414.118H478.114C478.449 414.118 478.778 414.032 479.07 413.87C479.363 413.707 479.609 413.473 479.785 413.189C479.961 412.905 480.061 412.581 480.076 412.247C480.091 411.913 480.02 411.582 479.87 411.283L466.12 383.86C465.958 383.534 465.707 383.26 465.397 383.068C465.087 382.877 464.729 382.776 464.364 382.777H224.74Z" fill="#2F2E41"/>
<path d="M344.849 214.65C346.476 214.65 347.795 213.334 347.795 211.712C347.795 210.089 346.476 208.773 344.849 208.773C343.222 208.773 341.902 210.089 341.902 211.712C341.902 213.334 343.222 214.65 344.849 214.65Z" fill="white"/>
<path d="M318.7 419.34C318.268 419.34 317.848 419.483 317.506 419.745C317.163 420.006 316.916 420.374 316.803 420.789L313.63 432.542C313.552 432.832 313.541 433.137 313.6 433.432C313.658 433.726 313.784 434.004 313.968 434.243C314.151 434.481 314.387 434.675 314.657 434.808C314.928 434.941 315.225 435.01 315.527 435.01H375.873C376.186 435.01 376.495 434.935 376.773 434.792C377.051 434.649 377.291 434.442 377.473 434.187C377.654 433.933 377.772 433.639 377.817 433.33C377.861 433.021 377.831 432.706 377.729 432.411L373.649 420.658C373.515 420.273 373.265 419.939 372.932 419.703C372.599 419.467 372.201 419.34 371.793 419.34H318.7Z" fill="#2F2E41"/>
<path d="M479.732 370.695V373.307H209.77L209.973 372.981V370.695H479.732Z" fill="#2F2E41"/>
<path d="M472.201 262.964C497.515 262.964 518.035 242.502 518.035 217.26C518.035 192.017 497.515 171.555 472.201 171.555C446.888 171.555 426.367 192.017 426.367 217.26C426.367 242.502 446.888 262.964 472.201 262.964Z" fill="#3B9DCE"/>
<path d="M491.19 237.174H453.213C452.518 237.173 451.853 236.897 451.362 236.408C450.871 235.918 450.594 235.254 450.594 234.562V211.709C450.594 211.017 450.871 210.353 451.362 209.863C451.853 209.374 452.518 209.098 453.213 209.098H491.19C491.884 209.098 492.55 209.374 493.041 209.863C493.532 210.353 493.808 211.017 493.809 211.709V234.562C493.808 235.254 493.532 235.918 493.041 236.408C492.55 236.897 491.884 237.173 491.19 237.174ZM453.213 211.709V234.562H491.192L491.19 211.709L453.213 211.709Z" fill="white"/>
<path d="M483.986 211.708H460.414V201.262C460.414 193.695 465.371 188.203 472.2 188.203C479.029 188.203 483.986 193.695 483.986 201.262L483.986 211.708ZM463.033 209.097H481.367V201.262C481.367 195.111 477.597 190.815 472.2 190.815C466.803 190.815 463.033 195.111 463.033 201.262L463.033 209.097Z" fill="white"/>
<path d="M472.201 225.094C473.648 225.094 474.82 223.925 474.82 222.483C474.82 221.04 473.648 219.871 472.201 219.871C470.755 219.871 469.582 221.04 469.582 222.483C469.582 223.925 470.755 225.094 472.201 225.094Z" fill="white"/>
<path d="M440.206 317.543H251.456C250.53 317.542 249.641 317.174 248.986 316.521C248.331 315.867 247.962 314.981 247.961 314.057V267.368C247.962 266.444 248.331 265.558 248.986 264.905C249.641 264.251 250.53 263.884 251.456 263.883H440.206C441.133 263.884 442.021 264.251 442.677 264.905C443.332 265.558 443.701 266.444 443.702 267.368V314.057C443.701 314.981 443.332 315.867 442.677 316.521C442.021 317.174 441.133 317.542 440.206 317.543ZM251.456 265.277C250.9 265.278 250.367 265.498 249.974 265.89C249.581 266.282 249.36 266.814 249.359 267.368V314.057C249.36 314.612 249.581 315.143 249.974 315.535C250.367 315.927 250.9 316.148 251.456 316.148H440.206C440.762 316.148 441.295 315.927 441.689 315.535C442.082 315.143 442.303 314.612 442.304 314.057V267.368C442.303 266.814 442.082 266.282 441.689 265.89C441.295 265.498 440.762 265.278 440.206 265.277L251.456 265.277Z" fill="#E6E6E6"/>
<path d="M280.781 303.119C288.645 303.119 295.02 296.762 295.02 288.921C295.02 281.079 288.645 274.723 280.781 274.723C272.918 274.723 266.543 281.079 266.543 288.921C266.543 296.762 272.918 303.119 280.781 303.119Z" fill="#E6E6E6"/>
<path d="M313.666 279.457C313.354 279.457 313.045 279.517 312.757 279.636C312.468 279.755 312.206 279.929 311.985 280.149C311.765 280.369 311.59 280.63 311.47 280.917C311.351 281.204 311.289 281.512 311.289 281.823C311.289 282.134 311.351 282.442 311.47 282.73C311.59 283.017 311.765 283.278 311.985 283.498C312.206 283.718 312.468 283.892 312.757 284.011C313.045 284.129 313.354 284.19 313.666 284.19H425.538C426.167 284.19 426.771 283.94 427.216 283.497C427.661 283.053 427.911 282.451 427.911 281.823C427.911 281.196 427.661 280.594 427.216 280.15C426.771 279.706 426.167 279.457 425.538 279.457H313.666Z" fill="#E6E6E6"/>
<path d="M313.666 293.656C313.037 293.656 312.433 293.906 311.988 294.349C311.543 294.793 311.293 295.395 311.293 296.023C311.293 296.65 311.543 297.252 311.988 297.696C312.433 298.14 313.037 298.389 313.666 298.389H361.805C362.434 298.389 363.038 298.14 363.483 297.696C363.928 297.252 364.178 296.65 364.178 296.023C364.178 295.395 363.928 294.793 363.483 294.349C363.038 293.906 362.434 293.656 361.805 293.656H313.666Z" fill="#E6E6E6"/>
<path d="M209.302 294.614L174.41 313.111L173.969 297.697C185.357 295.801 196.192 292.5 206.211 287.126L209.86 278.136C210.258 277.156 210.904 276.297 211.735 275.641C212.567 274.986 213.555 274.558 214.603 274.398C215.65 274.238 216.721 274.353 217.711 274.731C218.701 275.109 219.575 275.738 220.248 276.554C221.232 277.749 221.724 279.272 221.624 280.815C221.524 282.358 220.84 283.806 219.71 284.865L209.302 294.614Z" fill="#FFB8B8"/>
<path d="M124.05 401.411C123.796 400.481 123.741 399.506 123.891 398.553C124.041 397.6 124.392 396.689 124.92 395.881L132.585 384.151C134.398 381.377 137.18 379.373 140.391 378.528C143.602 377.683 147.013 378.058 149.962 379.579C146.741 385.047 147.19 389.844 151.075 394.012C145.044 396.948 139.47 400.737 134.526 405.262C133.624 405.875 132.587 406.265 131.503 406.398C130.419 406.531 129.318 406.404 128.294 406.028C127.269 405.651 126.349 405.036 125.611 404.233C124.872 403.43 124.337 402.462 124.05 401.411Z" fill="#2F2E41"/>
<path d="M210.892 386.076C209.732 388.003 208.095 389.601 206.138 390.716C204.18 391.831 201.968 392.426 199.714 392.443L148.794 392.827L146.586 380.055L169.111 373.449L150.119 358.915L170.878 334.691L208.581 369.734C210.785 371.782 212.217 374.522 212.638 377.497C213.058 380.471 212.442 383.5 210.892 386.076Z" fill="#2F2E41"/>
<path d="M140.846 473.425H128.921C118.214 400.239 107.316 326.849 139.521 299.457L177.505 305.623L172.647 337.774L151.446 361.997L140.846 473.425Z" fill="#2F2E41"/>
<path d="M151.327 490.002C150.394 490.256 149.417 490.31 148.461 490.16C147.505 490.011 146.592 489.661 145.781 489.134L132.833 487.399C130.05 485.591 128.041 482.817 127.193 479.616C126.346 476.414 126.722 473.012 128.247 470.071C133.731 473.283 138.541 472.835 142.721 468.961C145.674 474.908 150.541 474.545 155.188 479.555C155.803 480.455 156.194 481.489 156.328 482.57C156.461 483.651 156.334 484.748 155.956 485.77C155.579 486.792 154.962 487.709 154.156 488.446C153.351 489.182 152.381 489.715 151.327 490.002Z" fill="#2F2E41"/>
<path d="M169.111 250.569L147.027 245.284C150.695 237.798 150.997 229.467 149.236 220.62L164.252 220.18C164.723 231.182 166.146 241.46 169.111 250.569Z" fill="#FFB8B8"/>
<path d="M175.18 318.883C159.104 329.807 147.745 319.257 139.077 302.98C140.281 293.019 138.331 281.1 134.719 268.149C133.113 262.436 133.712 256.331 136.4 251.038C139.087 245.745 143.667 241.649 149.235 239.559L168.227 247.486C184.353 260.594 187.527 274.792 181.477 289.767L175.18 318.883Z" fill="#3B9DCE"/>
<path d="M128.919 261.581L111.253 270.83L142.611 289.328L146.975 300.06C147.266 300.776 147.408 301.544 147.391 302.317C147.375 303.09 147.202 303.851 146.881 304.555C146.56 305.259 146.099 305.89 145.525 306.41C144.952 306.93 144.278 307.328 143.545 307.58C142.712 307.867 141.824 307.957 140.95 307.844C140.076 307.731 139.241 307.418 138.508 306.929C137.776 306.44 137.167 305.789 136.73 305.026C136.292 304.263 136.037 303.41 135.986 302.533L135.544 295.053L95.6882 281.938C94.3453 281.496 93.1209 280.755 92.1077 279.771C91.0944 278.788 90.319 277.587 89.84 276.26C89.1418 274.326 89.1063 272.216 89.7389 270.26C90.3716 268.304 91.6368 266.612 93.3365 265.449L125.386 243.523L128.919 261.581Z" fill="#FFB8B8"/>
<path d="M146.585 263.344C139.216 260.124 132.516 263.622 124.059 266.427L122.734 243.084C131.132 238.621 139.138 237.418 146.585 240.882L146.585 263.344Z" fill="#3B9DCE"/>
<path d="M155.4 231.744C163.187 231.744 169.5 225.45 169.5 217.685C169.5 209.92 163.187 203.625 155.4 203.625C147.613 203.625 141.301 209.92 141.301 217.685C141.301 225.45 147.613 231.744 155.4 231.744Z" fill="#FFB8B8"/>
<path d="M172.266 215.909C158.307 217.272 147.669 214.996 140.871 208.513V203.293H171.082L172.266 215.909Z" fill="#2F2E41"/>
</g>
<defs>
<clipPath id="clip0">
<rect width="469.743" height="325.903" fill="white" transform="translate(53.2031 171.555)"/>
</clipPath>
</defs>
</svg>
