<svg width="699" height="628" viewBox="0 0 699 628" fill="none" xmlns="http://www.w3.org/2000/svg">
<rect width="699" height="628" fill="#E5E5E5"/>
<rect x="-471" y="-968" width="1524" height="1937" fill="white"/>
<path d="M15.2271 273.923C20.7332 213.299 55.2745 155.091 100.312 103.745C144.787 52.091 199.449 7.86196 254.629 20.616C309.683 32.9346 364.82 102.363 432.911 118.917C500.875 135.036 582.355 98.5884 617.453 118.6C652.55 138.612 640.829 215.209 645.241 279.086C649.526 342.528 669.637 393.813 669.577 447.187C669.082 500.687 648.98 556.585 605.346 575.414C561.277 594.369 494.548 576.003 442.042 575.692C388.975 575.072 350.874 591.82 306.799 596.14C263.032 599.898 213.416 591.664 170.759 566.768C128.102 541.872 91.8432 500.006 62.1389 448.206C32.8701 396.28 9.15893 334.238 15.2271 273.923Z" fill="#E7F3F9"/>
<g clip-path="url(#clip0)">
<path d="M510.306 431.766C510.188 431.615 510.07 431.465 509.953 431.314C509.837 431.163 509.721 431.012 509.605 430.86C509.49 430.708 509.375 430.556 509.26 430.403C509.145 430.251 509.031 430.097 508.918 429.943C508.728 425.521 508.725 421.138 508.91 416.794C509.09 412.481 509.455 408.219 510.004 404.01C510.546 399.832 511.264 395.718 512.159 391.669C513.046 387.651 514.104 383.709 515.332 379.843C515.472 379.397 515.614 378.953 515.759 378.511C515.904 378.069 516.052 377.629 516.203 377.193C516.352 376.754 516.505 376.318 516.659 375.883C516.814 375.449 516.971 375.016 517.131 374.584C518.314 371.356 519.615 368.206 521.036 365.136C522.447 362.087 523.971 359.122 525.608 356.242C527.232 353.382 528.964 350.61 530.804 347.926C532.63 345.262 534.557 342.691 536.587 340.214L536.907 339.825L537.227 339.439L537.549 339.054L537.872 338.672L538.105 338.397L538.34 338.124C538.419 338.033 538.498 337.942 538.577 337.852C538.657 337.762 538.737 337.673 538.819 337.585L539.012 337.479L539.203 337.375L539.394 337.27L539.584 337.166L539.596 337.162L539.608 337.156L539.62 337.151L539.632 337.146L539.709 337.104L539.785 337.062L539.859 337.019L539.931 336.977L540.263 336.799L540.593 336.624L540.923 336.449L541.251 336.273L541.001 336.147L540.373 335.835L540.377 335.832C540.431 335.855 540.485 335.879 540.538 335.905C540.591 335.931 540.644 335.955 540.698 335.979C540.752 336.004 540.805 336.03 540.857 336.055C540.91 336.08 540.963 336.105 541.016 336.131L541.077 336.157L541.138 336.184L541.2 336.21C541.221 336.218 541.241 336.228 541.26 336.24C541.278 336.249 541.296 336.257 541.314 336.263L541.369 336.286L541.423 336.309L541.477 336.332C543.764 337.381 546.057 338.447 548.32 339.564C550.584 340.681 552.812 341.845 554.981 343.098C557.143 344.341 559.239 345.697 561.259 347.16C563.274 348.617 565.181 350.217 566.965 351.948C568.847 353.789 570.531 355.823 571.988 358.017C573.429 360.172 574.614 362.489 575.519 364.919C576.39 367.232 576.909 369.663 577.058 372.13C577.203 374.504 576.869 376.882 576.078 379.124C575.971 379.416 575.855 379.704 575.731 379.988C575.608 380.273 575.476 380.552 575.335 380.828C575.195 381.103 575.047 381.374 574.89 381.64C574.733 381.906 574.568 382.167 574.396 382.423C574.324 382.53 574.25 382.635 574.175 382.74C574.1 382.845 574.025 382.949 573.948 383.052C573.871 383.155 573.793 383.258 573.714 383.36C573.635 383.462 573.555 383.563 573.474 383.664C571.976 385.549 570.072 387.071 567.905 388.116C565.726 389.159 563.357 389.747 560.944 389.844C558.408 389.95 555.874 389.582 553.473 388.759C550.897 387.879 548.504 386.535 546.411 384.794C545.687 384.195 545.002 383.552 544.358 382.869C543.72 382.192 543.125 381.476 542.576 380.724C542.031 379.98 541.534 379.202 541.088 378.394C540.645 377.593 540.254 376.764 539.918 375.912C539.76 378.558 540.171 381.207 541.121 383.682C542.125 386.282 543.488 388.729 545.173 390.95C546.952 393.314 548.925 395.525 551.073 397.56C553.236 399.635 555.533 401.581 557.802 403.372C560.07 405.164 562.419 406.997 564.693 408.908C566.965 410.787 569.128 412.795 571.171 414.921C573.152 416.974 574.905 419.238 576.398 421.671C577.865 424.072 578.925 426.7 579.536 429.447C580.19 432.44 580.157 435.543 579.439 438.521C579.09 439.97 578.593 441.379 577.956 442.726C577.313 444.084 576.543 445.378 575.657 446.59L575.574 446.701L575.491 446.811L575.406 446.921L575.32 447.031C573.156 449.862 570.439 452.223 567.335 453.97C565.772 454.849 564.125 455.569 562.419 456.119C560.672 456.682 558.874 457.069 557.051 457.275C553.581 457.595 550.084 457.395 546.674 456.681C543.163 455.945 539.75 454.802 536.503 453.274C533.146 451.702 529.937 449.83 526.916 447.682C523.867 445.523 520.981 443.142 518.28 440.56C517.563 439.876 516.858 439.179 516.166 438.469C515.474 437.759 514.796 437.038 514.131 436.304C513.465 435.571 512.813 434.826 512.177 434.07C511.54 433.313 510.916 432.546 510.306 431.766Z" fill="#F2F2F2"/>
<path d="M566.075 380.526C563.931 379.413 561.87 378.146 559.907 376.737C555.986 373.924 552.482 370.568 549.502 366.771C548.024 364.887 546.685 362.897 545.497 360.818C544.505 359.061 543.624 357.244 542.861 355.377C542.115 353.555 541.488 351.687 540.984 349.784C540.491 347.925 540.124 346.035 539.885 344.127C539.651 342.259 539.548 340.375 539.577 338.492C539.58 338.386 539.583 338.28 539.585 338.176C539.587 338.071 539.589 337.965 539.592 337.859C539.595 337.753 539.599 337.648 539.604 337.545L539.62 337.232C539.53 337.303 539.44 337.374 539.35 337.447L539.082 337.665L538.815 337.885L538.549 338.106L538.378 338.248L538.207 338.391L538.036 338.534L537.867 338.678L538.1 338.404L538.339 338.122C538.417 338.031 538.496 337.94 538.576 337.85C538.655 337.76 538.736 337.671 538.818 337.583L539.01 337.477L539.202 337.373L539.389 337.268L539.579 337.164L539.591 337.16L539.603 337.155L539.615 337.149L539.627 337.144L539.704 337.102L539.78 337.06L539.854 337.018L539.927 336.975L540.258 336.797L540.588 336.622L540.918 336.448L541.249 336.272L540.99 336.144L540.363 335.831L540.367 335.828C540.421 335.851 540.475 335.876 540.527 335.901C540.58 335.927 540.634 335.952 540.687 335.975C540.741 336.001 540.795 336.026 540.847 336.051C540.899 336.076 540.952 336.101 541.006 336.128L541.066 336.153L541.128 336.18L541.19 336.206C541.211 336.214 541.231 336.224 541.25 336.236L541.244 336.336L541.237 336.429L541.231 336.522L541.226 336.616C540.995 339.789 541.16 342.977 541.718 346.109C542.292 349.332 543.234 352.479 544.525 355.487C545.859 358.6 547.527 361.56 549.5 364.313C551.538 367.161 553.873 369.784 556.465 372.137C559.075 374.473 561.922 376.529 564.959 378.272C566.459 379.133 568.004 379.913 569.586 380.609C571.155 381.299 572.761 381.903 574.395 382.418C574.323 382.525 574.25 382.631 574.175 382.735C574.1 382.84 574.024 382.944 573.947 383.047C573.87 383.15 573.792 383.253 573.713 383.355C573.634 383.457 573.554 383.559 573.473 383.659C572.843 383.45 572.216 383.228 571.592 382.992C570.968 382.756 570.348 382.508 569.73 382.246C569.113 381.985 568.5 381.71 567.891 381.423C567.282 381.136 566.677 380.837 566.075 380.526Z" fill="white"/>
<path d="M523.639 404.238C522.937 403.189 522.274 402.12 521.651 401.032C521.028 399.945 520.445 398.841 519.904 397.723C519.362 396.604 518.862 395.471 518.403 394.325C517.945 393.178 517.529 392.021 517.157 390.854C516.967 390.235 516.791 389.614 516.63 388.991C516.47 388.368 516.324 387.744 516.194 387.118C516.063 386.493 515.948 385.867 515.847 385.239C515.745 384.611 515.66 383.983 515.59 383.356C515.555 383.064 515.523 382.771 515.495 382.478C515.467 382.184 515.442 381.891 515.42 381.599C515.399 381.305 515.38 381.013 515.365 380.72C515.35 380.428 515.337 380.135 515.328 379.844C515.468 379.398 515.611 378.954 515.756 378.512C515.9 378.07 516.048 377.629 516.197 377.191C516.347 376.752 516.499 376.316 516.654 375.881C516.809 375.446 516.967 375.013 517.127 374.582C517.092 374.943 517.062 375.306 517.037 375.669C517.013 376.032 516.993 376.397 516.978 376.762C516.964 377.127 516.954 377.494 516.95 377.861C516.946 378.228 516.946 378.596 516.952 378.965C516.951 379.166 516.953 379.367 516.957 379.567C516.961 379.768 516.967 379.969 516.973 380.17C516.981 380.371 516.989 380.572 517 380.773C517.01 380.974 517.022 381.175 517.036 381.376C517.19 383.63 517.543 385.866 518.091 388.059C518.647 390.277 519.371 392.45 520.258 394.558C521.162 396.706 522.204 398.793 523.378 400.806C524.572 402.855 525.878 404.836 527.289 406.741C528.809 408.797 530.414 410.799 532.107 412.747C533.799 414.695 535.556 416.59 537.377 418.431C539.199 420.271 541.075 422.053 543.005 423.779C544.934 425.505 546.896 427.171 548.89 428.778C550.932 430.427 553.015 432.014 555.139 433.538C557.264 435.062 559.423 436.519 561.617 437.91C563.809 439.3 566.035 440.622 568.294 441.877C570.553 443.131 572.837 444.314 575.147 445.425C575.253 445.477 575.349 445.548 575.429 445.634C575.508 445.719 575.572 445.816 575.618 445.922C575.664 446.027 575.691 446.139 575.698 446.253C575.705 446.368 575.69 446.483 575.654 446.592C575.642 446.639 575.625 446.685 575.604 446.729C575.584 446.771 575.559 446.812 575.53 446.849C575.502 446.887 575.47 446.921 575.434 446.951C575.399 446.982 575.36 447.008 575.319 447.03C575.276 447.05 575.23 447.064 575.183 447.072C575.136 447.081 575.089 447.083 575.041 447.08C574.992 447.077 574.944 447.068 574.898 447.053C574.85 447.039 574.803 447.019 574.759 446.994C574.474 446.857 574.189 446.719 573.903 446.581C573.618 446.443 573.334 446.304 573.05 446.164C572.765 446.024 572.482 445.883 572.198 445.741C571.915 445.598 571.632 445.454 571.349 445.307C568.995 444.097 566.672 442.814 564.381 441.458C562.089 440.102 559.832 438.676 557.61 437.179C555.388 435.683 553.206 434.119 551.065 432.488C548.923 430.856 546.827 429.16 544.776 427.4C542.794 425.704 540.839 423.952 538.929 422.14C537.02 420.328 535.159 418.457 533.367 416.527C531.575 414.597 529.854 412.609 528.224 410.56C526.594 408.511 525.06 406.405 523.639 404.238Z" fill="white"/>
<path d="M567.984 235.841L566.298 236.06L577.605 193.582C578.438 190.746 578.574 187.75 578 184.85C577.503 182.48 576.272 180.327 574.484 178.697C572.61 177.067 570.314 176 567.861 175.62C564.873 175.157 561.823 175.294 558.888 176.022V176.022L482.043 193.539C479.36 194.191 476.793 195.248 474.43 196.674C471.859 198.204 469.468 200.019 467.302 202.083C465.074 204.189 463.074 206.523 461.335 209.049C459.637 211.493 458.252 214.142 457.214 216.932V216.932L376.811 438.291C375.474 441.93 374.606 445.726 374.226 449.585C373.874 453.011 374.041 456.471 374.719 459.848C375.285 462.781 376.468 465.561 378.189 468.003C379.768 470.223 381.992 471.902 384.558 472.811V472.811L465.75 500.789C469.357 502.018 473.228 502.249 476.955 501.457C480.939 500.588 484.687 498.861 487.936 496.395C491.585 493.651 494.723 490.285 497.206 486.451C499.956 482.239 502.011 477.612 503.292 472.746V472.746L557.726 268.256L559.434 268.119L567.984 235.841Z" fill="#2F2E41"/>
<path d="M562.117 233.49L560.431 233.709L571.738 191.231C572.571 188.394 572.707 185.398 572.133 182.498C571.636 180.128 570.405 177.976 568.616 176.345C566.743 174.715 564.447 173.649 561.994 173.269C559.006 172.806 555.956 172.942 553.021 173.671L476.175 191.188C473.493 191.839 470.926 192.896 468.562 194.323C465.992 195.853 463.601 197.667 461.435 199.732C459.207 201.837 457.207 204.172 455.468 206.697C453.769 209.142 452.385 211.79 451.347 214.58V214.58L370.944 435.939C369.607 439.579 368.738 443.374 368.359 447.233C368.007 450.66 368.173 454.119 368.852 457.496C369.418 460.43 370.601 463.21 372.322 465.651C373.901 467.871 376.124 469.55 378.691 470.459V470.459L459.883 498.437C463.489 499.666 467.361 499.897 471.088 499.105C475.072 498.236 478.82 496.509 482.069 494.043C485.718 491.299 488.856 487.933 491.339 484.1C494.089 479.888 496.144 475.26 497.425 470.395V470.395L551.858 265.904L553.567 265.768L562.117 233.49Z" fill="#3F3D56"/>
<path d="M552.335 179.214L541.039 181.691C541.162 182.669 541.065 183.662 540.754 184.598C540.402 185.692 539.892 186.729 539.239 187.675C537.77 189.823 535.81 191.589 533.522 192.825C533.247 192.971 532.974 193.105 532.702 193.229C532.43 193.352 532.158 193.465 531.886 193.565C531.615 193.666 531.346 193.755 531.078 193.832C530.811 193.909 530.546 193.974 530.285 194.027L486.12 202.979C485.301 203.169 484.448 203.16 483.633 202.951C482.976 202.774 482.398 202.384 481.988 201.842C481.575 201.259 481.342 200.568 481.317 199.854C481.283 198.944 481.427 198.035 481.741 197.18C481.819 196.949 481.908 196.717 482.009 196.483C482.109 196.249 482.218 196.015 482.336 195.781C482.454 195.545 482.582 195.311 482.721 195.079C482.86 194.846 483.007 194.613 483.161 194.381L474.798 196.214C472.784 196.687 470.855 197.469 469.08 198.531C467.139 199.675 465.335 201.036 463.702 202.588C462.018 204.173 460.508 205.934 459.197 207.839C457.918 209.681 456.879 211.678 456.104 213.782L375.852 437.064C374.854 439.808 374.213 442.669 373.945 445.576C373.698 448.143 373.844 450.732 374.378 453.255C374.823 455.435 375.732 457.494 377.043 459.291C378.245 460.921 379.92 462.139 381.84 462.78V462.78L463.629 489.377C466.328 490.243 469.209 490.373 471.974 489.752C474.919 489.077 477.685 487.778 480.085 485.943C482.771 483.907 485.083 481.42 486.918 478.593C488.949 475.488 490.473 472.079 491.433 468.494V468.494L566.163 192.466C566.79 190.359 566.906 188.133 566.502 185.972C566.151 184.201 565.256 182.584 563.943 181.347C562.566 180.11 560.866 179.29 559.042 178.983C556.813 178.608 554.532 178.687 552.335 179.214V179.214Z" fill="white"/>
<path d="M508.475 284.961H345.773V229.773H508.475V284.961Z" fill="white"/>
<path d="M460.911 304.441H301.453V381.812H460.911V304.441Z" fill="white"/>
<path d="M327.355 341.594C333.725 341.594 338.889 336.425 338.889 330.049C338.889 323.673 333.725 318.504 327.355 318.504C320.984 318.504 315.82 323.673 315.82 330.049C315.82 336.425 320.984 341.594 327.355 341.594Z" fill="#3B9DCE"/>
<path d="M353.993 322.352C353.483 322.352 352.994 322.554 352.633 322.915C352.273 323.276 352.07 323.765 352.07 324.276C352.07 324.786 352.273 325.276 352.633 325.636C352.994 325.997 353.483 326.2 353.993 326.2H444.619C445.128 326.199 445.615 325.995 445.975 325.635C446.334 325.274 446.536 324.785 446.536 324.276C446.536 323.766 446.334 323.278 445.975 322.917C445.615 322.556 445.128 322.353 444.619 322.352H353.993Z" fill="#E6E6E6"/>
<path d="M353.991 333.898C353.739 333.898 353.488 333.947 353.255 334.043C353.021 334.139 352.808 334.28 352.629 334.458C352.45 334.637 352.308 334.849 352.211 335.082C352.113 335.315 352.063 335.566 352.063 335.819C352.062 336.071 352.111 336.322 352.207 336.556C352.304 336.79 352.445 337.002 352.624 337.181C352.802 337.36 353.014 337.502 353.247 337.6C353.48 337.697 353.731 337.747 353.983 337.747H392.988C393.24 337.747 393.49 337.697 393.724 337.6C393.957 337.504 394.169 337.362 394.347 337.183C394.526 337.005 394.667 336.792 394.764 336.559C394.861 336.326 394.91 336.075 394.91 335.823C394.91 335.57 394.861 335.32 394.764 335.086C394.667 334.853 394.526 334.641 394.347 334.462C394.169 334.283 393.957 334.142 393.724 334.045C393.49 333.948 393.24 333.898 392.988 333.898H353.991Z" fill="#E6E6E6"/>
<path d="M318.512 352.355C317.049 352.355 315.859 353.219 315.859 354.28C315.859 355.341 317.049 356.204 318.512 356.204H443.548C445.01 356.204 446.2 355.341 446.2 354.28C446.2 353.219 445.01 352.355 443.548 352.355H318.512Z" fill="#E6E6E6"/>
<path d="M318.512 363.898C317.049 363.898 315.859 364.762 315.859 365.823C315.859 366.884 317.049 367.747 318.512 367.747H414.766C416.228 367.747 417.418 366.884 417.418 365.823C417.418 364.762 416.228 363.898 414.766 363.898H318.512Z" fill="#E6E6E6"/>
<path d="M462.529 383.433H299.828V302.816H462.529V383.433ZM303.071 380.187H459.286V306.063H303.071V380.187Z" fill="#E6E6E6"/>
<path d="M373.3 268.551C379.67 268.551 384.834 263.382 384.834 257.006C384.834 250.63 379.67 245.461 373.3 245.461C366.93 245.461 361.766 250.63 361.766 257.006C361.766 263.382 366.93 268.551 373.3 268.551Z" fill="#3B9DCE"/>
<path d="M399.938 249.309C399.428 249.309 398.939 249.511 398.579 249.872C398.218 250.233 398.016 250.722 398.016 251.233C398.016 251.743 398.218 252.233 398.579 252.593C398.939 252.954 399.428 253.157 399.938 253.157H490.564C491.073 253.156 491.561 252.952 491.92 252.592C492.28 252.231 492.482 251.742 492.482 251.233C492.482 250.723 492.28 250.235 491.92 249.874C491.561 249.513 491.073 249.31 490.564 249.309H399.938Z" fill="#E6E6E6"/>
<path d="M399.937 260.855C399.684 260.855 399.434 260.904 399.2 261C398.966 261.096 398.754 261.237 398.575 261.415C398.395 261.594 398.253 261.806 398.156 262.039C398.059 262.272 398.008 262.523 398.008 262.776C398.007 263.029 398.057 263.279 398.153 263.513C398.249 263.747 398.39 263.959 398.569 264.138C398.747 264.317 398.959 264.46 399.192 264.557C399.426 264.654 399.676 264.704 399.929 264.704H471.239C471.749 264.704 472.238 264.501 472.598 264.14C472.959 263.779 473.161 263.29 473.161 262.78C473.161 262.269 472.959 261.78 472.598 261.419C472.238 261.058 471.749 260.855 471.239 260.855H399.937Z" fill="#E6E6E6"/>
<path d="M508.475 284.961H345.773V229.773H508.475V284.961ZM349.017 281.715H505.232V233.02H349.017V281.715Z" fill="#E6E6E6"/>
<path d="M188.783 495.185H196.985L200.887 463.52L188.781 463.52L188.783 495.185Z" fill="#FFB6B6"/>
<path d="M212.805 502.805L187.028 502.806L187.027 492.837L204.06 492.836C206.379 492.836 208.603 493.758 210.243 495.4C211.883 497.041 212.805 499.267 212.805 501.589L212.805 502.805V502.805Z" fill="#2F2E41"/>
<path d="M106.773 484.545L113.961 488.5L132.622 462.634L122.014 456.797L106.773 484.545Z" fill="#FFB6B6"/>
<path d="M124.148 502.809L101.56 490.378L106.358 481.643L121.284 489.856C123.316 490.975 124.821 492.855 125.468 495.084C126.115 497.314 125.851 499.709 124.734 501.743L124.148 502.809V502.809Z" fill="#2F2E41"/>
<path d="M188.403 477.607C187.672 477.607 186.967 477.34 186.418 476.857C185.869 476.374 185.515 475.707 185.421 474.982L175.164 395.866C175.118 395.516 174.964 395.189 174.722 394.932C174.48 394.676 174.163 394.502 173.817 394.436C173.47 394.37 173.112 394.416 172.793 394.566C172.474 394.716 172.211 394.963 172.04 395.272L129.293 472.903C128.94 473.537 128.372 474.023 127.691 474.273C127.011 474.523 126.263 474.521 125.585 474.266L116.267 470.712C115.892 470.569 115.55 470.353 115.26 470.076C114.969 469.798 114.738 469.466 114.578 469.098C114.418 468.73 114.333 468.333 114.328 467.932C114.324 467.53 114.399 467.132 114.55 466.76L144.163 393.946C144.238 393.761 144.288 393.567 144.314 393.37C148.325 362.296 158.53 346.495 161.562 342.392C161.783 342.09 161.929 341.74 161.987 341.37C162.044 341 162.012 340.622 161.893 340.267L161.477 339.015C161.31 338.519 161.276 337.987 161.378 337.473C161.479 336.959 161.713 336.48 162.056 336.085C172.981 323.628 192.024 330.425 192.215 330.495L192.311 330.531L192.37 330.612C213.723 359.924 205.828 455.127 204.029 473.914C203.962 474.62 203.647 475.279 203.141 475.775C202.635 476.272 201.97 476.573 201.263 476.626L188.637 477.599C188.559 477.605 188.481 477.607 188.403 477.607Z" fill="#2F2E41"/>
<path d="M182.612 257.775C192.693 257.775 200.865 249.595 200.865 239.505C200.865 229.414 192.693 221.234 182.612 221.234C172.531 221.234 164.359 229.414 164.359 239.505C164.359 249.595 172.531 257.775 182.612 257.775Z" fill="#FFB8B8"/>
<path d="M154.391 355.76L208.1 360.653C203.418 344.355 199.128 328.114 202.624 311.933C207.065 297.486 207.478 289.483 195.763 282.679L187.854 265.018L173.539 264.497L166.559 262.582C160.92 271.658 158.613 282.415 160.035 293.008C163.069 316.042 162.25 337.417 154.391 355.76Z" fill="#3B9DCE"/>
<path d="M162.549 274.231L157.146 249.411C156.019 243.536 156.302 237.477 157.971 231.733C158.153 231.144 158.372 230.568 158.627 230.007C160.123 226.745 162.474 223.949 165.431 221.919C168.388 219.888 171.839 218.698 175.418 218.475C187.696 217.626 189.498 218.922 189.942 219.561C196.88 219.28 202.26 221.963 204.715 226.928C204.955 227.421 205.085 227.961 205.094 228.509C205.104 229.057 204.993 229.601 204.77 230.102C204.547 230.603 204.217 231.049 203.803 231.408C203.389 231.768 202.901 232.032 202.375 232.182C198.946 233.172 194.126 234.271 190.512 233.948C183.267 242.646 186.228 258.583 193.579 268.079L193.868 268.452L186.585 269.946L178.122 258.149C177.954 257.916 177.712 257.747 177.435 257.671C177.158 257.595 176.864 257.617 176.601 257.732C176.338 257.847 176.122 258.049 175.99 258.305C175.858 258.56 175.818 258.853 175.876 259.134L178.445 271.629L162.549 274.231Z" fill="#2F2E41"/>
<path d="M557.305 503.001H48V501.719H557.537L557.305 503.001Z" fill="#CACACA"/>
<path d="M266.879 341.063L134.037 435.093L102.203 390.034L235.045 296.004L266.879 341.063Z" fill="white"/>
<path d="M147.041 405.788C152.242 402.107 153.477 394.902 149.799 389.696C146.121 384.49 138.923 383.254 133.722 386.936C128.521 390.617 127.286 397.822 130.964 403.028C134.642 408.234 141.84 409.47 147.041 405.788Z" fill="#3B9DCE"/>
<path d="M157.695 374.683C157.279 374.978 156.997 375.426 156.91 375.929C156.824 376.432 156.941 376.948 157.236 377.365C157.53 377.782 157.978 378.064 158.48 378.15C158.983 378.237 159.499 378.12 159.915 377.825L233.909 325.45C234.324 325.154 234.605 324.706 234.69 324.204C234.776 323.702 234.659 323.186 234.365 322.77C234.071 322.354 233.624 322.072 233.123 321.985C232.621 321.898 232.106 322.014 231.689 322.307L157.695 374.683Z" fill="#E6E6E6"/>
<path d="M164.353 384.108C163.937 384.402 163.654 384.849 163.567 385.352C163.48 385.854 163.596 386.371 163.89 386.788C164.183 387.205 164.629 387.488 165.131 387.576C165.633 387.663 166.149 387.548 166.566 387.255L166.573 387.25L224.79 346.042C225.206 345.748 225.488 345.299 225.575 344.796C225.661 344.293 225.544 343.777 225.249 343.36C225.104 343.154 224.919 342.978 224.705 342.843C224.492 342.709 224.254 342.617 224.005 342.575C223.502 342.488 222.986 342.605 222.57 342.9L164.353 384.108Z" fill="#E6E6E6"/>
<path d="M266.879 341.063L134.037 435.093L102.203 390.034L235.045 296.004L266.879 341.063ZM134.812 430.568L262.358 340.287L234.27 300.529L106.724 390.81L134.812 430.568Z" fill="#E6E6E6"/>
<path d="M570.209 324.37C570.68 324.352 571.15 324.432 571.589 324.605C572.005 324.772 572.382 325.023 572.697 325.343C573.013 325.664 573.26 326.048 573.422 326.469C573.593 326.915 573.671 327.392 573.651 327.869C573.632 328.359 573.518 328.841 573.315 329.287C573.118 329.725 572.842 330.124 572.503 330.463C572.165 330.801 571.769 331.074 571.334 331.27C570.892 331.468 570.415 331.577 569.93 331.591C569.459 331.605 568.99 331.521 568.552 331.343C568.138 331.174 567.763 330.921 567.451 330.6C567.138 330.277 566.894 329.893 566.734 329.473C566.566 329.028 566.49 328.554 566.511 328.079C566.531 327.592 566.644 327.112 566.845 326.668C567.042 326.234 567.315 325.84 567.651 325.503C567.986 325.166 568.38 324.892 568.812 324.695C569.252 324.496 569.727 324.385 570.209 324.37V324.37Z" fill="#F2F2F2"/>
<path d="M196.726 370.208L188.088 322.939L188.696 293.707L169.227 293.098L172.877 325.984L185.466 371.587C184.421 372.858 183.781 374.413 183.628 376.052C183.475 377.691 183.816 379.339 184.607 380.782C185.399 382.225 186.604 383.397 188.068 384.148C189.531 384.899 191.186 385.193 192.818 384.993C194.451 384.794 195.986 384.109 197.226 383.027C198.466 381.945 199.353 380.517 199.774 378.925C200.194 377.334 200.129 375.653 199.586 374.099C199.042 372.545 198.046 371.19 196.726 370.208H196.726Z" fill="#FFB8B8"/>
<path d="M168.008 296.139C175.062 293.45 182.857 293.45 189.911 296.139L188.694 271.779C188.694 270.5 188.442 269.233 187.953 268.05C187.464 266.868 186.747 265.794 185.843 264.889C184.939 263.984 183.866 263.267 182.685 262.777C181.504 262.287 180.238 262.035 178.959 262.035V262.035C177.681 262.035 176.415 262.287 175.234 262.777C174.053 263.267 172.98 263.984 172.076 264.889C171.172 265.794 170.455 266.868 169.966 268.05C169.476 269.233 169.225 270.5 169.225 271.779L168.008 296.139Z" fill="#3B9DCE"/>
</g>
<defs>
<clipPath id="clip0">
<rect width="532" height="330" fill="white" transform="translate(48 173)"/>
</clipPath>
</defs>
</svg>
