<svg width="130" height="45" viewBox="0 0 130 45" fill="none" xmlns="http://www.w3.org/2000/svg">
<path d="M15.2721 36.6456C14.7784 39.3626 16.6033 42.032 19.3578 41.8362C21.5131 41.6829 23.6403 41.1797 25.6535 40.3358C29.2138 38.8433 32.2644 36.3497 34.4351 33.1574C36.6058 29.9651 37.8034 26.2115 37.8825 22.3519C37.9616 18.4923 36.9189 14.6927 34.8808 11.4142C32.8427 8.13562 29.8968 5.51906 26.4007 3.882C22.9046 2.24494 19.0086 1.65775 15.1853 2.19167C11.362 2.72559 7.77579 4.35767 4.86192 6.88988C3.21424 8.32175 1.82158 10.0066 0.730354 11.8716C-0.664215 14.255 0.921997 17.0728 3.57688 17.8325L13.59 20.6975C16.061 21.4045 17.5935 23.8697 17.134 26.3985L15.2721 36.6456Z" fill="#3B9DCE"/>
<path d="M18.2721 34.6456C17.7784 37.3626 19.6033 40.032 22.3578 39.8362C23.3327 39.7669 24.3035 39.6258 25.2621 39.4132C27.8537 38.8383 30.3045 37.7519 32.4708 36.2175C34.6371 34.6831 36.4752 32.7316 37.8775 30.4775C39.2797 28.2235 40.2178 25.7121 40.6368 23.0907C41.0557 20.4694 40.9472 17.7907 40.3174 15.2119C39.6876 12.633 38.5493 10.2059 36.9692 8.07268C35.3891 5.9395 33.399 4.14324 31.1157 2.78923C30.2711 2.28839 29.3927 1.8518 28.4879 1.48206C25.9317 0.437432 23.3657 2.40504 22.9879 5.1405L20.9435 19.9432L18.2721 34.6456Z" fill="#66B2D9" fill-opacity="0.6"/>
<path d="M64.2278 14.836C64.2278 15.204 64.1238 15.54 63.9158 15.844L55.0118 28.42H64.0238V31H50.8238V29.728C50.8238 29.568 50.8518 29.416 50.9078 29.272C50.9638 29.12 51.0358 28.98 51.1238 28.852L60.0518 16.216H51.3878V13.648H64.2278V14.836ZM69.3876 18.688V31H66.4116V18.688H69.3876ZM69.7956 15.1C69.7956 15.356 69.7436 15.596 69.6396 15.82C69.5356 16.044 69.3956 16.24 69.2196 16.408C69.0516 16.576 68.8516 16.712 68.6196 16.816C68.3876 16.912 68.1396 16.96 67.8756 16.96C67.6196 16.96 67.3756 16.912 67.1436 16.816C66.9196 16.712 66.7236 16.576 66.5556 16.408C66.3876 16.24 66.2516 16.044 66.1476 15.82C66.0516 15.596 66.0036 15.356 66.0036 15.1C66.0036 14.836 66.0516 14.588 66.1476 14.356C66.2516 14.124 66.3876 13.924 66.5556 13.756C66.7236 13.588 66.9196 13.456 67.1436 13.36C67.3756 13.256 67.6196 13.204 67.8756 13.204C68.1396 13.204 68.3876 13.256 68.6196 13.36C68.8516 13.456 69.0516 13.588 69.2196 13.756C69.3956 13.924 69.5356 14.124 69.6396 14.356C69.7436 14.588 69.7956 14.836 69.7956 15.1ZM80.1373 21.832C79.8013 21.424 79.4333 21.136 79.0333 20.968C78.6413 20.8 78.2173 20.716 77.7613 20.716C77.3133 20.716 76.9093 20.8 76.5493 20.968C76.1893 21.136 75.8813 21.392 75.6253 21.736C75.3693 22.072 75.1733 22.504 75.0373 23.032C74.9013 23.552 74.8333 24.168 74.8333 24.88C74.8333 25.6 74.8893 26.212 75.0013 26.716C75.1213 27.212 75.2893 27.62 75.5053 27.94C75.7213 28.252 75.9853 28.48 76.2973 28.624C76.6093 28.76 76.9573 28.828 77.3413 28.828C77.9573 28.828 78.4813 28.7 78.9133 28.444C79.3453 28.188 79.7533 27.824 80.1373 27.352V21.832ZM83.1013 13.168V31H81.2893C80.8973 31 80.6493 30.82 80.5453 30.46L80.2933 29.272C79.7973 29.84 79.2253 30.3 78.5773 30.652C77.9373 31.004 77.1893 31.18 76.3333 31.18C75.6613 31.18 75.0453 31.04 74.4853 30.76C73.9253 30.48 73.4413 30.076 73.0333 29.548C72.6333 29.012 72.3213 28.352 72.0973 27.568C71.8813 26.784 71.7733 25.888 71.7733 24.88C71.7733 23.968 71.8973 23.12 72.1453 22.336C72.3933 21.552 72.7493 20.872 73.2133 20.296C73.6773 19.72 74.2333 19.272 74.8813 18.952C75.5293 18.624 76.2573 18.46 77.0653 18.46C77.7533 18.46 78.3413 18.568 78.8293 18.784C79.3173 19 79.7533 19.292 80.1373 19.66V13.168H83.1013Z" fill="#3B9DCE"/>
<path d="M88.0785 22.408C88.0785 23.464 88.2225 24.412 88.5105 25.252C88.7985 26.084 89.2065 26.792 89.7345 27.376C90.2705 27.952 90.9145 28.396 91.6665 28.708C92.4185 29.012 93.2545 29.164 94.1745 29.164C95.1025 29.164 95.9425 29.012 96.6945 28.708C97.4465 28.396 98.0865 27.952 98.6145 27.376C99.1425 26.792 99.5505 26.084 99.8385 25.252C100.127 24.412 100.271 23.464 100.271 22.408C100.271 21.352 100.127 20.404 99.8385 19.564C99.5505 18.724 99.1425 18.016 98.6145 17.44C98.0865 16.856 97.4465 16.408 96.6945 16.096C95.9425 15.784 95.1025 15.628 94.1745 15.628C93.2545 15.628 92.4185 15.784 91.6665 16.096C90.9145 16.408 90.2705 16.856 89.7345 17.44C89.2065 18.016 88.7985 18.724 88.5105 19.564C88.2225 20.404 88.0785 21.352 88.0785 22.408ZM103.451 34.552H101.531C101.243 34.552 100.987 34.512 100.763 34.432C100.539 34.352 100.335 34.212 100.151 34.012L97.1385 30.724C96.2265 31.028 95.2385 31.18 94.1745 31.18C92.9105 31.18 91.7585 30.968 90.7185 30.544C89.6785 30.112 88.7865 29.508 88.0425 28.732C87.2985 27.956 86.7225 27.032 86.3145 25.96C85.9065 24.88 85.7025 23.696 85.7025 22.408C85.7025 21.12 85.9065 19.94 86.3145 18.868C86.7225 17.788 87.2985 16.86 88.0425 16.084C88.7865 15.3 89.6785 14.692 90.7185 14.26C91.7585 13.828 92.9105 13.612 94.1745 13.612C95.4385 13.612 96.5905 13.828 97.6305 14.26C98.6785 14.692 99.5745 15.3 100.319 16.084C101.063 16.86 101.639 17.788 102.047 18.868C102.455 19.94 102.659 21.12 102.659 22.408C102.659 23.216 102.575 23.984 102.407 24.712C102.247 25.44 102.011 26.12 101.699 26.752C101.387 27.376 101.007 27.944 100.559 28.456C100.111 28.968 99.6065 29.412 99.0465 29.788L103.451 34.552ZM115.282 18.844V31H114.01C113.706 31 113.514 30.852 113.434 30.556L113.266 29.248C112.738 29.832 112.146 30.304 111.49 30.664C110.834 31.016 110.082 31.192 109.234 31.192C108.57 31.192 107.982 31.084 107.47 30.868C106.966 30.644 106.542 30.332 106.198 29.932C105.854 29.532 105.594 29.048 105.418 28.48C105.25 27.912 105.166 27.284 105.166 26.596V18.844H107.302V26.596C107.302 27.516 107.51 28.228 107.926 28.732C108.35 29.236 108.994 29.488 109.858 29.488C110.49 29.488 111.078 29.34 111.622 29.044C112.174 28.74 112.682 28.324 113.146 27.796V18.844H115.282ZM126.805 23.596C126.805 23.1 126.733 22.648 126.589 22.24C126.453 21.824 126.249 21.468 125.977 21.172C125.713 20.868 125.389 20.636 125.005 20.476C124.621 20.308 124.185 20.224 123.697 20.224C122.673 20.224 121.861 20.524 121.261 21.124C120.669 21.716 120.301 22.54 120.157 23.596H126.805ZM128.533 29.296C128.269 29.616 127.953 29.896 127.585 30.136C127.217 30.368 126.821 30.56 126.397 30.712C125.981 30.864 125.549 30.976 125.101 31.048C124.653 31.128 124.209 31.168 123.769 31.168C122.929 31.168 122.153 31.028 121.441 30.748C120.737 30.46 120.125 30.044 119.605 29.5C119.093 28.948 118.693 28.268 118.405 27.46C118.117 26.652 117.973 25.724 117.973 24.676C117.973 23.828 118.101 23.036 118.357 22.3C118.621 21.564 118.997 20.928 119.485 20.392C119.973 19.848 120.569 19.424 121.273 19.12C121.977 18.808 122.769 18.652 123.649 18.652C124.377 18.652 125.049 18.776 125.665 19.024C126.289 19.264 126.825 19.616 127.273 20.08C127.729 20.536 128.085 21.104 128.341 21.784C128.597 22.456 128.725 23.224 128.725 24.088C128.725 24.424 128.689 24.648 128.617 24.76C128.545 24.872 128.409 24.928 128.209 24.928H120.085C120.109 25.696 120.213 26.364 120.397 26.932C120.589 27.5 120.853 27.976 121.189 28.36C121.525 28.736 121.925 29.02 122.389 29.212C122.853 29.396 123.373 29.488 123.949 29.488C124.485 29.488 124.945 29.428 125.329 29.308C125.721 29.18 126.057 29.044 126.337 28.9C126.617 28.756 126.849 28.624 127.033 28.504C127.225 28.376 127.389 28.312 127.525 28.312C127.701 28.312 127.837 28.38 127.933 28.516L128.533 29.296Z" fill="#66B2D9"/>
</svg>
