<svg width="205" height="60" viewBox="0 0 205 60" fill="none" xmlns="http://www.w3.org/2000/svg">
<path d="M23.0183 54.6729C22.5386 57.3759 24.338 60.0114 27.0833 60C30.6108 59.9853 34.1179 59.262 37.4008 57.853C42.2158 55.7865 46.3415 52.3335 49.2773 47.9132C52.213 43.4929 53.8327 38.2951 53.9396 32.9508C54.0466 27.6064 52.6364 22.3451 49.88 17.8053C47.1236 13.2655 43.1396 9.64238 38.4114 7.37554C33.6832 5.1087 28.414 4.29561 23.2433 5.03493C18.0725 5.77425 13.2225 8.0342 9.28174 11.5405C6.56445 13.9583 4.35999 16.8969 2.78223 20.1735C1.59474 22.6396 3.15472 25.4069 5.78143 26.1764L22.6733 31.125C25.1207 31.842 26.6363 34.286 26.1906 36.797L23.0183 54.6729Z" fill="#3B9DCE"/>
<path d="M27.0729 51.9034C26.5933 54.6064 28.3927 57.2418 31.1379 57.2304C33.0609 57.2224 34.9822 57.0039 36.8688 56.5754C40.3739 55.7794 43.6884 54.275 46.6181 52.1503C49.5478 50.0256 52.0338 47.3235 53.9302 44.2022C55.8266 41.081 57.0953 37.6036 57.662 33.9737C58.2286 30.3439 58.0817 26.6348 57.23 23.0639C56.3783 19.4929 54.8388 16.132 52.7018 13.1782C50.5649 10.2244 47.8735 7.73714 44.7854 5.86224C43.1428 4.86495 41.4055 4.05159 39.6038 3.43298C36.9803 2.53218 34.4164 4.49753 34.0456 7.24655L31.0283 29.6153L27.0729 51.9034Z" fill="#66B2D9" fill-opacity="0.6"/>
<path d="M95.8416 11.754C95.8416 12.306 95.6856 12.81 95.3736 13.266L82.0176 32.13H95.5356V36H75.7356V34.092C75.7356 33.852 75.7776 33.624 75.8616 33.408C75.9456 33.18 76.0536 32.97 76.1856 32.778L89.5776 13.824H76.5816V9.972H95.8416V11.754ZM103.581 17.532V36H99.1173V17.532H103.581ZM104.193 12.15C104.193 12.534 104.115 12.894 103.959 13.23C103.803 13.566 103.593 13.86 103.329 14.112C103.077 14.364 102.777 14.568 102.429 14.724C102.081 14.868 101.709 14.94 101.313 14.94C100.929 14.94 100.563 14.868 100.215 14.724C99.8793 14.568 99.5853 14.364 99.3333 14.112C99.0813 13.86 98.8773 13.566 98.7213 13.23C98.5773 12.894 98.5053 12.534 98.5053 12.15C98.5053 11.754 98.5773 11.382 98.7213 11.034C98.8773 10.686 99.0813 10.386 99.3333 10.134C99.5853 9.882 99.8793 9.684 100.215 9.54C100.563 9.384 100.929 9.306 101.313 9.306C101.709 9.306 102.081 9.384 102.429 9.54C102.777 9.684 103.077 9.882 103.329 10.134C103.593 10.386 103.803 10.686 103.959 11.034C104.115 11.382 104.193 11.754 104.193 12.15ZM119.706 22.248C119.202 21.636 118.65 21.204 118.05 20.952C117.462 20.7 116.826 20.574 116.142 20.574C115.47 20.574 114.864 20.7 114.324 20.952C113.784 21.204 113.322 21.588 112.938 22.104C112.554 22.608 112.26 23.256 112.056 24.048C111.852 24.828 111.75 25.752 111.75 26.82C111.75 27.9 111.834 28.818 112.002 29.574C112.182 30.318 112.434 30.93 112.758 31.41C113.082 31.878 113.478 32.22 113.946 32.436C114.414 32.64 114.936 32.742 115.512 32.742C116.436 32.742 117.222 32.55 117.87 32.166C118.518 31.782 119.13 31.236 119.706 30.528V22.248ZM124.152 9.252V36H121.434C120.846 36 120.474 35.73 120.318 35.19L119.94 33.408C119.196 34.26 118.338 34.95 117.366 35.478C116.406 36.006 115.284 36.27 114 36.27C112.992 36.27 112.068 36.06 111.228 35.64C110.388 35.22 109.662 34.614 109.05 33.822C108.45 33.018 107.982 32.028 107.646 30.852C107.322 29.676 107.16 28.332 107.16 26.82C107.16 25.452 107.346 24.18 107.718 23.004C108.09 21.828 108.624 20.808 109.32 19.944C110.016 19.08 110.85 18.408 111.822 17.928C112.794 17.436 113.886 17.19 115.098 17.19C116.13 17.19 117.012 17.352 117.744 17.676C118.476 18 119.13 18.438 119.706 18.99V9.252H124.152Z" fill="#3B9DCE"/>
<path d="M131.618 23.112C131.618 24.696 131.834 26.118 132.266 27.378C132.698 28.626 133.31 29.688 134.102 30.564C134.906 31.428 135.872 32.094 137 32.562C138.128 33.018 139.382 33.246 140.762 33.246C142.154 33.246 143.414 33.018 144.542 32.562C145.67 32.094 146.63 31.428 147.422 30.564C148.214 29.688 148.826 28.626 149.258 27.378C149.69 26.118 149.906 24.696 149.906 23.112C149.906 21.528 149.69 20.106 149.258 18.846C148.826 17.586 148.214 16.524 147.422 15.66C146.63 14.784 145.67 14.112 144.542 13.644C143.414 13.176 142.154 12.942 140.762 12.942C139.382 12.942 138.128 13.176 137 13.644C135.872 14.112 134.906 14.784 134.102 15.66C133.31 16.524 132.698 17.586 132.266 18.846C131.834 20.106 131.618 21.528 131.618 23.112ZM154.676 41.328H151.796C151.364 41.328 150.98 41.268 150.644 41.148C150.308 41.028 150.002 40.818 149.726 40.518L145.208 35.586C143.84 36.042 142.358 36.27 140.762 36.27C138.866 36.27 137.138 35.952 135.578 35.316C134.018 34.668 132.68 33.762 131.564 32.598C130.448 31.434 129.584 30.048 128.972 28.44C128.36 26.82 128.054 25.044 128.054 23.112C128.054 21.18 128.36 19.41 128.972 17.802C129.584 16.182 130.448 14.79 131.564 13.626C132.68 12.45 134.018 11.538 135.578 10.89C137.138 10.242 138.866 9.918 140.762 9.918C142.658 9.918 144.386 10.242 145.946 10.89C147.518 11.538 148.862 12.45 149.978 13.626C151.094 14.79 151.958 16.182 152.57 17.802C153.182 19.41 153.488 21.18 153.488 23.112C153.488 24.324 153.362 25.476 153.11 26.568C152.87 27.66 152.516 28.68 152.048 29.628C151.58 30.564 151.01 31.416 150.338 32.184C149.666 32.952 148.91 33.618 148.07 34.182L154.676 41.328ZM172.423 17.766V36H170.515C170.059 36 169.771 35.778 169.651 35.334L169.399 33.372C168.607 34.248 167.719 34.956 166.735 35.496C165.751 36.024 164.623 36.288 163.351 36.288C162.355 36.288 161.473 36.126 160.705 35.802C159.949 35.466 159.313 34.998 158.797 34.398C158.281 33.798 157.891 33.072 157.627 32.22C157.375 31.368 157.249 30.426 157.249 29.394V17.766H160.453V29.394C160.453 30.774 160.765 31.842 161.389 32.598C162.025 33.354 162.991 33.732 164.287 33.732C165.235 33.732 166.117 33.51 166.933 33.066C167.761 32.61 168.523 31.986 169.219 31.194V17.766H172.423ZM189.707 24.894C189.707 24.15 189.599 23.472 189.383 22.86C189.179 22.236 188.873 21.702 188.465 21.258C188.069 20.802 187.583 20.454 187.007 20.214C186.431 19.962 185.777 19.836 185.045 19.836C183.509 19.836 182.291 20.286 181.391 21.186C180.503 22.074 179.951 23.31 179.735 24.894H189.707ZM192.299 33.444C191.903 33.924 191.429 34.344 190.877 34.704C190.325 35.052 189.731 35.34 189.095 35.568C188.471 35.796 187.823 35.964 187.151 36.072C186.479 36.192 185.813 36.252 185.153 36.252C183.893 36.252 182.729 36.042 181.661 35.622C180.605 35.19 179.687 34.566 178.907 33.75C178.139 32.922 177.539 31.902 177.107 30.69C176.675 29.478 176.459 28.086 176.459 26.514C176.459 25.242 176.651 24.054 177.035 22.95C177.431 21.846 177.995 20.892 178.727 20.088C179.459 19.272 180.353 18.636 181.409 18.18C182.465 17.712 183.653 17.478 184.973 17.478C186.065 17.478 187.073 17.664 187.997 18.036C188.933 18.396 189.737 18.924 190.409 19.62C191.093 20.304 191.627 21.156 192.011 22.176C192.395 23.184 192.587 24.336 192.587 25.632C192.587 26.136 192.533 26.472 192.425 26.64C192.317 26.808 192.113 26.892 191.813 26.892H179.627C179.663 28.044 179.819 29.046 180.095 29.898C180.383 30.75 180.779 31.464 181.283 32.04C181.787 32.604 182.387 33.03 183.083 33.318C183.779 33.594 184.559 33.732 185.423 33.732C186.227 33.732 186.917 33.642 187.493 33.462C188.081 33.27 188.585 33.066 189.005 32.85C189.425 32.634 189.773 32.436 190.049 32.256C190.337 32.064 190.583 31.968 190.787 31.968C191.051 31.968 191.255 32.07 191.399 32.274L192.299 33.444Z" fill="#66B2D9"/>
<path d="M77.3329 47.1415C77.2939 47.2065 77.2506 47.2563 77.2029 47.291C77.1596 47.3213 77.1054 47.3365 77.0404 47.3365C76.9667 47.3365 76.8801 47.2997 76.7804 47.226C76.6807 47.1523 76.5551 47.0722 76.4034 46.9855C76.2561 46.8945 76.0762 46.8122 75.8639 46.7385C75.6559 46.6648 75.4024 46.628 75.1034 46.628C74.8217 46.628 74.5726 46.667 74.3559 46.745C74.1436 46.8187 73.9637 46.9205 73.8164 47.0505C73.6734 47.1805 73.5651 47.3343 73.4914 47.512C73.4177 47.6853 73.3809 47.8738 73.3809 48.0775C73.3809 48.3375 73.4437 48.5542 73.5694 48.7275C73.6994 48.8965 73.8684 49.0417 74.0764 49.163C74.2887 49.2843 74.5271 49.3905 74.7914 49.4815C75.0601 49.5682 75.3331 49.6592 75.6104 49.7545C75.8921 49.8498 76.1651 49.9582 76.4294 50.0795C76.6981 50.1965 76.9364 50.346 77.1444 50.528C77.3567 50.71 77.5257 50.9332 77.6514 51.1975C77.7814 51.4618 77.8464 51.7868 77.8464 52.1725C77.8464 52.5798 77.7771 52.9633 77.6384 53.323C77.4997 53.6783 77.2961 53.9882 77.0274 54.2525C76.7631 54.5168 76.4359 54.7248 76.0459 54.8765C75.6602 55.0282 75.2204 55.104 74.7264 55.104C74.1197 55.104 73.5694 54.9957 73.0754 54.779C72.5814 54.558 72.1589 54.2612 71.8079 53.8885L72.1719 53.2905C72.2066 53.2428 72.2477 53.2038 72.2954 53.1735C72.3474 53.1388 72.4037 53.1215 72.4644 53.1215C72.5207 53.1215 72.5836 53.1453 72.6529 53.193C72.7266 53.2363 72.8089 53.2927 72.8999 53.362C72.9909 53.4313 73.0949 53.5072 73.2119 53.5895C73.3289 53.6718 73.4611 53.7477 73.6084 53.817C73.7601 53.8863 73.9312 53.9448 74.1219 53.9925C74.3126 54.0358 74.5271 54.0575 74.7654 54.0575C75.0644 54.0575 75.3309 54.0163 75.5649 53.934C75.7989 53.8517 75.9961 53.7368 76.1564 53.5895C76.3211 53.4378 76.4467 53.258 76.5334 53.05C76.6201 52.842 76.6634 52.6102 76.6634 52.3545C76.6634 52.0728 76.5984 51.8432 76.4684 51.6655C76.3427 51.4835 76.1759 51.3318 75.9679 51.2105C75.7599 51.0892 75.5216 50.9873 75.2529 50.905C74.9842 50.8183 74.7112 50.7317 74.4339 50.645C74.1566 50.554 73.8836 50.45 73.6149 50.333C73.3462 50.216 73.1079 50.0643 72.8999 49.878C72.6919 49.6917 72.5229 49.4598 72.3929 49.1825C72.2672 48.9008 72.2044 48.5542 72.2044 48.1425C72.2044 47.8132 72.2672 47.4947 72.3929 47.187C72.5229 46.8793 72.7092 46.6063 72.9519 46.368C73.1989 46.1297 73.5001 45.939 73.8554 45.796C74.2151 45.653 74.6267 45.5815 75.0904 45.5815C75.6104 45.5815 76.0827 45.6638 76.5074 45.8285C76.9364 45.9932 77.3134 46.2315 77.6384 46.5435L77.3329 47.1415ZM80.4357 45.4255V55H79.2787V45.4255H80.4357ZM85.0875 48.3115C85.5685 48.3115 86.0018 48.3917 86.3875 48.552C86.7732 48.7123 87.1025 48.9398 87.3755 49.2345C87.6485 49.5292 87.8565 49.8867 87.9995 50.307C88.1468 50.723 88.2205 51.1888 88.2205 51.7045C88.2205 52.2245 88.1468 52.6925 87.9995 53.1085C87.8565 53.5245 87.6485 53.8798 87.3755 54.1745C87.1025 54.4692 86.7732 54.6967 86.3875 54.857C86.0018 55.013 85.5685 55.091 85.0875 55.091C84.6022 55.091 84.1645 55.013 83.7745 54.857C83.3888 54.6967 83.0595 54.4692 82.7865 54.1745C82.5135 53.8798 82.3033 53.5245 82.156 53.1085C82.013 52.6925 81.9415 52.2245 81.9415 51.7045C81.9415 51.1888 82.013 50.723 82.156 50.307C82.3033 49.8867 82.5135 49.5292 82.7865 49.2345C83.0595 48.9398 83.3888 48.7123 83.7745 48.552C84.1645 48.3917 84.6022 48.3115 85.0875 48.3115ZM85.0875 54.1875C85.7375 54.1875 86.2228 53.9708 86.5435 53.5375C86.8642 53.0998 87.0245 52.491 87.0245 51.711C87.0245 50.9267 86.8642 50.3157 86.5435 49.878C86.2228 49.4403 85.7375 49.2215 85.0875 49.2215C84.7582 49.2215 84.47 49.2778 84.223 49.3905C83.9803 49.5032 83.7767 49.6657 83.612 49.878C83.4517 50.0903 83.3303 50.3525 83.248 50.6645C83.17 50.9722 83.131 51.321 83.131 51.711C83.131 52.491 83.2913 53.0998 83.612 53.5375C83.937 53.9708 84.4288 54.1875 85.0875 54.1875ZM91.9444 51.7825C92.1784 51.7825 92.3842 51.75 92.5619 51.685C92.7396 51.62 92.8891 51.529 93.0104 51.412C93.1317 51.295 93.2227 51.1563 93.2834 50.996C93.3441 50.8313 93.3744 50.6515 93.3744 50.4565C93.3744 50.0535 93.2509 49.7328 93.0039 49.4945C92.7612 49.2562 92.4081 49.137 91.9444 49.137C91.4764 49.137 91.1189 49.2562 90.8719 49.4945C90.6292 49.7328 90.5079 50.0535 90.5079 50.4565C90.5079 50.6515 90.5382 50.8313 90.5989 50.996C90.6639 51.1563 90.7571 51.295 90.8784 51.412C90.9997 51.529 91.1492 51.62 91.3269 51.685C91.5046 51.75 91.7104 51.7825 91.9444 51.7825ZM94.0309 55.3575C94.0309 55.1972 93.9854 55.0672 93.8944 54.9675C93.8034 54.8678 93.6799 54.7898 93.5239 54.7335C93.3722 54.6772 93.1946 54.6382 92.9909 54.6165C92.7872 54.5905 92.5706 54.571 92.3409 54.558C92.1156 54.545 91.8859 54.532 91.6519 54.519C91.4179 54.506 91.1926 54.4843 90.9759 54.454C90.7332 54.5667 90.5339 54.7097 90.3779 54.883C90.2262 55.052 90.1504 55.2513 90.1504 55.481C90.1504 55.6283 90.1872 55.7648 90.2609 55.8905C90.3389 56.0205 90.4559 56.131 90.6119 56.222C90.7679 56.3173 90.9629 56.391 91.1969 56.443C91.4352 56.4993 91.7147 56.5275 92.0354 56.5275C92.3474 56.5275 92.6269 56.4993 92.8739 56.443C93.1209 56.3867 93.3289 56.3065 93.4979 56.2025C93.6712 56.0985 93.8034 55.975 93.8944 55.832C93.9854 55.689 94.0309 55.5308 94.0309 55.3575ZM95.2074 48.6755V49.1045C95.2074 49.2475 95.1164 49.3385 94.9344 49.3775L94.1869 49.475C94.3342 49.761 94.4079 50.0773 94.4079 50.424C94.4079 50.7447 94.3451 51.0372 94.2194 51.3015C94.0981 51.5615 93.9291 51.7847 93.7124 51.971C93.4957 52.1573 93.2357 52.3003 92.9324 52.4C92.6291 52.4997 92.2997 52.5495 91.9444 52.5495C91.6367 52.5495 91.3464 52.5127 91.0734 52.439C90.9347 52.5257 90.8286 52.6188 90.7549 52.7185C90.6812 52.8138 90.6444 52.9113 90.6444 53.011C90.6444 53.167 90.7072 53.2862 90.8329 53.3685C90.9629 53.4465 91.1319 53.5028 91.3399 53.5375C91.5479 53.5722 91.7841 53.5938 92.0484 53.6025C92.3171 53.6112 92.5901 53.6263 92.8674 53.648C93.1491 53.6653 93.4221 53.6978 93.6864 53.7455C93.9551 53.7932 94.1934 53.8712 94.4014 53.9795C94.6094 54.0878 94.7762 54.2373 94.9019 54.428C95.0319 54.6187 95.0969 54.8657 95.0969 55.169C95.0969 55.4507 95.0254 55.7237 94.8824 55.988C94.7437 56.2523 94.5422 56.4863 94.2779 56.69C94.0136 56.898 93.6886 57.0627 93.3029 57.184C92.9216 57.3097 92.4904 57.3725 92.0094 57.3725C91.5284 57.3725 91.1081 57.3248 90.7484 57.2295C90.3887 57.1342 90.0897 57.0063 89.8514 56.846C89.6131 56.6857 89.4332 56.4993 89.3119 56.287C89.1949 56.079 89.1364 55.8602 89.1364 55.6305C89.1364 55.3055 89.2382 55.0303 89.4419 54.805C89.6456 54.5797 89.9251 54.3998 90.2804 54.2655C90.0854 54.1788 89.9294 54.064 89.8124 53.921C89.6997 53.7737 89.6434 53.5765 89.6434 53.3295C89.6434 53.2342 89.6607 53.1367 89.6954 53.037C89.7301 52.933 89.7821 52.8312 89.8514 52.7315C89.9251 52.6275 90.0139 52.53 90.1179 52.439C90.2219 52.348 90.3432 52.2678 90.4819 52.1985C90.1569 52.0165 89.9034 51.776 89.7214 51.477C89.5394 51.1737 89.4484 50.8227 89.4484 50.424C89.4484 50.1033 89.5091 49.813 89.6304 49.553C89.7561 49.2887 89.9294 49.0655 90.1504 48.8835C90.3714 48.6972 90.6336 48.5542 90.9369 48.4545C91.2446 48.3548 91.5804 48.305 91.9444 48.305C92.2304 48.305 92.4969 48.3375 92.7439 48.4025C92.9909 48.4632 93.2162 48.5542 93.4199 48.6755H95.2074ZM99.9723 52.036C99.4393 52.0533 98.9843 52.0967 98.6073 52.166C98.2346 52.231 97.9291 52.3177 97.6908 52.426C97.4568 52.5343 97.2856 52.6622 97.1773 52.8095C97.0733 52.9568 97.0213 53.1215 97.0213 53.3035C97.0213 53.4768 97.0495 53.6263 97.1058 53.752C97.1621 53.8777 97.238 53.9817 97.3333 54.064C97.433 54.142 97.5478 54.2005 97.6778 54.2395C97.8121 54.2742 97.9551 54.2915 98.1068 54.2915C98.3105 54.2915 98.4968 54.272 98.6658 54.233C98.8348 54.1897 98.993 54.129 99.1403 54.051C99.292 53.973 99.435 53.8798 99.5693 53.7715C99.708 53.6632 99.8423 53.5397 99.9723 53.401V52.036ZM96.2348 49.345C96.5988 48.994 96.991 48.7318 97.4113 48.5585C97.8316 48.3852 98.2975 48.2985 98.8088 48.2985C99.1771 48.2985 99.5043 48.3592 99.7903 48.4805C100.076 48.6018 100.317 48.7708 100.512 48.9875C100.707 49.2042 100.854 49.4663 100.954 49.774C101.053 50.0817 101.103 50.4197 101.103 50.788V55H100.59C100.477 55 100.39 54.9827 100.33 54.948C100.269 54.909 100.221 54.8353 100.187 54.727L100.057 54.103C99.8835 54.2633 99.7145 54.4063 99.5498 54.532C99.3851 54.6533 99.2118 54.7573 99.0298 54.844C98.8478 54.9263 98.6528 54.9892 98.4448 55.0325C98.2411 55.0802 98.0136 55.104 97.7623 55.104C97.5066 55.104 97.2661 55.0693 97.0408 55C96.8155 54.9263 96.6183 54.818 96.4493 54.675C96.2846 54.532 96.1525 54.3522 96.0528 54.1355C95.9575 53.9145 95.9098 53.6545 95.9098 53.3555C95.9098 53.0955 95.9813 52.8463 96.1243 52.608C96.2673 52.3653 96.4991 52.1508 96.8198 51.9645C97.1405 51.7782 97.5586 51.6265 98.0743 51.5095C98.59 51.3882 99.2226 51.3188 99.9723 51.3015V50.788C99.9723 50.2767 99.8618 49.891 99.6408 49.631C99.4198 49.3667 99.097 49.2345 98.6723 49.2345C98.3863 49.2345 98.1458 49.2713 97.9508 49.345C97.7601 49.4143 97.5933 49.4945 97.4503 49.5855C97.3116 49.6722 97.1903 49.7523 97.0863 49.826C96.9866 49.8953 96.887 49.93 96.7873 49.93C96.7093 49.93 96.6421 49.9105 96.5858 49.8715C96.5295 49.8282 96.4818 49.7762 96.4428 49.7155L96.2348 49.345ZM103.958 49.371C104.101 49.2107 104.252 49.0655 104.413 48.9355C104.573 48.8055 104.742 48.695 104.92 48.604C105.102 48.5087 105.292 48.4372 105.492 48.3895C105.695 48.3375 105.914 48.3115 106.148 48.3115C106.508 48.3115 106.824 48.3722 107.097 48.4935C107.375 48.6105 107.604 48.7795 107.786 49.0005C107.973 49.2172 108.113 49.4793 108.209 49.787C108.304 50.0947 108.352 50.4348 108.352 50.8075V55H107.188V50.8075C107.188 50.3092 107.073 49.9235 106.844 49.6505C106.618 49.3732 106.274 49.2345 105.81 49.2345C105.468 49.2345 105.147 49.3168 104.848 49.4815C104.554 49.6462 104.281 49.8693 104.029 50.151V55H102.866V48.4155H103.561C103.726 48.4155 103.828 48.4957 103.867 48.656L103.958 49.371ZM120.253 53.076C120.322 53.076 120.383 53.1042 120.435 53.1605L120.935 53.7C120.554 54.142 120.09 54.4865 119.544 54.7335C119.003 54.9805 118.346 55.104 117.575 55.104C116.908 55.104 116.301 54.9892 115.755 54.7595C115.209 54.5255 114.743 54.2005 114.357 53.7845C113.972 53.3642 113.673 52.8615 113.46 52.2765C113.248 51.6915 113.142 51.048 113.142 50.346C113.142 49.644 113.252 49.0005 113.473 48.4155C113.694 47.8305 114.004 47.3278 114.403 46.9075C114.806 46.4872 115.287 46.1622 115.846 45.9325C116.405 45.6985 117.022 45.5815 117.698 45.5815C118.361 45.5815 118.946 45.6877 119.453 45.9C119.96 46.1123 120.407 46.4005 120.792 46.7645L120.376 47.343C120.35 47.3863 120.316 47.4232 120.272 47.4535C120.233 47.4795 120.179 47.4925 120.11 47.4925C120.032 47.4925 119.937 47.4513 119.824 47.369C119.711 47.2823 119.564 47.187 119.382 47.083C119.2 46.979 118.972 46.8858 118.699 46.8035C118.426 46.7168 118.091 46.6735 117.692 46.6735C117.211 46.6735 116.771 46.758 116.372 46.927C115.974 47.0917 115.629 47.3322 115.339 47.6485C115.053 47.9648 114.83 48.3505 114.669 48.8055C114.509 49.2605 114.429 49.774 114.429 50.346C114.429 50.9267 114.511 51.4445 114.676 51.8995C114.845 52.3545 115.072 52.7402 115.358 53.0565C115.649 53.3685 115.989 53.6068 116.379 53.7715C116.773 53.9362 117.198 54.0185 117.653 54.0185C117.93 54.0185 118.179 54.0033 118.4 53.973C118.626 53.9383 118.832 53.8863 119.018 53.817C119.209 53.7477 119.384 53.661 119.544 53.557C119.709 53.4487 119.872 53.3208 120.032 53.1735C120.106 53.1085 120.179 53.076 120.253 53.076ZM124.773 48.3115C125.254 48.3115 125.687 48.3917 126.073 48.552C126.459 48.7123 126.788 48.9398 127.061 49.2345C127.334 49.5292 127.542 49.8867 127.685 50.307C127.832 50.723 127.906 51.1888 127.906 51.7045C127.906 52.2245 127.832 52.6925 127.685 53.1085C127.542 53.5245 127.334 53.8798 127.061 54.1745C126.788 54.4692 126.459 54.6967 126.073 54.857C125.687 55.013 125.254 55.091 124.773 55.091C124.288 55.091 123.85 55.013 123.46 54.857C123.074 54.6967 122.745 54.4692 122.472 54.1745C122.199 53.8798 121.989 53.5245 121.842 53.1085C121.699 52.6925 121.627 52.2245 121.627 51.7045C121.627 51.1888 121.699 50.723 121.842 50.307C121.989 49.8867 122.199 49.5292 122.472 49.2345C122.745 48.9398 123.074 48.7123 123.46 48.552C123.85 48.3917 124.288 48.3115 124.773 48.3115ZM124.773 54.1875C125.423 54.1875 125.908 53.9708 126.229 53.5375C126.55 53.0998 126.71 52.491 126.71 51.711C126.71 50.9267 126.55 50.3157 126.229 49.878C125.908 49.4403 125.423 49.2215 124.773 49.2215C124.444 49.2215 124.156 49.2778 123.909 49.3905C123.666 49.5032 123.462 49.6657 123.298 49.878C123.137 50.0903 123.016 50.3525 122.934 50.6645C122.856 50.9722 122.817 51.321 122.817 51.711C122.817 52.491 122.977 53.0998 123.298 53.5375C123.623 53.9708 124.114 54.1875 124.773 54.1875ZM129.374 55V48.4155H130.069C130.234 48.4155 130.336 48.4957 130.375 48.656L130.459 49.332C130.702 49.033 130.975 48.7882 131.278 48.5975C131.581 48.4068 131.932 48.3115 132.331 48.3115C132.773 48.3115 133.131 48.435 133.404 48.682C133.681 48.929 133.88 49.2627 134.002 49.683C134.097 49.4447 134.218 49.2388 134.366 49.0655C134.517 48.8922 134.686 48.7492 134.873 48.6365C135.059 48.5238 135.256 48.4415 135.464 48.3895C135.676 48.3375 135.891 48.3115 136.108 48.3115C136.454 48.3115 136.762 48.3678 137.031 48.4805C137.304 48.5888 137.533 48.7492 137.72 48.9615C137.91 49.1738 138.055 49.436 138.155 49.748C138.255 50.0557 138.305 50.4088 138.305 50.8075V55H137.141V50.8075C137.141 50.2918 137.028 49.9018 136.803 49.6375C136.578 49.3688 136.253 49.2345 135.828 49.2345C135.637 49.2345 135.455 49.2692 135.282 49.3385C135.113 49.4035 134.964 49.501 134.834 49.631C134.704 49.761 134.6 49.9257 134.522 50.125C134.448 50.32 134.411 50.5475 134.411 50.8075V55H133.248V50.8075C133.248 50.2788 133.141 49.8845 132.929 49.6245C132.717 49.3645 132.407 49.2345 132 49.2345C131.714 49.2345 131.449 49.3125 131.207 49.4685C130.964 49.6202 130.741 49.8282 130.537 50.0925V55H129.374ZM141.226 53.414C141.439 53.7 141.671 53.9015 141.922 54.0185C142.173 54.1355 142.455 54.194 142.767 54.194C143.382 54.194 143.855 53.9752 144.184 53.5375C144.513 53.0998 144.678 52.4758 144.678 51.6655C144.678 51.2365 144.639 50.8682 144.561 50.5605C144.487 50.2528 144.379 50.0015 144.236 49.8065C144.093 49.6072 143.917 49.462 143.709 49.371C143.501 49.28 143.265 49.2345 143.001 49.2345C142.624 49.2345 142.292 49.3212 142.006 49.4945C141.725 49.6678 141.465 49.9127 141.226 50.229V53.414ZM141.168 49.436C141.445 49.0937 141.766 48.8185 142.13 48.6105C142.494 48.4025 142.91 48.2985 143.378 48.2985C143.759 48.2985 144.104 48.3722 144.411 48.5195C144.719 48.6625 144.981 48.877 145.198 49.163C145.415 49.4447 145.581 49.7957 145.698 50.216C145.815 50.6363 145.874 51.1195 145.874 51.6655C145.874 52.1508 145.809 52.6037 145.679 53.024C145.549 53.44 145.36 53.8018 145.113 54.1095C144.871 54.4128 144.572 54.6533 144.216 54.831C143.865 55.0043 143.469 55.091 143.027 55.091C142.624 55.091 142.277 55.0238 141.987 54.8895C141.701 54.7508 141.447 54.5602 141.226 54.3175V57.2295H140.063V48.4155H140.758C140.923 48.4155 141.025 48.4957 141.064 48.656L141.168 49.436ZM150.919 52.036C150.386 52.0533 149.931 52.0967 149.554 52.166C149.181 52.231 148.875 52.3177 148.637 52.426C148.403 52.5343 148.232 52.6622 148.124 52.8095C148.02 52.9568 147.968 53.1215 147.968 53.3035C147.968 53.4768 147.996 53.6263 148.052 53.752C148.108 53.8777 148.184 53.9817 148.28 54.064C148.379 54.142 148.494 54.2005 148.624 54.2395C148.758 54.2742 148.901 54.2915 149.053 54.2915C149.257 54.2915 149.443 54.272 149.612 54.233C149.781 54.1897 149.939 54.129 150.087 54.051C150.238 53.973 150.381 53.8798 150.516 53.7715C150.654 53.6632 150.789 53.5397 150.919 53.401V52.036ZM147.181 49.345C147.545 48.994 147.937 48.7318 148.358 48.5585C148.778 48.3852 149.244 48.2985 149.755 48.2985C150.123 48.2985 150.451 48.3592 150.737 48.4805C151.023 48.6018 151.263 48.7708 151.458 48.9875C151.653 49.2042 151.8 49.4663 151.9 49.774C152 50.0817 152.05 50.4197 152.05 50.788V55H151.536C151.423 55 151.337 54.9827 151.276 54.948C151.215 54.909 151.168 54.8353 151.133 54.727L151.003 54.103C150.83 54.2633 150.661 54.4063 150.496 54.532C150.331 54.6533 150.158 54.7573 149.976 54.844C149.794 54.9263 149.599 54.9892 149.391 55.0325C149.187 55.0802 148.96 55.104 148.709 55.104C148.453 55.104 148.212 55.0693 147.987 55C147.762 54.9263 147.565 54.818 147.396 54.675C147.231 54.532 147.099 54.3522 146.999 54.1355C146.904 53.9145 146.856 53.6545 146.856 53.3555C146.856 53.0955 146.928 52.8463 147.071 52.608C147.214 52.3653 147.445 52.1508 147.766 51.9645C148.087 51.7782 148.505 51.6265 149.021 51.5095C149.536 51.3882 150.169 51.3188 150.919 51.3015V50.788C150.919 50.2767 150.808 49.891 150.587 49.631C150.366 49.3667 150.043 49.2345 149.619 49.2345C149.333 49.2345 149.092 49.2713 148.897 49.345C148.706 49.4143 148.54 49.4945 148.397 49.5855C148.258 49.6722 148.137 49.7523 148.033 49.826C147.933 49.8953 147.833 49.93 147.734 49.93C147.656 49.93 147.588 49.9105 147.532 49.8715C147.476 49.8282 147.428 49.7762 147.389 49.7155L147.181 49.345ZM154.904 49.371C155.047 49.2107 155.199 49.0655 155.359 48.9355C155.519 48.8055 155.688 48.695 155.866 48.604C156.048 48.5087 156.239 48.4372 156.438 48.3895C156.642 48.3375 156.861 48.3115 157.095 48.3115C157.454 48.3115 157.771 48.3722 158.044 48.4935C158.321 48.6105 158.551 48.7795 158.733 49.0005C158.919 49.2172 159.06 49.4793 159.155 49.787C159.25 50.0947 159.298 50.4348 159.298 50.8075V55H158.135V50.8075C158.135 50.3092 158.02 49.9235 157.79 49.6505C157.565 49.3732 157.22 49.2345 156.757 49.2345C156.414 49.2345 156.094 49.3168 155.795 49.4815C155.5 49.6462 155.227 49.8693 154.976 50.151V55H153.812V48.4155H154.508C154.672 48.4155 154.774 48.4957 154.813 48.656L154.904 49.371ZM166.577 48.4155L162.904 56.9435C162.865 57.0302 162.816 57.0995 162.755 57.1515C162.699 57.2035 162.61 57.2295 162.488 57.2295H161.63L162.833 54.6165L160.116 48.4155H161.117C161.217 48.4155 161.295 48.4415 161.351 48.4935C161.412 48.5412 161.453 48.5953 161.474 48.656L163.236 52.803C163.305 52.985 163.364 53.1757 163.411 53.375C163.472 53.1713 163.537 52.9785 163.606 52.7965L165.316 48.656C165.342 48.5867 165.385 48.5303 165.446 48.487C165.511 48.4393 165.582 48.4155 165.66 48.4155H166.577ZM178.427 45.6855V55H177.166V50.762H172.142V55H170.881V45.6855H172.142V49.839H177.166V45.6855H178.427ZM184.74 50.9895C184.74 50.7208 184.701 50.476 184.623 50.255C184.549 50.0297 184.438 49.8368 184.291 49.6765C184.148 49.5118 183.973 49.3862 183.765 49.2995C183.557 49.2085 183.32 49.163 183.056 49.163C182.501 49.163 182.062 49.3255 181.737 49.6505C181.416 49.9712 181.217 50.4175 181.139 50.9895H184.74ZM185.676 54.077C185.533 54.2503 185.361 54.402 185.162 54.532C184.963 54.6577 184.748 54.7617 184.519 54.844C184.293 54.9263 184.059 54.987 183.817 55.026C183.574 55.0693 183.333 55.091 183.095 55.091C182.64 55.091 182.22 55.0152 181.834 54.8635C181.453 54.7075 181.121 54.4822 180.84 54.1875C180.562 53.8885 180.346 53.5202 180.19 53.0825C180.034 52.6448 179.956 52.1422 179.956 51.5745C179.956 51.1152 180.025 50.6862 180.164 50.2875C180.307 49.8888 180.51 49.5443 180.775 49.254C181.039 48.9593 181.362 48.7297 181.743 48.565C182.124 48.396 182.553 48.3115 183.03 48.3115C183.424 48.3115 183.788 48.3787 184.122 48.513C184.46 48.643 184.75 48.8337 184.993 49.085C185.24 49.332 185.433 49.6397 185.572 50.008C185.71 50.372 185.78 50.788 185.78 51.256C185.78 51.438 185.76 51.5593 185.721 51.62C185.682 51.6807 185.608 51.711 185.5 51.711H181.1C181.113 52.127 181.169 52.4888 181.269 52.7965C181.373 53.1042 181.516 53.362 181.698 53.57C181.88 53.7737 182.096 53.9275 182.348 54.0315C182.599 54.1312 182.881 54.181 183.193 54.181C183.483 54.181 183.732 54.1485 183.94 54.0835C184.152 54.0142 184.334 53.9405 184.486 53.8625C184.638 53.7845 184.763 53.713 184.863 53.648C184.967 53.5787 185.056 53.544 185.13 53.544C185.225 53.544 185.299 53.5808 185.351 53.6545L185.676 54.077ZM188.299 49.735C188.507 49.2843 188.763 48.9333 189.066 48.682C189.37 48.4263 189.74 48.2985 190.178 48.2985C190.316 48.2985 190.449 48.3137 190.574 48.344C190.704 48.3743 190.819 48.422 190.919 48.487L190.834 49.3515C190.808 49.4598 190.743 49.514 190.639 49.514C190.579 49.514 190.49 49.501 190.373 49.475C190.256 49.449 190.124 49.436 189.976 49.436C189.768 49.436 189.582 49.4663 189.417 49.527C189.257 49.5877 189.112 49.6787 188.982 49.8C188.856 49.917 188.741 50.0643 188.637 50.242C188.538 50.4153 188.447 50.6147 188.364 50.84V55H187.201V48.4155H187.864C187.989 48.4155 188.076 48.4393 188.124 48.487C188.171 48.5347 188.204 48.617 188.221 48.734L188.299 49.735ZM196.076 50.9895C196.076 50.7208 196.037 50.476 195.959 50.255C195.886 50.0297 195.775 49.8368 195.628 49.6765C195.485 49.5118 195.309 49.3862 195.101 49.2995C194.893 49.2085 194.657 49.163 194.393 49.163C193.838 49.163 193.398 49.3255 193.073 49.6505C192.753 49.9712 192.553 50.4175 192.475 50.9895H196.076ZM197.012 54.077C196.869 54.2503 196.698 54.402 196.499 54.532C196.3 54.6577 196.085 54.7617 195.855 54.844C195.63 54.9263 195.396 54.987 195.153 55.026C194.911 55.0693 194.67 55.091 194.432 55.091C193.977 55.091 193.557 55.0152 193.171 54.8635C192.79 54.7075 192.458 54.4822 192.176 54.1875C191.899 53.8885 191.682 53.5202 191.526 53.0825C191.37 52.6448 191.292 52.1422 191.292 51.5745C191.292 51.1152 191.362 50.6862 191.5 50.2875C191.643 49.8888 191.847 49.5443 192.111 49.254C192.376 48.9593 192.699 48.7297 193.08 48.565C193.461 48.396 193.89 48.3115 194.367 48.3115C194.761 48.3115 195.125 48.3787 195.459 48.513C195.797 48.643 196.087 48.8337 196.33 49.085C196.577 49.332 196.77 49.6397 196.908 50.008C197.047 50.372 197.116 50.788 197.116 51.256C197.116 51.438 197.097 51.5593 197.058 51.62C197.019 51.6807 196.945 51.711 196.837 51.711H192.436C192.449 52.127 192.506 52.4888 192.605 52.7965C192.709 53.1042 192.852 53.362 193.034 53.57C193.216 53.7737 193.433 53.9275 193.684 54.0315C193.936 54.1312 194.217 54.181 194.529 54.181C194.82 54.181 195.069 54.1485 195.277 54.0835C195.489 54.0142 195.671 53.9405 195.823 53.8625C195.975 53.7845 196.1 53.713 196.2 53.648C196.304 53.5787 196.393 53.544 196.466 53.544C196.562 53.544 196.635 53.5808 196.687 53.6545L197.012 54.077Z" fill="#3B9DCE"/>
</svg>
