<svg width="1003" height="855" viewBox="0 0 1003 855" fill="none" xmlns="http://www.w3.org/2000/svg">
<path d="M264.711 -37.9415C164.979 45.6107 149.524 203.602 81.9794 320.158C58.4665 360.715 28.0847 397.013 12.2333 442.006C-24.1588 544.991 25.9272 661.811 92.9653 743.606C124.932 782.626 162.271 818.375 207.448 834.822C242.189 847.47 279.439 847.997 316.008 848.326L956.668 854.914C1028.2 855.638 1107.67 853.025 1159.1 797.822C1194.55 759.811 1208.95 704.3 1221.17 651.314C1236.18 586.207 1249.79 515.501 1226.43 453.49C1199.74 382.542 1132.27 342.336 1090.35 281.116C1022.32 181.929 1023.88 31.9086 937.25 -47.2738C896.807 -84.23 843.441 -98.7227 791.439 -105.969C693.403 -119.649 600.54 -93.8259 504.265 -97.4271C421.97 -100.501 332.982 -95.1434 264.711 -37.9415Z" fill="#E7F3F9"/>
</svg>
