<svg width="94" height="94" viewBox="0 0 94 94" fill="none" xmlns="http://www.w3.org/2000/svg">
<g filter="url(#filter0_d)">
<circle cx="39" cy="35" r="32" fill="#E7F3F9"/>
</g>
<path fill-rule="evenodd" clip-rule="evenodd" d="M37.7256 42.6406H31.3564V28.6289H32.6304C32.6321 29.3041 32.901 29.9512 33.3783 30.4288C33.8556 30.9064 34.5025 31.1757 35.1777 31.1777H40.273C40.9482 31.1757 41.5953 30.9065 42.0727 30.4289C42.5501 29.9513 42.819 29.3042 42.8208 28.6289H44.0942V33.7246C44.0969 34.0608 44.2323 34.3822 44.4709 34.6189C44.7096 34.8557 45.0321 34.9885 45.3682 34.9885C45.7043 34.9885 46.0269 34.8557 46.2655 34.6189C46.5041 34.3822 46.6395 34.0608 46.6422 33.7246V28.6289C46.64 27.9539 46.3708 27.3072 45.8934 26.83C45.416 26.3528 44.7692 26.0839 44.0942 26.082H42.4766C42.2536 25.6949 41.9324 25.3734 41.5456 25.1498C41.1587 24.9262 40.7198 24.8086 40.273 24.8086H35.1777C34.7309 24.8086 34.292 24.9263 33.9052 25.1499C33.5184 25.3734 33.1972 25.6949 32.9741 26.082H31.3564C30.6815 26.0839 30.0347 26.3529 29.5573 26.8301C29.0799 27.3072 28.8108 27.9539 28.8086 28.6289V42.6406C28.8104 43.3159 29.0793 43.963 29.5567 44.4406C30.0341 44.9182 30.6812 45.1874 31.3564 45.1894H37.7256C38.063 45.1885 38.3862 45.0538 38.6245 44.8149C38.8627 44.576 38.9965 44.2524 38.9965 43.915C38.9965 43.5776 38.8627 43.254 38.6245 43.0152C38.3862 42.7763 38.063 42.6416 37.7256 42.6406ZM35.1777 27.3555H40.273V28.6289H35.1777V27.3555ZM40.273 33.7246H35.1777C35.0101 33.7242 34.8441 33.7568 34.6891 33.8206C34.5342 33.8844 34.3933 33.9781 34.2746 34.0965C34.156 34.2148 34.0618 34.3554 33.9976 34.5102C33.9333 34.665 33.9003 34.8309 33.9003 34.9985C33.9003 35.1661 33.9333 35.3321 33.9976 35.4868C34.0618 35.6416 34.156 35.7822 34.2746 35.9006C34.3933 36.0189 34.5342 36.1127 34.6891 36.1765C34.8441 36.2403 35.0101 36.2729 35.1777 36.2724H40.273C40.4405 36.2729 40.6066 36.2403 40.7615 36.1765C40.9165 36.1127 41.0574 36.0189 41.176 35.9006C41.2947 35.7822 41.3889 35.6416 41.4531 35.4868C41.5174 35.3321 41.5504 35.1661 41.5504 34.9985C41.5504 34.8309 41.5174 34.665 41.4531 34.5102C41.3889 34.3554 41.2947 34.2148 41.176 34.0965C41.0574 33.9781 40.9165 33.8844 40.7615 33.8206C40.6066 33.7568 40.4405 33.7242 40.273 33.7246ZM37.7256 37.5469H35.1777C34.84 37.5469 34.5161 37.6811 34.2773 37.9199C34.0385 38.1587 33.9044 38.4826 33.9044 38.8203C33.9044 39.158 34.0385 39.4819 34.2773 39.7207C34.5161 39.9595 34.84 40.0937 35.1777 40.0937H37.7256C37.8929 40.0937 38.0585 40.0608 38.2129 39.9968C38.3674 39.9328 38.5078 39.839 38.6261 39.7207C38.7443 39.6025 38.8381 39.4621 38.9021 39.3076C38.9661 39.1531 38.999 38.9875 38.999 38.8203C38.999 38.6531 38.9661 38.4875 38.9021 38.333C38.8381 38.1785 38.7443 38.0382 38.6261 37.9199C38.5078 37.8017 38.3674 37.7079 38.2129 37.6439C38.0585 37.5799 37.8929 37.5469 37.7256 37.5469ZM47.916 40.0937H46.6422V38.8203C46.6395 38.4842 46.5041 38.1627 46.2655 37.926C46.0268 37.6893 45.7043 37.5564 45.3682 37.5564C45.0321 37.5564 44.7095 37.6893 44.4709 37.926C44.2323 38.1627 44.0969 38.4842 44.0942 38.8203V40.0937H42.8208C42.6533 40.0932 42.4873 40.1258 42.3324 40.1896C42.1775 40.2534 42.0366 40.3471 41.918 40.4654C41.7994 40.5837 41.7053 40.7243 41.641 40.879C41.5768 41.0337 41.5438 41.1996 41.5438 41.3672C41.5438 41.5347 41.5768 41.7006 41.641 41.8553C41.7053 42.0101 41.7994 42.1506 41.918 42.2689C42.0366 42.3872 42.1775 42.4809 42.3324 42.5447C42.4873 42.6085 42.6533 42.6411 42.8208 42.6406H44.0942V43.915C44.0929 44.0832 44.1249 44.2499 44.1883 44.4057C44.2517 44.5614 44.3453 44.703 44.4638 44.8224C44.5822 44.9418 44.7231 45.0365 44.8783 45.1012C45.0336 45.1658 45.2 45.1991 45.3682 45.1991C45.5363 45.1991 45.7028 45.1658 45.8581 45.1012C46.0133 45.0365 46.1542 44.9418 46.2726 44.8224C46.391 44.703 46.4847 44.5614 46.5481 44.4057C46.6115 44.2499 46.6435 44.0832 46.6422 43.915V42.6406H47.916C48.2531 42.6397 48.5761 42.5051 48.8142 42.2664C49.0522 42.0277 49.1859 41.7043 49.1859 41.3672C49.1859 41.03 49.0522 40.7067 48.8142 40.468C48.5761 40.2292 48.2531 40.0946 47.916 40.0937Z" fill="#66B2D9"/>
<defs>
<filter id="filter0_d" x="0" y="0" width="94" height="94" filterUnits="userSpaceOnUse" color-interpolation-filters="sRGB">
<feFlood flood-opacity="0" result="BackgroundImageFix"/>
<feColorMatrix in="SourceAlpha" type="matrix" values="0 0 0 0 0 0 0 0 0 0 0 0 0 0 0 0 0 0 127 0" result="hardAlpha"/>
<feMorphology radius="7" operator="erode" in="SourceAlpha" result="effect1_dropShadow"/>
<feOffset dx="8" dy="12"/>
<feGaussianBlur stdDeviation="11"/>
<feColorMatrix type="matrix" values="0 0 0 0 0 0 0 0 0 0 0 0 0 0 0 0 0 0 0.1 0"/>
<feBlend mode="normal" in2="BackgroundImageFix" result="effect1_dropShadow"/>
<feBlend mode="normal" in="SourceGraphic" in2="effect1_dropShadow" result="shape"/>
</filter>
</defs>
</svg>
