<svg width="1764" height="1259" viewBox="0 0 1764 1259" fill="none" xmlns="http://www.w3.org/2000/svg">
<path d="M303.858 637.668C304.143 637.195 303.99 636.581 303.517 636.296L295.807 631.653C295.333 631.368 294.719 631.521 294.434 631.994C294.149 632.467 294.302 633.082 294.775 633.367L301.628 637.493L297.502 644.347C297.217 644.82 297.37 645.434 297.843 645.719C298.316 646.004 298.93 645.852 299.215 645.378L303.858 637.668ZM184.499 925.652L183.904 926.456L184.499 925.652ZM1751 1168.65L1751.91 1169.06L1751 1168.65ZM815.559 1092.31C815.371 1092.83 815.64 1093.41 816.16 1093.59L824.623 1096.65C825.143 1096.84 825.716 1096.57 825.904 1096.05C826.092 1095.53 825.823 1094.96 825.303 1094.77L817.78 1092.05L820.5 1084.53C820.688 1084.01 820.419 1083.44 819.899 1083.25C819.38 1083.06 818.807 1083.33 818.619 1083.85L815.559 1092.31ZM798 836.152L798.258 837.119L798 836.152ZM302.76 636.182C301.089 636.597 299.426 637.029 297.772 637.477L298.296 639.407C299.936 638.963 301.585 638.534 303.242 638.123L302.76 636.182ZM287.943 640.367C284.665 641.406 281.425 642.511 278.223 643.678L278.908 645.557C282.083 644.4 285.297 643.304 288.548 642.273L287.943 640.367ZM268.654 647.4C265.481 648.712 262.349 650.086 259.262 651.52L260.104 653.334C263.166 651.912 266.271 650.549 269.418 649.248L268.654 647.4ZM250.061 656.029C247.006 657.608 243.997 659.245 241.037 660.938L242.029 662.674C244.965 660.995 247.949 659.372 250.979 657.806L250.061 656.029ZM232.235 666.222C229.329 668.051 226.474 669.935 223.672 671.87L224.809 673.516C227.587 671.597 230.418 669.729 233.3 667.914L232.235 666.222ZM215.364 677.875C212.622 679.947 209.936 682.07 207.309 684.239L208.582 685.781C211.187 683.63 213.851 681.525 216.57 679.47L215.364 677.875ZM199.533 690.948C196.98 693.249 194.489 695.596 192.062 697.985L193.464 699.41C195.871 697.042 198.34 694.715 200.872 692.433L199.533 690.948ZM184.912 705.34C182.573 707.856 180.303 710.412 178.103 713.004L179.628 714.298C181.808 711.729 184.059 709.196 186.377 706.702L184.912 705.34ZM171.638 720.988C169.533 723.715 167.505 726.475 165.554 729.267L167.193 730.412C169.126 727.647 171.136 724.912 173.221 722.21L171.638 720.988ZM159.877 737.825C158.044 740.741 156.295 743.684 154.632 746.652L156.377 747.629C158.023 744.692 159.755 741.777 161.57 738.889L159.877 737.825ZM149.85 755.735C148.326 758.823 146.895 761.933 145.56 765.059L147.399 765.845C148.72 762.753 150.135 759.676 151.643 756.62L149.85 755.735ZM141.794 774.617C140.621 777.864 139.553 781.124 138.591 784.392L140.509 784.957C141.46 781.728 142.516 778.506 143.675 775.297L141.794 774.617ZM135.996 794.345C135.233 797.71 134.584 801.079 134.054 804.446L136.029 804.757C136.553 801.435 137.193 798.11 137.947 794.787L135.996 794.345ZM132.809 814.658C132.513 818.093 132.345 821.521 132.306 824.935L134.306 824.958C134.344 821.594 134.51 818.216 134.801 814.829L132.809 814.658ZM132.587 835.224C132.817 838.657 133.183 842.071 133.69 845.459L135.668 845.163C135.169 841.83 134.809 838.47 134.583 835.09L132.587 835.224ZM135.641 855.57C136.434 858.906 137.37 862.21 138.454 865.477L140.352 864.847C139.287 861.636 138.366 858.388 137.587 855.107L135.641 855.57ZM142.125 875.101C143.482 878.234 144.983 881.324 146.633 884.366L148.391 883.412C146.77 880.422 145.294 877.385 143.961 874.307L142.125 875.101ZM151.938 893.202C153.813 896.038 155.828 898.824 157.986 901.555L159.555 900.315C157.432 897.628 155.45 894.888 153.607 892.099L151.938 893.202ZM164.692 909.364C166.99 911.831 169.416 914.246 171.974 916.603L173.33 915.132C170.809 912.809 168.418 910.431 166.156 908.001L164.692 909.364ZM179.772 923.28C181.119 924.353 182.496 925.411 183.904 926.456L185.095 924.849C183.705 923.819 182.347 922.774 181.018 921.716L179.772 923.28ZM183.904 926.456C185.299 927.49 186.688 928.507 188.07 929.505L189.241 927.884C187.865 926.89 186.483 925.879 185.095 924.849L183.904 926.456ZM196.298 935.285C199.154 937.232 201.986 939.103 204.797 940.897L205.873 939.212C203.08 937.428 200.265 935.569 197.426 933.632L196.298 935.285ZM213.37 946.172C216.324 947.921 219.258 949.585 222.176 951.167L223.129 949.408C220.234 947.839 217.322 946.187 214.388 944.451L213.37 946.172ZM231.205 955.822C234.275 957.324 237.331 958.734 240.377 960.055L241.173 958.22C238.156 956.911 235.127 955.514 232.083 954.026L231.205 955.822ZM249.737 963.846C252.945 965.053 256.146 966.162 259.346 967.176L259.95 965.27C256.785 964.266 253.617 963.169 250.441 961.974L249.737 963.846ZM269.088 969.973C272.375 970.818 275.664 971.566 278.962 972.219L279.351 970.257C276.09 969.611 272.837 968.872 269.587 968.036L269.088 969.973ZM288.958 973.905C292.301 974.373 295.657 974.747 299.033 975.031L299.201 973.039C295.861 972.758 292.541 972.387 289.235 971.925L288.958 973.905ZM309.139 975.613C312.489 975.718 315.862 975.74 319.265 975.68L319.23 973.681C315.859 973.74 312.518 973.718 309.202 973.614L309.139 975.613ZM329.408 975.271C332.736 975.062 336.095 974.782 339.49 974.431L339.285 972.442C335.915 972.79 332.583 973.068 329.283 973.274L329.408 975.271ZM349.504 973.212C352.802 972.752 356.137 972.23 359.512 971.65L359.174 969.679C355.818 970.256 352.504 970.774 349.227 971.231L349.504 973.212ZM369.492 969.789C372.727 969.141 376.001 968.443 379.318 967.697L378.879 965.745C375.577 966.488 372.318 967.183 369.099 967.828L369.492 969.789ZM389.178 965.369C392.403 964.574 395.668 963.737 398.977 962.86L398.465 960.927C395.166 961.801 391.912 962.635 388.699 963.427L389.178 965.369ZM408.675 960.212C411.901 959.307 415.168 958.366 418.479 957.392L417.915 955.473C414.611 956.445 411.352 957.384 408.135 958.287L408.675 960.212ZM428.047 954.522C431.24 953.547 434.473 952.543 437.75 951.511L437.149 949.604C433.878 950.634 430.65 951.636 427.463 952.609L428.047 954.522ZM447.31 948.463C450.481 947.441 453.692 946.394 456.944 945.324L456.32 943.424C453.07 944.493 449.863 945.538 446.696 946.56L447.31 948.463ZM466.485 942.162C469.647 941.106 472.847 940.03 476.088 938.936L475.448 937.041C472.209 938.135 469.011 939.21 465.852 940.265L466.485 942.162ZM485.596 935.709C488.762 934.63 491.966 933.535 495.208 932.423L494.56 930.531C491.318 931.643 488.116 932.738 484.951 933.816L485.596 935.709ZM504.671 929.172C507.854 928.077 511.075 926.967 514.334 925.843L513.682 923.952C510.423 925.076 507.203 926.186 504.02 927.281L504.671 929.172ZM523.739 922.599C526.909 921.506 530.114 920.4 533.356 919.283L532.705 917.392C529.462 918.509 526.257 919.615 523.087 920.708L523.739 922.599ZM542.832 916.022C545.978 914.941 549.157 913.85 552.37 912.749L551.722 910.857C548.508 911.958 545.328 913.049 542.182 914.131L542.832 916.022ZM561.985 909.463C565.103 908.4 568.253 907.329 571.434 906.25L570.792 904.356C567.609 905.435 564.459 906.507 561.34 907.57L561.985 909.463ZM581.078 902.989C584.216 901.932 587.385 900.867 590.585 899.796L589.95 897.899C586.749 898.971 583.578 900.036 580.439 901.094L581.078 902.989ZM600.12 896.616C603.329 895.549 606.57 894.477 609.842 893.398L609.216 891.499C605.942 892.578 602.7 893.651 599.49 894.718L600.12 896.616ZM619.281 890.3C622.45 889.264 625.648 888.223 628.876 887.178L628.26 885.275C625.03 886.321 621.83 887.363 618.659 888.399L619.281 890.3ZM638.6 884.042C641.727 883.039 644.882 882.031 648.064 881.019L647.458 879.113C644.274 880.126 641.118 881.134 637.988 882.138L638.6 884.042ZM657.695 877.973C660.918 876.959 664.169 875.941 667.448 874.919L666.854 873.01C663.573 874.032 660.32 875.05 657.095 876.065L657.695 877.973ZM676.935 871.98C680.124 870.997 683.338 870.011 686.58 869.022L685.996 867.109C682.753 868.099 679.536 869.085 676.346 870.068L676.935 871.98ZM696.384 866.049C699.531 865.1 702.703 864.148 705.9 863.194L705.328 861.278C702.129 862.232 698.955 863.184 695.806 864.134L696.384 866.049ZM715.537 860.336C718.775 859.381 722.037 858.424 725.326 857.465L724.766 855.545C721.476 856.504 718.211 857.462 714.971 858.417L715.537 860.336ZM734.971 854.669C738.151 853.752 741.356 852.834 744.583 851.914L744.035 849.991C740.806 850.911 737.6 851.83 734.417 852.747L734.971 854.669ZM754.338 849.152C757.591 848.236 760.867 847.319 764.168 846.401L763.632 844.474C760.33 845.393 757.051 846.31 753.796 847.227L754.338 849.152ZM773.74 843.755C776.953 842.872 780.188 841.988 783.445 841.103L782.921 839.173C779.662 840.058 776.425 840.943 773.21 841.826L773.74 843.755ZM793.286 838.448C794.938 838.005 796.595 837.562 798.258 837.119L797.743 835.186C796.079 835.63 794.421 836.073 792.768 836.516L793.286 838.448ZM798.258 837.119C799.742 836.723 801.255 836.336 802.799 835.958L802.322 834.016C800.767 834.397 799.24 834.787 797.743 835.186L798.258 837.119ZM812.408 833.791C815.637 833.122 818.975 832.485 822.416 831.88L822.07 829.91C818.61 830.518 815.253 831.159 812.002 831.833L812.408 833.791ZM831.972 830.324C835.24 829.832 838.589 829.366 842.017 828.926L841.763 826.942C838.321 827.384 834.957 827.852 831.674 828.346L831.972 830.324ZM851.853 827.76C855.057 827.41 858.321 827.081 861.646 826.772L861.461 824.781C858.126 825.09 854.851 825.42 851.635 825.772L851.853 827.76ZM871.793 825.911C875.02 825.662 878.297 825.43 881.622 825.218L881.494 823.222C878.16 823.435 874.875 823.667 871.639 823.917L871.793 825.911ZM891.469 824.649C894.796 824.477 898.168 824.322 901.582 824.184L901.502 822.186C898.08 822.324 894.701 822.479 891.365 822.651L891.469 824.649ZM911.541 823.836C914.78 823.74 918.054 823.658 921.363 823.591L921.323 821.591C918.008 821.658 914.727 821.74 911.481 821.837L911.541 823.836ZM931.391 823.435C934.745 823.398 938.132 823.376 941.551 823.368L941.546 821.368C938.122 821.376 934.729 821.398 931.369 821.435L931.391 823.435ZM951.319 823.384C954.602 823.403 957.912 823.435 961.249 823.479L961.276 821.479C957.934 821.435 954.619 821.403 951.33 821.384L951.319 823.384ZM971.335 823.651C974.644 823.72 977.977 823.801 981.333 823.894L981.389 821.894C978.028 821.801 974.691 821.72 971.377 821.651L971.335 823.651ZM991.171 824.2C994.472 824.313 997.793 824.439 1001.13 824.575L1001.22 822.577C997.87 822.44 994.545 822.315 991.24 822.201L991.171 824.2ZM1011.22 825.02C1014.51 825.175 1017.82 825.342 1021.15 825.519L1021.26 823.522C1017.93 823.344 1014.61 823.178 1011.31 823.022L1011.22 825.02ZM1031.01 826.073C1034.32 826.269 1037.64 826.474 1040.97 826.69L1041.1 824.695C1037.76 824.478 1034.44 824.272 1031.13 824.077L1031.01 826.073ZM1051.02 827.37C1054.32 827.603 1057.63 827.845 1060.95 828.098L1061.1 826.103C1057.78 825.851 1054.46 825.608 1051.16 825.375L1051.02 827.37ZM1070.81 828.872C1074.11 829.14 1077.42 829.418 1080.74 829.705L1080.92 827.713C1077.59 827.425 1074.28 827.147 1070.97 826.879L1070.81 828.872ZM1090.74 830.596C1094.05 830.899 1097.37 831.212 1100.7 831.534L1100.89 829.543C1097.56 829.221 1094.24 828.908 1090.93 828.604L1090.74 830.596ZM1110.55 832.512C1113.84 832.846 1117.14 833.19 1120.45 833.543L1120.66 831.555C1117.35 831.201 1114.05 830.857 1110.75 830.522L1110.55 832.512ZM1130.4 834.63C1133.72 835 1137.04 835.379 1140.37 835.768L1140.6 833.781C1137.27 833.393 1133.94 833.013 1130.62 832.642L1130.4 834.63ZM1150.21 836.937C1153.49 837.336 1156.78 837.743 1160.08 838.159L1160.33 836.174C1157.03 835.758 1153.73 835.351 1150.45 834.952L1150.21 836.937ZM1169.98 839.432C1173.29 839.865 1176.6 840.306 1179.91 840.756L1180.18 838.775C1176.86 838.324 1173.55 837.882 1170.24 837.449L1169.98 839.432ZM1189.77 842.118C1193.05 842.579 1196.33 843.048 1199.61 843.525L1199.9 841.546C1196.61 841.068 1193.33 840.599 1190.05 840.138L1189.77 842.118ZM1209.48 844.982C1212.77 845.476 1216.06 845.978 1219.35 846.488L1219.66 844.512C1216.36 844.001 1213.07 843.498 1209.77 843.004L1209.48 844.982ZM1229.22 848.04C1232.49 848.563 1235.77 849.094 1239.04 849.633L1239.37 847.66C1236.09 847.12 1232.81 846.589 1229.54 846.065L1229.22 848.04ZM1248.87 851.275C1252.15 851.83 1255.42 852.393 1258.7 852.965L1259.04 850.994C1255.76 850.422 1252.48 849.859 1249.2 849.303L1248.87 851.275ZM1268.53 854.703C1271.8 855.29 1275.07 855.885 1278.34 856.487L1278.7 854.521C1275.43 853.917 1272.16 853.322 1268.88 852.734L1268.53 854.703ZM1288.14 858.319C1291.4 858.938 1294.67 859.565 1297.93 860.199L1298.31 858.236C1295.05 857.601 1291.78 856.974 1288.51 856.354L1288.14 858.319ZM1307.7 862.127C1310.96 862.778 1314.22 863.438 1317.48 864.105L1317.88 862.146C1314.62 861.478 1311.36 860.818 1308.1 860.166L1307.7 862.127ZM1327.25 866.138C1330.51 866.823 1333.76 867.517 1337.01 868.218L1337.43 866.263C1334.18 865.561 1330.93 864.867 1327.67 864.181L1327.25 866.138ZM1346.74 870.346C1349.97 871.063 1353.21 871.789 1356.43 872.522L1356.88 870.572C1353.65 869.838 1350.41 869.111 1347.17 868.393L1346.74 870.346ZM1366.18 874.766C1369.43 875.523 1372.67 876.288 1375.91 877.062L1376.37 875.116C1373.13 874.342 1369.89 873.576 1366.64 872.818L1366.18 874.766ZM1385.59 879.406C1388.81 880.195 1392.02 880.992 1395.23 881.798L1395.72 879.858C1392.51 879.052 1389.29 878.253 1386.07 877.463L1385.59 879.406ZM1404.89 884.257C1408.13 885.093 1411.36 885.936 1414.58 886.788L1415.1 884.855C1411.87 884.002 1408.63 883.157 1405.39 882.321L1404.89 884.257ZM1424.22 889.369C1427.42 890.237 1430.62 891.114 1433.8 891.999L1434.33 890.072C1431.15 889.186 1427.95 888.308 1424.75 887.438L1424.22 889.369ZM1443.33 894.685C1446.57 895.607 1449.79 896.538 1452.99 897.477L1453.56 895.558C1450.34 894.617 1447.12 893.685 1443.88 892.762L1443.33 894.685ZM1462.58 900.321C1465.76 901.277 1468.93 902.242 1472.08 903.216L1472.67 901.305C1469.51 900.33 1466.34 899.364 1463.15 898.406L1462.58 900.321ZM1481.5 906.162C1484.71 907.178 1487.9 908.203 1491.08 909.237L1491.7 907.336C1488.52 906.3 1485.32 905.273 1482.11 904.255L1481.5 906.162ZM1500.59 912.378C1503.75 913.434 1506.88 914.498 1510 915.572L1510.65 913.681C1507.53 912.605 1504.39 911.539 1501.23 910.481L1500.59 912.378ZM1519.31 918.82C1522.48 919.942 1525.63 921.073 1528.76 922.213L1529.45 920.334C1526.31 919.192 1523.15 918.058 1519.98 916.935L1519.31 918.82ZM1538.18 925.694C1541.29 926.863 1544.39 928.043 1547.46 929.231L1548.18 927.366C1545.1 926.175 1542 924.993 1538.88 923.821L1538.18 925.694ZM1556.62 932.826C1559.75 934.075 1562.86 935.334 1565.94 936.603L1566.7 934.753C1563.61 933.482 1560.5 932.22 1557.36 930.968L1556.62 932.826ZM1575.2 940.478C1578.26 941.779 1581.29 943.092 1584.3 944.414L1585.11 942.583C1582.09 941.257 1579.05 939.942 1575.98 938.637L1575.2 940.478ZM1593.24 948.411C1596.34 949.821 1599.4 951.242 1602.44 952.674L1603.29 950.865C1600.25 949.429 1597.17 948.004 1594.07 946.591L1593.24 948.411ZM1611.46 957.012C1614.43 958.469 1617.37 959.937 1620.28 961.416L1621.19 959.634C1618.27 958.15 1615.32 956.677 1612.34 955.216L1611.46 957.012ZM1629.07 965.98C1632.07 967.571 1635.04 969.175 1637.96 970.792L1638.93 969.042C1636 967.419 1633.02 965.81 1630.01 964.213L1629.07 965.98ZM1646.61 975.678C1649.45 977.32 1652.24 978.973 1655 980.639L1656.03 978.928C1653.27 977.255 1650.46 975.595 1647.61 973.947L1646.61 975.678ZM1663.63 985.99C1666.47 987.796 1669.25 989.615 1671.99 991.449L1673.1 989.788C1670.35 987.945 1667.55 986.116 1664.7 984.302L1663.63 985.99ZM1680.04 996.992C1682.81 998.953 1685.52 1000.93 1688.16 1002.92L1689.37 1001.32C1686.7 999.319 1683.98 997.331 1681.19 995.359L1680.04 996.992ZM1696.07 1009.06C1698.64 1011.12 1701.14 1013.2 1703.58 1015.29L1704.88 1013.78C1702.43 1011.67 1699.91 1009.58 1697.32 1007.5L1696.07 1009.06ZM1711.08 1021.99C1713.55 1024.29 1715.94 1026.6 1718.24 1028.93L1719.66 1027.52C1717.34 1025.17 1714.93 1022.84 1712.44 1020.53L1711.08 1021.99ZM1724.9 1035.97C1727.2 1038.52 1729.4 1041.08 1731.5 1043.67L1733.05 1042.41C1730.93 1039.79 1728.71 1037.2 1726.39 1034.63L1724.9 1035.97ZM1737.49 1051.5C1739.43 1054.21 1741.27 1056.93 1742.99 1059.68L1744.68 1058.62C1742.94 1055.84 1741.08 1053.07 1739.11 1050.33L1737.49 1051.5ZM1747.97 1068.32C1749.51 1071.22 1750.92 1074.15 1752.2 1077.1L1754.03 1076.3C1752.73 1073.3 1751.3 1070.33 1749.74 1067.38L1747.97 1068.32ZM1755.78 1086.41C1756.83 1089.54 1757.73 1092.69 1758.48 1095.87L1760.43 1095.41C1759.66 1092.17 1758.74 1088.96 1757.68 1085.77L1755.78 1086.41ZM1760.29 1105.54C1760.75 1108.79 1761.04 1112.07 1761.18 1115.38L1763.17 1115.3C1763.04 1111.93 1762.74 1108.58 1762.28 1105.26L1760.29 1105.54ZM1761.11 1125.21C1760.93 1128.44 1760.6 1131.7 1760.12 1134.98L1762.09 1135.27C1762.59 1131.93 1762.92 1128.61 1763.1 1125.32L1761.11 1125.21ZM1758.2 1144.84C1757.47 1147.9 1756.6 1150.99 1755.58 1154.1L1757.49 1154.72C1758.51 1151.56 1759.4 1148.42 1760.15 1145.3L1758.2 1144.84ZM1752.13 1163.5C1751.49 1165.07 1750.81 1166.65 1750.09 1168.24L1751.91 1169.06C1752.64 1167.46 1753.33 1165.85 1753.98 1164.25L1752.13 1163.5ZM1750.09 1168.24C1749.35 1169.87 1748.61 1171.48 1747.86 1173.06L1749.67 1173.91C1750.42 1172.32 1751.17 1170.71 1751.91 1169.06L1750.09 1168.24ZM1743.31 1182.22C1741.78 1185.18 1740.22 1188.03 1738.64 1190.79L1740.37 1191.78C1741.97 1189 1743.54 1186.13 1745.09 1183.15L1743.31 1182.22ZM1733.43 1199.4C1731.57 1202.31 1729.69 1205.1 1727.77 1207.76L1729.4 1208.93C1731.33 1206.23 1733.24 1203.42 1735.12 1200.47L1733.43 1199.4ZM1721.94 1215.41C1719.71 1218.14 1717.45 1220.72 1715.16 1223.16L1716.62 1224.53C1718.95 1222.06 1721.24 1219.44 1723.49 1216.67L1721.94 1215.41ZM1708.18 1230.03C1705.65 1232.33 1703.08 1234.47 1700.46 1236.45L1701.67 1238.04C1704.33 1236.03 1706.95 1233.85 1709.53 1231.51L1708.18 1230.03ZM1692.32 1242.04C1689.46 1243.8 1686.55 1245.39 1683.6 1246.82L1684.47 1248.62C1687.48 1247.16 1690.45 1245.54 1693.37 1243.74L1692.32 1242.04ZM1674.46 1250.67C1671.35 1251.79 1668.19 1252.75 1664.98 1253.55L1665.47 1255.49C1668.74 1254.68 1671.96 1253.7 1675.14 1252.55L1674.46 1250.67ZM1655.2 1255.49C1651.96 1255.97 1648.69 1256.3 1645.36 1256.49L1645.48 1258.49C1648.86 1258.29 1652.2 1257.95 1655.49 1257.47L1655.2 1255.49ZM1635.32 1256.67C1632.08 1256.6 1628.79 1256.41 1625.46 1256.11L1625.28 1258.1C1628.65 1258.41 1631.98 1258.6 1635.28 1258.67L1635.32 1256.67ZM1615.47 1254.88C1612.25 1254.39 1608.99 1253.8 1605.7 1253.12L1605.3 1255.08C1608.62 1255.77 1611.91 1256.36 1615.16 1256.86L1615.47 1254.88ZM1595.93 1250.86C1592.74 1250.05 1589.51 1249.15 1586.25 1248.19L1585.68 1250.11C1588.96 1251.08 1592.22 1251.98 1595.44 1252.8L1595.93 1250.86ZM1576.77 1245.2C1573.58 1244.14 1570.36 1243.01 1567.11 1241.83L1566.43 1243.7C1569.69 1244.9 1572.93 1246.03 1576.13 1247.1L1576.77 1245.2ZM1557.92 1238.34C1554.83 1237.12 1551.71 1235.85 1548.57 1234.54L1547.8 1236.39C1550.95 1237.7 1554.08 1238.98 1557.19 1240.2L1557.92 1238.34ZM1539.31 1230.57C1536.31 1229.25 1533.29 1227.89 1530.24 1226.49L1529.41 1228.31C1532.47 1229.71 1535.5 1231.07 1538.51 1232.4L1539.31 1230.57ZM1521.04 1222.2C1518.06 1220.78 1515.06 1219.34 1512.04 1217.86L1511.16 1219.66C1514.19 1221.14 1517.2 1222.59 1520.18 1224L1521.04 1222.2ZM1503.08 1213.43C1500.07 1211.92 1497.05 1210.39 1494 1208.84L1493.09 1210.62C1496.14 1212.17 1499.17 1213.71 1502.19 1215.22L1503.08 1213.43ZM1485.14 1204.27C1482.2 1202.74 1479.24 1201.2 1476.26 1199.63L1475.33 1201.4C1478.31 1202.97 1481.27 1204.52 1484.22 1206.04L1485.14 1204.27ZM1467.29 1194.88C1464.36 1193.33 1461.42 1191.76 1458.46 1190.18L1457.52 1191.94C1460.48 1193.52 1463.42 1195.1 1466.35 1196.65L1467.29 1194.88ZM1449.64 1185.44C1446.69 1183.85 1443.72 1182.25 1440.73 1180.64L1439.78 1182.4C1442.77 1184.01 1445.74 1185.61 1448.7 1187.21L1449.64 1185.44ZM1431.88 1175.86C1428.96 1174.29 1426.03 1172.7 1423.09 1171.11L1422.14 1172.87C1425.08 1174.46 1428.01 1176.05 1430.93 1177.62L1431.88 1175.86ZM1414.2 1166.32C1411.25 1164.73 1408.27 1163.14 1405.29 1161.54L1404.34 1163.3C1407.33 1164.9 1410.3 1166.5 1413.25 1168.09L1414.2 1166.32ZM1396.49 1156.83C1393.54 1155.26 1390.57 1153.69 1387.6 1152.12L1386.66 1153.89C1389.64 1155.46 1392.6 1157.03 1395.55 1158.6L1396.49 1156.83ZM1378.63 1147.4C1375.68 1145.86 1372.72 1144.32 1369.75 1142.78L1368.83 1144.55C1371.8 1146.09 1374.76 1147.63 1377.7 1149.17L1378.63 1147.4ZM1360.83 1138.18C1357.84 1136.65 1354.84 1135.13 1351.83 1133.61L1350.93 1135.39C1353.94 1136.91 1356.93 1138.43 1359.92 1139.96L1360.83 1138.18ZM1342.81 1129.09C1339.83 1127.61 1336.84 1126.13 1333.83 1124.66L1332.95 1126.45C1335.96 1127.92 1338.95 1129.4 1341.92 1130.88L1342.81 1129.09ZM1324.77 1120.27C1321.74 1118.81 1318.69 1117.36 1315.64 1115.92L1314.79 1117.73C1317.84 1119.17 1320.88 1120.62 1323.91 1122.07L1324.77 1120.27ZM1306.55 1111.69C1303.51 1110.29 1300.46 1108.9 1297.41 1107.52L1296.58 1109.35C1299.64 1110.72 1302.68 1112.11 1305.71 1113.5L1306.55 1111.69ZM1288.19 1103.42C1285.12 1102.07 1282.03 1100.73 1278.93 1099.41L1278.15 1101.25C1281.24 1102.57 1284.32 1103.91 1287.39 1105.25L1288.19 1103.42ZM1269.69 1095.51C1266.6 1094.23 1263.5 1092.95 1260.38 1091.7L1259.63 1093.55C1262.74 1094.81 1265.84 1096.07 1268.92 1097.36L1269.69 1095.51ZM1251 1087.97C1247.88 1086.76 1244.75 1085.56 1241.61 1084.37L1240.9 1086.24C1244.03 1087.42 1247.16 1088.62 1250.27 1089.84L1251 1087.97ZM1232.18 1080.89C1229.03 1079.74 1225.87 1078.62 1222.69 1077.51L1222.03 1079.4C1225.2 1080.5 1228.35 1081.62 1231.5 1082.77L1232.18 1080.89ZM1213.13 1074.25C1209.96 1073.19 1206.78 1072.15 1203.59 1071.13L1202.98 1073.04C1206.16 1074.05 1209.34 1075.09 1212.5 1076.14L1213.13 1074.25ZM1193.98 1068.14C1190.77 1067.17 1187.55 1066.22 1184.31 1065.29L1183.76 1067.21C1186.99 1068.14 1190.2 1069.09 1193.4 1070.06L1193.98 1068.14ZM1174.6 1062.58C1171.37 1061.7 1168.14 1060.85 1164.89 1060.02L1164.4 1061.96C1167.63 1062.79 1170.86 1063.63 1174.08 1064.51L1174.6 1062.58ZM1155.11 1057.62C1151.84 1056.84 1148.56 1056.09 1145.27 1055.37L1144.84 1057.32C1148.12 1058.04 1151.39 1058.79 1154.65 1059.57L1155.11 1057.62ZM1135.42 1053.29C1132.15 1052.63 1128.86 1051.99 1125.56 1051.38L1125.2 1053.35C1128.48 1053.96 1131.76 1054.59 1135.03 1055.25L1135.42 1053.29ZM1115.64 1049.64C1112.32 1049.09 1108.99 1048.57 1105.65 1048.08L1105.36 1050.06C1108.69 1050.55 1112 1051.07 1115.31 1051.62L1115.64 1049.64ZM1095.7 1046.71C1092.38 1046.28 1089.06 1045.89 1085.72 1045.52L1085.51 1047.51C1088.83 1047.87 1092.14 1048.27 1095.44 1048.69L1095.7 1046.71ZM1075.69 1044.52C1072.33 1044.22 1068.97 1043.95 1065.59 1043.71L1065.45 1045.71C1068.82 1045.94 1072.17 1046.21 1075.51 1046.51L1075.69 1044.52ZM1055.59 1043.11C1052.26 1042.94 1048.91 1042.81 1045.56 1042.71L1045.5 1044.7C1048.84 1044.81 1052.17 1044.94 1055.49 1045.11L1055.59 1043.11ZM1035.46 1042.5C1032.09 1042.47 1028.71 1042.47 1025.31 1042.51L1025.33 1044.51C1028.71 1044.47 1032.08 1044.47 1035.44 1044.5L1035.46 1042.5ZM1015.33 1042.72C1011.99 1042.82 1008.65 1042.96 1005.3 1043.13L1005.4 1045.13C1008.74 1044.96 1012.07 1044.82 1015.39 1044.72L1015.33 1042.72ZM995.212 1043.76C991.841 1044.01 988.461 1044.29 985.072 1044.61L985.26 1046.6C988.635 1046.29 992.001 1046 995.358 1045.76L995.212 1043.76ZM975.168 1045.65C971.86 1046.03 968.543 1046.45 965.217 1046.91L965.488 1048.89C968.799 1048.43 972.103 1048.02 975.397 1047.64L975.168 1045.65ZM955.216 1048.38C951.875 1048.91 948.524 1049.47 945.166 1050.07L945.519 1052.04C948.864 1051.44 952.201 1050.88 955.529 1050.35L955.216 1048.38ZM935.382 1051.94C932.128 1052.59 928.865 1053.28 925.595 1054.01L926.029 1055.96C929.286 1055.24 932.535 1054.55 935.776 1053.9L935.382 1051.94ZM915.762 1056.3C912.476 1057.1 909.183 1057.94 905.883 1058.82L906.396 1060.75C909.684 1059.88 912.963 1059.04 916.236 1058.24L915.762 1056.3ZM896.223 1061.49C893.049 1062.4 889.868 1063.35 886.68 1064.33L887.269 1066.24C890.445 1065.26 893.613 1064.32 896.775 1063.41L896.223 1061.49ZM877.095 1067.39C873.893 1068.45 870.684 1069.54 867.469 1070.67L868.132 1072.56C871.336 1071.43 874.532 1070.34 877.721 1069.29L877.095 1067.39ZM857.887 1074.14C854.817 1075.29 851.742 1076.47 848.66 1077.69L849.393 1079.55C852.464 1078.34 855.528 1077.16 858.586 1076.02L857.887 1074.14ZM839.396 1081.44C836.302 1082.72 833.201 1084.04 830.095 1085.4L830.895 1087.23C833.991 1085.88 837.08 1084.56 840.163 1083.28L839.396 1081.44ZM820.757 1089.58C819.198 1090.29 817.637 1091.01 816.075 1091.75L816.924 1093.56C818.481 1092.83 820.036 1092.11 821.59 1091.39L820.757 1089.58Z" fill="#81C0DF"/>
<path d="M816.462 106.539C816.952 106.284 817.142 105.68 816.887 105.19L812.73 97.208C812.475 96.7182 811.871 96.5279 811.381 96.783C810.891 97.0381 810.701 97.642 810.956 98.1318L814.651 105.227L807.556 108.922C807.066 109.177 806.875 109.781 807.131 110.271C807.386 110.761 807.99 110.951 808.479 110.696L816.462 106.539ZM1 239.719H0H1ZM1394.39 585.448L1395.3 585.86L1394.39 585.448ZM266.672 642.591C266.362 643.048 266.482 643.67 266.939 643.98L274.387 649.032C274.844 649.342 275.466 649.223 275.776 648.766C276.086 648.309 275.967 647.687 275.509 647.377L268.889 642.886L273.38 636.266C273.69 635.808 273.571 635.187 273.114 634.877C272.657 634.567 272.035 634.686 271.725 635.143L266.672 642.591ZM658.418 421.555L658.675 422.522L658.418 421.555ZM267.688 644.134C269.337 643.818 270.985 643.508 272.635 643.202L272.27 641.235C270.617 641.542 268.964 641.853 267.312 642.17L267.688 644.134ZM282.534 641.429C285.835 640.858 289.138 640.307 292.442 639.776L292.124 637.801C288.813 638.334 285.502 638.886 282.193 639.458L282.534 641.429ZM302.357 638.241C305.663 637.749 308.971 637.277 312.279 636.823L312.007 634.841C308.691 635.296 305.376 635.77 302.063 636.263L302.357 638.241ZM322.25 635.513C325.575 635.095 328.901 634.696 332.228 634.316L332 632.329C328.667 632.71 325.333 633.11 322.001 633.529L322.25 635.513ZM342.209 633.229C345.537 632.885 348.866 632.56 352.195 632.251L352.01 630.26C348.674 630.569 345.339 630.895 342.004 631.24L342.209 633.229ZM362.198 631.379C365.538 631.105 368.879 630.848 372.22 630.609L372.077 628.614C368.729 628.854 365.382 629.111 362.035 629.385L362.198 631.379ZM382.243 629.942C385.584 629.737 388.925 629.548 392.266 629.376L392.163 627.379C388.816 627.551 385.468 627.74 382.12 627.946L382.243 629.942ZM402.289 628.908C405.638 628.768 408.987 628.644 412.335 628.535L412.271 626.536C408.916 626.645 405.561 626.769 402.205 626.91L402.289 628.908ZM422.38 628.257C425.728 628.18 429.075 628.118 432.421 628.071L432.393 626.071C429.041 626.118 425.688 626.18 422.334 626.258L422.38 628.257ZM442.459 627.975C445.808 627.958 449.157 627.956 452.505 627.967L452.512 625.967C449.158 625.956 445.804 625.958 442.449 625.975L442.459 627.975ZM462.556 628.045C465.906 628.086 469.254 628.14 472.602 628.207L472.642 626.208C469.289 626.14 465.935 626.086 462.58 626.046L462.556 628.045ZM482.64 628.451C485.985 628.545 489.329 628.653 492.672 628.774L492.744 626.775C489.396 626.654 486.047 626.546 482.697 626.452L482.64 628.451ZM502.721 629.175C506.069 629.322 509.416 629.481 512.761 629.652L512.863 627.655C509.513 627.483 506.162 627.324 502.808 627.177L502.721 629.175ZM522.79 630.202C526.131 630.398 529.471 630.605 532.808 630.823L532.939 628.828C529.597 628.609 526.253 628.401 522.907 628.206L522.79 630.202ZM542.835 631.515C546.18 631.757 549.523 632.01 552.864 632.274L553.021 630.28C549.676 630.016 546.329 629.762 542.979 629.52L542.835 631.515ZM562.879 633.098C566.214 633.383 569.548 633.678 572.879 633.984L573.061 631.992C569.727 631.686 566.389 631.391 563.049 631.105L562.879 633.098ZM582.87 634.931C586.212 635.258 589.55 635.595 592.886 635.941L593.093 633.952C589.753 633.605 586.41 633.268 583.065 632.941L582.87 634.931ZM602.885 637.007C606.215 637.371 609.541 637.745 612.865 638.127L613.093 636.14C609.766 635.757 606.436 635.384 603.102 635.019L602.885 637.007ZM622.826 639.298C626.159 639.699 629.488 640.108 632.813 640.525L633.062 638.54C629.733 638.123 626.401 637.713 623.065 637.312L622.826 639.298ZM642.797 641.801C646.121 642.234 649.442 642.675 652.758 643.123L653.026 641.141C649.706 640.692 646.383 640.251 643.055 639.818L642.797 641.801ZM662.697 644.487C666.015 644.95 669.329 645.42 672.639 645.897L672.924 643.917C669.611 643.44 666.294 642.97 662.973 642.507L662.697 644.487ZM682.611 647.353C685.931 647.844 689.246 648.342 692.557 648.845L692.858 646.868C689.544 646.364 686.227 645.866 682.904 645.374L682.611 647.353ZM702.476 650.372C705.778 650.886 709.075 651.406 712.367 651.93L712.682 649.955C709.388 649.43 706.088 648.91 702.784 648.396L702.476 650.372ZM722.332 653.535C725.649 654.074 728.961 654.618 732.267 655.167L732.595 653.194C729.286 652.645 725.972 652.101 722.653 651.561L722.332 653.535ZM742.172 656.824C745.468 657.38 748.759 657.94 752.044 658.504L752.382 656.533C749.095 655.969 745.803 655.409 742.505 654.852L742.172 656.824ZM761.969 660.219C765.286 660.796 768.596 661.376 771.901 661.959L772.248 659.989C768.942 659.406 765.63 658.826 762.312 658.248L761.969 660.219ZM781.797 663.714C785.089 664.302 788.376 664.892 791.656 665.483L792.011 663.515C788.729 662.923 785.442 662.333 782.148 661.746L781.797 663.714ZM801.542 667.274C804.86 667.878 808.172 668.483 811.477 669.089L811.837 667.121C808.532 666.515 805.219 665.91 801.9 665.306L801.542 667.274ZM821.37 670.909C824.661 671.516 827.945 672.124 831.222 672.731L831.587 670.765C828.309 670.157 825.025 669.549 821.733 668.942L821.37 670.909ZM841.074 674.562C844.397 675.181 847.712 675.799 851.019 676.416L851.386 674.45C848.078 673.833 844.763 673.214 841.44 672.596L841.074 674.562ZM860.917 678.264C864.209 678.878 867.492 679.492 870.767 680.103L871.134 678.137C867.859 677.526 864.576 676.912 861.284 676.298L860.917 678.264ZM880.596 681.936C883.925 682.556 887.246 683.174 890.558 683.789L890.923 681.823C887.612 681.208 884.291 680.59 880.962 679.97L880.596 681.936ZM900.466 685.624C903.76 686.232 907.045 686.837 910.32 687.438L910.681 685.471C907.406 684.87 904.123 684.265 900.829 683.657L900.466 685.624ZM920.144 689.232C923.482 689.839 926.81 690.442 930.128 691.039L930.482 689.07C927.166 688.474 923.839 687.872 920.502 687.265L920.144 689.232ZM940.051 692.814C943.348 693.4 946.635 693.98 949.911 694.554L950.256 692.584C946.982 692.01 943.696 691.43 940.4 690.845L940.051 692.814ZM959.758 696.264C963.106 696.84 966.442 697.409 969.766 697.97L970.099 695.998C966.777 695.438 963.443 694.869 960.098 694.293L959.758 696.264ZM979.704 699.63C983.005 700.174 986.294 700.711 989.572 701.238L989.889 699.263C986.615 698.737 983.328 698.201 980.03 697.656L979.704 699.63ZM999.479 702.809C1002.84 703.333 1006.18 703.848 1009.51 704.351L1009.81 702.373C1006.48 701.871 1003.14 701.357 999.788 700.833L999.479 702.809ZM1019.46 705.827C1022.76 706.307 1026.05 706.776 1029.33 707.233L1029.6 705.252C1026.33 704.796 1023.05 704.327 1019.75 703.847L1019.46 705.827ZM1039.34 708.596C1042.7 709.042 1046.05 709.474 1049.38 709.892L1049.63 707.908C1046.3 707.49 1042.96 707.059 1039.6 706.613L1039.34 708.596ZM1059.33 711.101C1062.65 711.49 1065.94 711.864 1069.22 712.221L1069.44 710.233C1066.16 709.876 1062.87 709.503 1059.57 709.115L1059.33 711.101ZM1079.36 713.28C1082.72 713.615 1086.07 713.931 1089.4 714.229L1089.57 712.237C1086.25 711.94 1082.92 711.624 1079.56 711.289L1079.36 713.28ZM1099.33 715.065C1102.71 715.331 1106.07 715.577 1109.41 715.801L1109.54 713.805C1106.21 713.582 1102.86 713.337 1099.48 713.071L1099.33 715.065ZM1119.52 716.414C1122.88 716.595 1126.21 716.753 1129.52 716.887L1129.6 714.889C1126.3 714.755 1122.97 714.598 1119.63 714.417L1119.52 716.414ZM1139.54 717.22C1142.95 717.308 1146.34 717.368 1149.71 717.4L1149.73 715.4C1146.37 715.368 1142.99 715.308 1139.59 715.221L1139.54 717.22ZM1159.74 717.41C1163.09 717.384 1166.42 717.327 1169.72 717.24L1169.67 715.241C1166.38 715.328 1163.06 715.384 1159.73 715.41L1159.74 717.41ZM1179.91 716.868C1183.28 716.709 1186.63 716.516 1189.94 716.288L1189.81 714.292C1186.5 714.52 1183.17 714.712 1179.82 714.87L1179.91 716.868ZM1199.89 715.486C1203.3 715.17 1206.68 714.814 1210.03 714.415L1209.8 712.429C1206.46 712.825 1203.1 713.18 1199.7 713.495L1199.89 715.486ZM1219.99 713.093C1223.32 712.604 1226.62 712.071 1229.88 711.492L1229.53 709.523C1226.29 710.098 1223.01 710.628 1219.7 711.115L1219.99 713.093ZM1239.87 709.555C1243.17 708.859 1246.43 708.114 1249.65 707.316L1249.17 705.375C1245.97 706.166 1242.73 706.907 1239.46 707.598L1239.87 709.555ZM1259.39 704.719C1262.66 703.782 1265.89 702.787 1269.07 701.734L1268.45 699.835C1265.28 700.88 1262.08 701.866 1258.84 702.796L1259.39 704.719ZM1278.52 698.395C1281.7 697.197 1284.83 695.935 1287.92 694.609L1287.13 692.771C1284.07 694.086 1280.96 695.336 1277.82 696.523L1278.52 698.395ZM1297.11 690.412C1300.13 688.943 1303.11 687.405 1306.05 685.798L1305.09 684.044C1302.18 685.635 1299.23 687.158 1296.23 688.613L1297.11 690.412ZM1314.79 680.723C1317.66 678.958 1320.49 677.121 1323.26 675.209L1322.13 673.562C1319.38 675.454 1316.59 677.273 1313.75 679.019L1314.79 680.723ZM1331.41 669.281C1334.06 667.236 1336.68 665.116 1339.24 662.918L1337.94 661.4C1335.4 663.574 1332.82 665.672 1330.19 667.695L1331.41 669.281ZM1346.78 656.097C1349.18 653.813 1351.53 651.454 1353.83 649.019L1352.38 647.644C1350.1 650.054 1347.77 652.389 1345.4 654.65L1346.78 656.097ZM1360.6 641.484C1362.78 638.938 1364.91 636.317 1366.99 633.619L1365.4 632.397C1363.34 635.069 1361.24 637.665 1359.08 640.185L1360.6 641.484ZM1372.9 625.576C1374.83 622.822 1376.71 619.995 1378.55 617.094L1376.86 616.023C1375.04 618.9 1373.17 621.701 1371.26 624.43L1372.9 625.576ZM1383.75 608.475C1385.39 605.628 1386.99 602.714 1388.55 599.733L1386.78 598.806C1385.23 601.764 1383.64 604.654 1382.02 607.478L1383.75 608.475ZM1393.11 590.587C1393.85 589.028 1394.58 587.453 1395.3 585.86L1393.47 585.036C1392.76 586.618 1392.04 588.182 1391.3 589.729L1393.11 590.587ZM1395.3 585.86C1396.03 584.237 1396.74 582.626 1397.41 581.025L1395.57 580.247C1394.9 581.832 1394.2 583.428 1393.47 585.036L1395.3 585.86ZM1401.13 571.557C1402.26 568.446 1403.28 565.379 1404.19 562.355L1402.27 561.78C1401.37 564.766 1400.37 567.798 1399.25 570.876L1401.13 571.557ZM1406.83 552.347C1407.58 549.05 1408.19 545.808 1408.67 542.621L1406.7 542.322C1406.22 545.459 1405.62 548.653 1404.88 551.903L1406.83 552.347ZM1409.77 532.528C1409.99 529.129 1410.05 525.795 1409.96 522.527L1407.96 522.584C1408.05 525.789 1407.99 529.06 1407.77 532.398L1409.77 532.528ZM1409.16 512.454C1408.72 509.091 1408.1 505.801 1407.31 502.585L1405.37 503.059C1406.14 506.205 1406.74 509.423 1407.18 512.716L1409.16 512.454ZM1404.38 492.929C1403.22 489.764 1401.89 486.676 1400.39 483.665L1398.6 484.556C1400.06 487.502 1401.37 490.522 1402.5 493.617L1404.38 492.929ZM1395.44 474.925C1393.64 472.095 1391.68 469.34 1389.57 466.656L1388 467.892C1390.07 470.526 1391.99 473.228 1393.76 476L1395.44 474.925ZM1383.05 459.099C1380.76 456.666 1378.34 454.298 1375.79 451.993L1374.45 453.476C1376.96 455.747 1379.34 458.078 1381.6 460.47L1383.05 459.099ZM1368.18 445.595C1365.55 443.531 1362.81 441.522 1359.96 439.567L1358.83 441.216C1361.64 443.148 1364.35 445.132 1366.95 447.169L1368.18 445.595ZM1351.66 434.199C1348.8 432.457 1345.85 430.762 1342.82 429.113L1341.87 430.87C1344.87 432.504 1347.79 434.183 1350.62 435.907L1351.66 434.199ZM1334.04 424.582C1331.06 423.123 1328.01 421.703 1324.89 420.322L1324.08 422.151C1327.18 423.522 1330.2 424.931 1333.16 426.378L1334.04 424.582ZM1315.66 416.428C1312.62 415.204 1309.51 414.013 1306.36 412.855L1305.67 414.733C1308.81 415.884 1311.89 417.068 1314.91 418.284L1315.66 416.428ZM1296.73 409.482C1293.65 408.452 1290.53 407.451 1287.36 406.477L1286.77 408.389C1289.93 409.358 1293.03 410.354 1296.09 411.378L1296.73 409.482ZM1277.71 403.639C1274.51 402.738 1271.27 401.863 1267.99 401.014L1267.49 402.95C1270.76 403.795 1273.98 404.667 1277.17 405.564L1277.71 403.639ZM1258.37 398.626C1255.13 397.854 1251.85 397.106 1248.53 396.381L1248.1 398.334C1251.41 399.057 1254.67 399.803 1257.91 400.572L1258.37 398.626ZM1238.74 394.325C1235.52 393.677 1232.26 393.049 1228.98 392.442L1228.62 394.408C1231.89 395.014 1235.13 395.64 1238.35 396.286L1238.74 394.325ZM1219.05 390.681C1215.78 390.127 1212.5 389.593 1209.18 389.077L1208.88 391.054C1212.18 391.568 1215.46 392.101 1218.71 392.653L1219.05 390.681ZM1199.34 387.612C1196.04 387.141 1192.71 386.688 1189.37 386.253L1189.11 388.237C1192.45 388.671 1195.77 389.122 1199.06 389.592L1199.34 387.612ZM1179.43 385.021C1176.16 384.634 1172.86 384.263 1169.55 383.908L1169.34 385.897C1172.64 386.251 1175.93 386.621 1179.2 387.007L1179.43 385.021ZM1159.56 382.89C1156.24 382.569 1152.91 382.264 1149.56 381.974L1149.39 383.966C1152.73 384.256 1156.06 384.561 1159.37 384.881L1159.56 382.89ZM1139.66 381.162C1136.34 380.906 1133.01 380.665 1129.67 380.437L1129.53 382.432C1132.87 382.66 1136.19 382.901 1139.5 383.156L1139.66 381.162ZM1119.61 379.796C1116.32 379.601 1113.01 379.418 1109.69 379.249L1109.59 381.246C1112.9 381.415 1116.2 381.597 1119.49 381.793L1119.61 379.796ZM1099.71 378.779C1096.38 378.635 1093.03 378.504 1089.68 378.386L1089.61 380.384C1092.95 380.503 1096.3 380.634 1099.63 380.777L1099.71 378.779ZM1079.7 378.07C1076.38 377.978 1073.05 377.897 1069.72 377.828L1069.68 379.828C1073.01 379.897 1076.33 379.977 1079.64 380.07L1079.7 378.07ZM1059.71 377.656C1056.37 377.61 1053.03 377.576 1049.69 377.552L1049.67 379.552C1053.01 379.576 1056.35 379.61 1059.68 379.656L1059.71 377.656ZM1039.71 377.516C1036.38 377.515 1033.05 377.524 1029.71 377.544L1029.72 379.544C1033.05 379.524 1036.38 379.515 1039.71 379.516L1039.71 377.516ZM1019.69 377.636C1016.37 377.677 1013.03 377.728 1009.7 377.789L1009.74 379.789C1013.07 379.727 1016.39 379.676 1019.72 379.636L1019.69 377.636ZM999.708 378.002C996.377 378.083 993.045 378.174 989.714 378.275L989.774 380.274C993.101 380.174 996.429 380.083 999.757 380.002L999.708 378.002ZM979.716 378.606C976.381 378.725 973.048 378.855 969.717 378.993L969.8 380.992C973.127 380.853 976.457 380.724 979.788 380.604L979.716 378.606ZM959.733 379.436C956.408 379.593 953.087 379.759 949.769 379.934L949.874 381.931C953.188 381.757 956.506 381.591 959.827 381.434L959.733 379.436ZM939.755 380.488C936.421 380.682 933.092 380.885 929.769 381.096L929.896 383.092C933.215 382.881 936.54 382.679 939.871 382.485L939.755 380.488ZM919.82 381.754C916.485 381.984 913.156 382.222 909.836 382.468L909.984 384.462C913.301 384.216 916.626 383.979 919.958 383.749L919.82 381.754ZM899.838 383.236C896.514 383.5 893.199 383.772 889.894 384.052L890.063 386.045C893.364 385.765 896.676 385.493 899.996 385.23L899.838 383.236ZM879.972 384.919C876.62 385.221 873.279 385.531 869.951 385.848L870.141 387.839C873.466 387.522 876.803 387.213 880.151 386.911L879.972 384.919ZM860.005 386.823C856.703 387.156 853.415 387.496 850.14 387.843L850.351 389.832C853.622 389.485 856.907 389.145 860.206 388.813L860.005 386.823ZM840.119 388.933C836.785 389.305 833.467 389.684 830.167 390.07L830.399 392.057C833.696 391.671 837.01 391.292 840.341 390.921L840.119 388.933ZM820.319 391.25C816.975 391.66 813.65 392.077 810.346 392.501L810.6 394.485C813.901 394.062 817.222 393.645 820.562 393.235L820.319 391.25ZM800.388 393.808C797.091 394.251 793.816 394.7 790.565 395.155L790.843 397.136C794.09 396.681 797.361 396.232 800.654 395.79L800.388 393.808ZM780.631 396.578C777.287 397.068 773.97 397.564 770.681 398.066L770.983 400.043C774.268 399.541 777.581 399.046 780.921 398.557L780.631 396.578ZM760.901 399.592C757.561 400.124 754.252 400.663 750.977 401.208L751.305 403.181C754.576 402.637 757.88 402.099 761.216 401.567L760.901 399.592ZM741.062 402.893C737.793 403.461 734.561 404.035 731.365 404.614L731.722 406.582C734.912 406.003 738.14 405.43 741.405 404.863L741.062 402.893ZM721.396 406.462C718.077 407.092 714.804 407.727 711.577 408.368L711.966 410.329C715.187 409.69 718.455 409.056 721.768 408.427L721.396 406.462ZM701.909 410.332C698.53 411.034 695.208 411.743 691.945 412.456L692.372 414.41C695.628 413.698 698.944 412.991 702.316 412.29L701.909 410.332ZM682.337 414.612C678.974 415.385 675.682 416.165 672.464 416.948L672.937 418.891C676.147 418.11 679.43 417.333 682.785 416.561L682.337 414.612ZM662.809 419.369C661.239 419.775 659.689 420.181 658.16 420.589L658.675 422.522C660.199 422.115 661.744 421.71 663.309 421.306L662.809 419.369ZM658.16 420.589C656.541 421.02 654.924 421.449 653.31 421.876L653.82 423.81C655.437 423.383 657.055 422.953 658.675 422.522L658.16 420.589ZM643.646 424.405C640.433 425.238 637.229 426.061 634.033 426.874L634.526 428.812C637.725 427.998 640.932 427.174 644.148 426.341L643.646 424.405ZM624.471 429.282C621.232 430.089 618.003 430.887 614.782 431.673L615.256 433.616C618.48 432.829 621.713 432.031 624.955 431.222L624.471 429.282ZM605.089 434.015C601.867 434.785 598.654 435.545 595.451 436.293L595.906 438.241C599.113 437.491 602.328 436.731 605.554 435.961L605.089 434.015ZM585.845 438.513C582.577 439.259 579.319 439.993 576.071 440.717L576.505 442.669C579.757 441.945 583.018 441.209 586.29 440.462L585.845 438.513ZM566.357 442.853C563.129 443.553 559.911 444.243 556.704 444.92L557.117 446.877C560.328 446.199 563.55 445.509 566.781 444.807L566.357 442.853ZM546.972 446.948C543.698 447.62 540.436 448.28 537.184 448.928L537.574 450.889C540.83 450.241 544.097 449.58 547.375 448.907L546.972 446.948ZM527.461 450.835C524.225 451.46 521 452.072 517.787 452.672L518.154 454.638C521.371 454.038 524.6 453.424 527.84 452.799L527.461 450.835ZM507.925 454.482C504.65 455.072 501.387 455.649 498.136 456.212L498.478 458.183C501.733 457.618 505 457.041 508.28 456.45L507.925 454.482ZM488.419 457.865C485.126 458.414 481.845 458.949 478.577 459.47L478.892 461.445C482.164 460.923 485.45 460.387 488.748 459.837L488.419 457.865ZM468.725 461.006C465.454 461.504 462.197 461.988 458.953 462.457L459.24 464.437C462.488 463.966 465.751 463.482 469.026 462.983L468.725 461.006ZM449.134 463.842C445.817 464.297 442.515 464.737 439.227 465.161L439.483 467.145C442.776 466.72 446.084 466.279 449.406 465.823L449.134 463.842ZM429.407 466.39C426.121 466.788 422.851 467.17 419.596 467.537L419.82 469.524C423.081 469.157 426.356 468.774 429.647 468.376L429.407 466.39ZM409.642 468.615C406.34 468.958 403.054 469.284 399.785 469.595L399.974 471.586C403.249 471.275 406.541 470.948 409.849 470.604L409.642 468.615ZM389.966 470.482C386.619 470.768 383.29 471.038 379.979 471.289L380.13 473.284C383.448 473.031 386.784 472.762 390.137 472.474L389.966 470.482ZM370.097 471.991C366.798 472.209 363.517 472.409 360.253 472.59L360.365 474.587C363.635 474.405 366.923 474.205 370.229 473.987L370.097 471.991ZM350.25 473.094C346.935 473.243 343.639 473.372 340.363 473.483L340.431 475.482C343.714 475.371 347.017 475.241 350.34 475.092L350.25 473.094ZM330.479 473.759C327.125 473.833 323.793 473.886 320.482 473.919L320.502 475.919C323.821 475.886 327.161 475.833 330.523 475.758L330.479 473.759ZM310.614 473.955C307.279 473.945 303.966 473.914 300.676 473.862L300.644 475.861C303.943 475.914 307.264 475.945 310.609 475.955L310.614 473.955ZM290.715 473.633C287.419 473.534 284.147 473.413 280.898 473.269L280.809 475.267C284.068 475.412 287.35 475.533 290.656 475.632L290.715 473.633ZM270.9 472.749C267.579 472.55 264.283 472.327 261.015 472.079L260.863 474.073C264.143 474.322 267.449 474.546 270.781 474.745L270.9 472.749ZM251.172 471.25C247.831 470.941 244.519 470.604 241.236 470.24L241.016 472.228C244.311 472.593 247.635 472.931 250.987 473.242L251.172 471.25ZM231.475 469.069C228.144 468.638 224.845 468.177 221.578 467.688L221.281 469.666C224.562 470.157 227.875 470.619 231.218 471.052L231.475 469.069ZM211.808 466.123C208.526 465.562 205.278 464.97 202.064 464.348L201.684 466.311C204.912 466.936 208.175 467.531 211.471 468.094L211.808 466.123ZM192.32 462.344C189.088 461.639 185.892 460.902 182.733 460.132L182.259 462.075C185.434 462.849 188.646 463.59 191.894 464.298L192.32 462.344ZM173.059 457.641C169.874 456.775 166.729 455.874 163.624 454.938L163.047 456.853C166.17 457.795 169.333 458.7 172.535 459.571L173.059 457.641ZM154.095 451.913C150.957 450.865 147.862 449.778 144.812 448.653L144.12 450.529C147.19 451.662 150.304 452.755 153.461 453.81L154.095 451.913ZM135.522 445.052C132.454 443.803 129.435 442.512 126.464 441.18L125.646 443.005C128.638 444.347 131.679 445.647 134.768 446.904L135.522 445.052ZM117.467 436.945C114.499 435.479 111.583 433.968 108.72 432.412L107.765 434.169C110.651 435.738 113.59 437.261 116.581 438.738L117.467 436.945ZM100.091 427.488C97.255 425.79 94.4759 424.044 91.7542 422.249L90.6533 423.919C93.3995 425.73 96.2032 427.491 99.0637 429.204L100.091 427.488ZM83.5908 416.596C80.9223 414.655 78.3149 412.664 75.7692 410.621L74.5174 412.18C77.0881 414.244 79.7207 416.255 82.4144 418.214L83.5908 416.596ZM68.1872 404.221C65.7199 402.031 63.3174 399.787 60.9806 397.489L59.5782 398.915C61.9396 401.237 64.3669 403.504 66.8594 405.717L68.1872 404.221ZM54.1098 390.369C51.8852 387.939 49.7281 385.454 47.6392 382.913L46.0943 384.183C48.2059 386.752 50.3862 389.264 52.6346 391.72L54.1098 390.369ZM41.5705 375.113C39.6239 372.467 37.7458 369.765 35.9369 367.007L34.2645 368.104C36.093 370.892 37.9916 373.623 39.9595 376.298L41.5705 375.113ZM30.7357 358.594C29.0901 355.765 27.5124 352.882 26.0033 349.944L24.2242 350.858C25.7492 353.827 27.3437 356.741 29.007 359.599L30.7357 358.594ZM21.7029 341.009C20.3662 338.038 19.0952 335.015 17.8908 331.938L16.0285 332.667C17.2449 335.774 18.5286 338.828 19.879 341.829L21.7029 341.009ZM14.4908 322.588C13.456 319.514 12.4838 316.39 11.5749 313.216L9.65213 313.767C10.5693 316.97 11.5506 320.123 12.5953 323.226L14.4908 322.588ZM9.04405 303.566C8.29284 300.421 7.60057 297.229 6.96778 293.99L5.0049 294.374C5.6429 297.639 6.34103 300.858 7.09876 304.031L9.04405 303.566ZM5.25117 284.152C4.75904 280.958 4.32206 277.721 3.94072 274.44L1.9541 274.671C2.33824 277.976 2.77852 281.237 3.2745 284.456L5.25117 284.152ZM2.96774 264.513C2.70865 261.283 2.50124 258.012 2.34591 254.702L0.348109 254.795C0.50445 258.128 0.713257 261.42 0.974138 264.673L2.96774 264.513ZM2.03853 244.772C2.01286 243.097 2 241.413 2 239.719H0C-1.19209e-07 241.423 0.0129383 243.118 0.038768 244.802L2.03853 244.772ZM2 239.719C2 237.977 2.01175 236.246 2.03519 234.527L0.0353724 234.5C0.0118151 236.228 1.19209e-07 237.968 0 239.719H2ZM2.31531 224.348C2.45499 221 2.64077 217.697 2.87205 214.439L0.877068 214.298C0.644389 217.576 0.457522 220.898 0.317047 224.264L2.31531 224.348ZM3.73204 204.502C4.08244 201.082 4.48516 197.714 4.93944 194.397L2.95793 194.125C2.50052 197.465 2.09512 200.856 1.74245 204.298L3.73204 204.502ZM6.45617 184.597C7.03349 181.262 7.66544 177.98 8.35117 174.752L6.39482 174.337C5.70375 177.59 5.06703 180.896 4.48547 184.256L6.45617 184.597ZM10.6502 164.908C11.4735 161.684 12.3533 158.516 13.2887 155.404L11.3734 154.828C10.4297 157.967 9.54245 161.162 8.71239 164.414L10.6502 164.908ZM16.4228 145.77C17.5395 142.588 18.7179 139.468 19.9567 136.409L18.103 135.659C16.8521 138.747 15.6627 141.897 14.5356 145.108L16.4228 145.77ZM23.9136 127.286C25.3404 124.207 26.8325 121.195 28.3886 118.247L26.62 117.313C25.0476 120.292 23.5401 123.335 22.099 126.445L23.9136 127.286ZM33.248 109.6C34.9806 106.698 36.7798 103.865 38.6442 101.099L36.9857 99.9811C35.1009 102.778 33.2822 105.642 31.5309 108.574L33.248 109.6ZM44.4524 92.9715C46.4719 90.3043 48.5569 87.7045 50.706 85.171L49.1808 83.8772C47.0079 86.4389 44.8998 89.0675 42.8579 91.7643L44.4524 92.9715ZM57.3941 77.7152C59.6882 75.2957 62.0461 72.9421 64.4663 70.6535L63.0921 69.2004C60.6458 71.5137 58.2622 73.8929 55.9428 76.3391L57.3941 77.7152ZM71.9186 63.9758C74.4641 61.8142 77.0706 59.7164 79.7367 57.6813L78.5232 56.0916C75.83 58.1474 73.1964 60.2669 70.624 62.4514L71.9186 63.9758ZM87.8134 51.8312C90.5619 49.9423 93.3672 48.1135 96.2278 46.3438L95.1756 44.6429C92.2882 46.4292 89.456 48.2755 86.6806 50.1829L87.8134 51.8312ZM104.844 41.2837C107.745 39.6667 110.698 38.105 113.702 36.5978L112.805 34.8102C109.776 36.3301 106.797 37.9053 103.87 39.5367L104.844 41.2837ZM122.784 32.2734C125.794 30.9149 128.849 29.6067 131.95 28.3479L131.197 26.4948C128.074 27.763 124.995 29.0812 121.961 30.4505L122.784 32.2734ZM141.385 24.719C144.483 23.5913 147.622 22.5094 150.802 21.4724L150.182 19.571C146.981 20.6148 143.821 21.704 140.701 22.8396L141.385 24.719ZM160.402 18.5124C163.606 17.5799 166.847 16.6901 170.126 15.8422L169.625 13.9059C166.328 14.7588 163.067 15.6539 159.843 16.5921L160.402 18.5124ZM179.809 13.4827C183.071 12.7355 186.367 12.0272 189.696 11.3573L189.301 9.39661C185.955 10.07 182.642 10.7819 179.363 11.5332L179.809 13.4827ZM199.527 9.50586C202.794 8.93194 206.09 8.39287 209.414 7.888L209.114 5.91067C205.775 6.41781 202.463 6.95937 199.181 7.53603L199.527 9.50586ZM219.474 6.47529C222.74 6.05302 226.032 5.66205 229.35 5.30178L229.134 3.31347C225.803 3.67517 222.497 4.06775 219.217 4.4918L219.474 6.47529ZM239.353 4.31452C242.7 4.01671 246.071 3.74866 249.465 3.50977L249.325 1.51471C245.919 1.75444 242.535 2.02346 239.176 2.32239L239.353 4.31452ZM259.397 2.89699C262.729 2.71977 266.082 2.56941 269.456 2.44538L269.382 0.446729C265.998 0.57115 262.634 0.721997 259.291 0.899812L259.397 2.89699ZM279.58 2.15296C282.883 2.08311 286.205 2.03742 289.544 2.0154L289.531 0.0154445C286.182 0.0375224 282.851 0.0833459 279.538 0.153406L279.58 2.15296ZM299.616 2.0199C302.976 2.04465 306.354 2.09241 309.747 2.16268L309.789 0.163111C306.386 0.0926548 303 0.0447751 299.63 0.0199566L299.616 2.0199ZM319.714 2.43179C323.051 2.54258 326.403 2.67431 329.77 2.82653L329.861 0.828571C326.486 0.675993 323.126 0.54395 319.78 0.432891L319.714 2.43179ZM339.909 3.34402C343.213 3.53159 346.529 3.73814 349.858 3.96327L349.993 1.96783C346.657 1.74222 343.333 1.53522 340.022 1.34724L339.909 3.34402ZM359.883 4.69401C363.237 4.9559 366.602 5.23595 369.979 5.53378L370.155 3.54151C366.771 3.24311 363.399 2.9625 360.039 2.70008L359.883 4.69401ZM379.948 6.46092C383.266 6.78523 386.594 7.12608 389.932 7.48308L390.145 5.49443C386.801 5.13678 383.467 4.79532 380.143 4.47041L379.948 6.46092ZM399.975 8.60221C403.297 8.987 406.627 9.38722 409.966 9.80253L410.213 7.81782C406.869 7.40184 403.532 7.00094 400.205 6.6155L399.975 8.60221ZM419.906 11.0795C423.227 11.5197 426.557 11.9743 429.894 12.4429L430.172 10.4624C426.83 9.99302 423.495 9.53772 420.169 9.09684L419.906 11.0795ZM439.9 13.8867C443.192 14.3742 446.491 14.8748 449.796 15.3884L450.103 13.4121C446.793 12.8978 443.49 12.3964 440.193 11.9083L439.9 13.8867ZM459.73 16.9673C463.048 17.5063 466.371 18.0577 469.701 18.6214L470.035 16.6495C466.701 16.0851 463.373 15.5329 460.051 14.9932L459.73 16.9673ZM479.597 20.3298C482.887 20.9086 486.182 21.499 489.482 22.1005L489.841 20.1329C486.537 19.5307 483.238 18.9396 479.943 18.3601L479.597 20.3298ZM499.395 23.9383C502.693 24.5601 505.996 25.1926 509.302 25.8357L509.684 23.8724C506.374 23.2287 503.068 22.5954 499.765 21.9729L499.395 23.9383ZM519.146 27.7785C522.43 28.4363 525.717 29.104 529.008 29.7814L529.411 27.8224C526.117 27.1443 522.826 26.4759 519.538 25.8175L519.146 27.7785ZM538.886 31.8422C542.161 32.5343 545.438 33.2356 548.717 33.9458L549.14 31.9911C545.858 31.2802 542.578 30.5782 539.3 29.8854L538.886 31.8422ZM558.537 36.0981C561.812 36.8242 565.089 37.559 568.366 38.302L568.808 36.3515C565.528 35.6078 562.248 34.8724 558.97 34.1455L558.537 36.0981ZM578.192 40.5533C581.454 41.3085 584.716 42.0716 587.979 42.8423L588.439 40.8959C585.173 40.1245 581.908 39.3607 578.643 38.6048L578.192 40.5533ZM597.768 45.177C601.031 45.9627 604.294 46.7556 607.557 47.5555L608.033 45.6131C604.768 44.8125 601.502 44.0189 598.236 43.2326L597.768 45.177ZM617.329 49.9727C620.583 50.7846 623.837 51.6031 627.089 52.428L627.58 50.4894C624.326 49.6639 621.07 48.8447 617.813 48.0322L617.329 49.9727ZM636.84 54.9216C640.09 55.759 643.337 56.6025 646.583 57.4518L647.089 55.5169C643.841 54.667 640.591 53.8229 637.339 52.9849L636.84 54.9216ZM656.323 60.0194C659.567 60.8808 662.809 61.7477 666.048 62.6199L666.568 60.6887C663.327 59.8159 660.083 58.9484 656.836 58.0863L656.323 60.0194ZM675.757 65.2515C678.997 66.1357 682.234 67.0248 685.467 67.9184L686 65.9907C682.764 65.0965 679.526 64.2068 676.283 63.3221L675.757 65.2515ZM695.177 70.6191C698.41 71.5238 701.638 72.4328 704.862 73.3458L705.407 71.4214C702.181 70.5079 698.951 69.5983 695.716 68.6931L695.177 70.6191ZM714.521 76.0966C717.76 77.0242 720.994 77.9556 724.222 78.8904L724.778 76.9694C721.548 76.034 718.313 75.1021 715.072 74.1739L714.521 76.0966ZM733.895 81.7064C737.114 82.6484 740.327 83.5935 743.534 84.5414L744.101 82.6234C740.893 81.675 737.678 80.7294 734.457 79.7869L733.895 81.7064ZM753.182 87.4071C756.412 88.3714 759.636 89.3383 762.853 90.3075L763.43 88.3925C760.212 87.4229 756.986 86.4555 753.754 85.4907L753.182 87.4071ZM772.482 93.2215C775.684 94.195 778.878 95.1703 782.065 96.1473L782.651 94.2352C779.463 93.2577 776.267 92.2819 773.063 91.308L772.482 93.2215ZM791.735 99.1246C794.953 100.12 798.162 101.116 801.362 102.113L801.957 100.204C798.756 99.2059 795.545 98.2092 792.325 97.2138L791.735 99.1246ZM810.935 105.108C812.526 105.607 814.114 106.106 815.699 106.606L816.301 104.699C814.714 104.199 813.126 103.699 811.534 103.199L810.935 105.108Z" fill="#66B2D9"/>
<g filter="url(#filter0_d)">
<circle cx="827" cy="106.652" r="32" fill="#E7F3F9"/>
</g>
<path fill-rule="evenodd" clip-rule="evenodd" d="M825.726 114.293H819.356V100.281H820.63C820.632 100.956 820.901 101.604 821.378 102.081C821.856 102.559 822.503 102.828 823.178 102.83H828.273C828.948 102.828 829.595 102.559 830.073 102.081C830.55 101.604 830.819 100.957 830.821 100.281H832.094V105.377C832.097 105.713 832.232 106.035 832.471 106.271C832.71 106.508 833.032 106.641 833.368 106.641C833.704 106.641 834.027 106.508 834.265 106.271C834.504 106.035 834.639 105.713 834.642 105.377V100.281C834.64 99.6063 834.371 98.9596 833.893 98.4824C833.416 98.0052 832.769 97.7363 832.094 97.7344H830.477C830.254 97.3472 829.932 97.0257 829.546 96.8021C829.159 96.5786 828.72 96.4609 828.273 96.4609H823.178C822.731 96.461 822.292 96.5787 821.905 96.8022C821.518 97.0258 821.197 97.3473 820.974 97.7344H819.356C818.681 97.7363 818.035 98.0052 817.557 98.4824C817.08 98.9596 816.811 99.6063 816.809 100.281V114.293C816.81 114.968 817.079 115.615 817.557 116.093C818.034 116.571 818.681 116.84 819.356 116.842H825.726C826.063 116.841 826.386 116.706 826.624 116.467C826.863 116.228 826.996 115.905 826.996 115.567C826.996 115.23 826.863 114.906 826.624 114.667C826.386 114.429 826.063 114.294 825.726 114.293ZM823.178 99.0079H828.273V100.281H823.178V99.0079ZM828.273 105.377H823.178C823.01 105.376 822.844 105.409 822.689 105.473C822.534 105.537 822.393 105.63 822.275 105.749C822.156 105.867 822.062 106.008 821.998 106.163C821.933 106.317 821.9 106.483 821.9 106.651C821.9 106.818 821.933 106.984 821.998 107.139C822.062 107.294 822.156 107.435 822.275 107.553C822.393 107.671 822.534 107.765 822.689 107.829C822.844 107.893 823.01 107.925 823.178 107.925H828.273C828.441 107.925 828.607 107.893 828.762 107.829C828.917 107.765 829.057 107.671 829.176 107.553C829.295 107.435 829.389 107.294 829.453 107.139C829.517 106.984 829.55 106.818 829.55 106.651C829.55 106.483 829.517 106.317 829.453 106.163C829.389 106.008 829.295 105.867 829.176 105.749C829.057 105.63 828.917 105.537 828.762 105.473C828.607 105.409 828.441 105.376 828.273 105.377ZM825.726 109.199H823.178C822.84 109.199 822.516 109.333 822.277 109.572C822.039 109.811 821.904 110.135 821.904 110.473C821.904 110.81 822.039 111.134 822.277 111.373C822.516 111.612 822.84 111.746 823.178 111.746H825.726C825.893 111.746 826.058 111.713 826.213 111.649C826.367 111.585 826.508 111.491 826.626 111.373C826.744 111.255 826.838 111.114 826.902 110.96C826.966 110.805 826.999 110.64 826.999 110.473C826.999 110.305 826.966 110.14 826.902 109.985C826.838 109.831 826.744 109.69 826.626 109.572C826.508 109.454 826.367 109.36 826.213 109.296C826.058 109.232 825.893 109.199 825.726 109.199ZM835.916 111.746H834.642V110.473C834.639 110.137 834.504 109.815 834.265 109.578C834.027 109.342 833.704 109.209 833.368 109.209C833.032 109.209 832.71 109.342 832.471 109.578C832.232 109.815 832.097 110.137 832.094 110.473V111.746H830.821C830.653 111.746 830.487 111.778 830.332 111.842C830.177 111.906 830.037 111.999 829.918 112.118C829.799 112.236 829.705 112.377 829.641 112.531C829.577 112.686 829.544 112.852 829.544 113.02C829.544 113.187 829.577 113.353 829.641 113.508C829.705 113.662 829.799 113.803 829.918 113.921C830.037 114.04 830.177 114.133 830.332 114.197C830.487 114.261 830.653 114.293 830.821 114.293H832.094V115.567C832.093 115.736 832.125 115.902 832.188 116.058C832.252 116.214 832.345 116.355 832.464 116.475C832.582 116.594 832.723 116.689 832.878 116.754C833.034 116.818 833.2 116.851 833.368 116.851C833.536 116.851 833.703 116.818 833.858 116.754C834.013 116.689 834.154 116.594 834.273 116.475C834.391 116.355 834.485 116.214 834.548 116.058C834.612 115.902 834.643 115.736 834.642 115.567V114.293H835.916C836.253 114.292 836.576 114.157 836.814 113.919C837.052 113.68 837.186 113.357 837.186 113.02C837.186 112.682 837.052 112.359 836.814 112.12C836.576 111.882 836.253 111.747 835.916 111.746Z" fill="#66B2D9"/>
<g filter="url(#filter1_d)">
<circle cx="273" cy="644.652" r="32" fill="#E7F3F9"/>
</g>
<path d="M267 638.652C267 638.387 267.105 638.133 267.293 637.945C267.48 637.758 267.735 637.652 268 637.652H278C278.265 637.652 278.52 637.758 278.707 637.945C278.895 638.133 279 638.387 279 638.652C279 638.918 278.895 639.172 278.707 639.359C278.52 639.547 278.265 639.652 278 639.652H268C267.735 639.652 267.48 639.547 267.293 639.359C267.105 639.172 267 638.918 267 638.652Z" fill="#66B2D9"/>
<path d="M267 642.652C267 642.387 267.105 642.133 267.293 641.945C267.48 641.758 267.735 641.652 268 641.652H278C278.265 641.652 278.52 641.758 278.707 641.945C278.895 642.133 279 642.387 279 642.652C279 642.918 278.895 643.172 278.707 643.359C278.52 643.547 278.265 643.652 278 643.652H268C267.735 643.652 267.48 643.547 267.293 643.359C267.105 643.172 267 642.918 267 642.652Z" fill="#66B2D9"/>
<path d="M268 645.652C267.735 645.652 267.48 645.758 267.293 645.945C267.105 646.133 267 646.387 267 646.652C267 646.918 267.105 647.172 267.293 647.359C267.48 647.547 267.735 647.652 268 647.652H278C278.265 647.652 278.52 647.547 278.707 647.359C278.895 647.172 279 646.918 279 646.652C279 646.387 278.895 646.133 278.707 645.945C278.52 645.758 278.265 645.652 278 645.652H268Z" fill="#66B2D9"/>
<path d="M267 650.652C267 650.387 267.105 650.133 267.293 649.945C267.48 649.758 267.735 649.652 268 649.652H272C272.265 649.652 272.52 649.758 272.707 649.945C272.895 650.133 273 650.387 273 650.652C273 650.918 272.895 651.172 272.707 651.359C272.52 651.547 272.265 651.652 272 651.652H268C267.735 651.652 267.48 651.547 267.293 651.359C267.105 651.172 267 650.918 267 650.652Z" fill="#66B2D9"/>
<path fill-rule="evenodd" clip-rule="evenodd" d="M263 636.652C263 635.857 263.316 635.094 263.879 634.531C264.441 633.968 265.204 633.652 266 633.652H280C280.796 633.652 281.559 633.968 282.121 634.531C282.684 635.094 283 635.857 283 636.652V652.652C283 653.448 282.684 654.211 282.121 654.774C281.559 655.336 280.796 655.652 280 655.652H266C265.204 655.652 264.441 655.336 263.879 654.774C263.316 654.211 263 653.448 263 652.652V636.652ZM266 635.652H280C280.265 635.652 280.52 635.758 280.707 635.945C280.895 636.133 281 636.387 281 636.652V652.652C281 652.918 280.895 653.172 280.707 653.359C280.52 653.547 280.265 653.652 280 653.652H266C265.735 653.652 265.48 653.547 265.293 653.359C265.105 653.172 265 652.918 265 652.652V636.652C265 636.387 265.105 636.133 265.293 635.945C265.48 635.758 265.735 635.652 266 635.652Z" fill="#66B2D9"/>
<g filter="url(#filter2_d)">
<circle cx="827" cy="1088.65" r="32" fill="#E7F3F9"/>
</g>
<path fill-rule="evenodd" clip-rule="evenodd" d="M834.387 1089.73C835.293 1088.85 835.834 1087.65 835.904 1086.38C835.974 1085.12 835.568 1083.87 834.766 1082.88C833.964 1081.9 832.824 1081.25 831.568 1081.07C830.313 1080.88 829.033 1081.17 827.979 1081.88C827.727 1081.15 827.314 1080.49 826.771 1079.95C826.229 1079.41 825.571 1079 824.846 1078.74C824.121 1078.49 823.349 1078.41 822.587 1078.49C821.825 1078.58 821.093 1078.84 820.445 1079.25C819.797 1079.66 819.251 1080.22 818.846 1080.87C818.442 1081.52 818.19 1082.26 818.11 1083.02C818.03 1083.78 818.123 1084.55 818.383 1085.28C818.643 1086 819.062 1086.65 819.61 1087.19C818.749 1087.77 818.043 1088.56 817.555 1089.48C817.067 1090.41 816.811 1091.43 816.809 1092.47C816.809 1093.37 817.267 1096.3 823.178 1096.3C823.688 1096.3 824.198 1096.27 824.706 1096.22C825.189 1097.39 826.655 1098.84 830.82 1098.84C836.73 1098.84 837.189 1095.91 837.189 1095.02C837.187 1093.98 836.931 1092.95 836.443 1092.03C835.954 1091.11 835.249 1090.32 834.387 1089.73ZM823.178 1081.01C823.682 1081.01 824.174 1081.16 824.593 1081.44C825.012 1081.72 825.338 1082.12 825.531 1082.58C825.724 1083.05 825.774 1083.56 825.676 1084.05C825.577 1084.55 825.334 1085 824.978 1085.36C824.622 1085.72 824.168 1085.96 823.674 1086.06C823.18 1086.15 822.667 1086.1 822.202 1085.91C821.736 1085.72 821.339 1085.39 821.059 1084.97C820.779 1084.55 820.63 1084.06 820.63 1083.56C820.632 1082.88 820.901 1082.24 821.379 1081.76C821.856 1081.28 822.503 1081.01 823.178 1081.01ZM824.591 1093.67C824.122 1093.73 823.65 1093.75 823.178 1093.75C819.355 1093.75 819.355 1092.47 819.355 1092.47C819.355 1091.65 819.624 1090.84 820.12 1090.18C820.616 1089.52 821.314 1089.04 822.108 1088.8C822.903 1088.57 823.75 1088.61 824.524 1088.9C825.298 1089.19 825.957 1089.73 826.4 1090.42C825.495 1091.31 824.867 1092.44 824.591 1093.67ZM830.82 1083.56C831.324 1083.56 831.817 1083.71 832.236 1083.99C832.655 1084.27 832.981 1084.66 833.174 1085.13C833.367 1085.6 833.418 1086.11 833.319 1086.6C833.221 1087.1 832.978 1087.55 832.622 1087.91C832.266 1088.26 831.812 1088.51 831.317 1088.6C830.823 1088.7 830.311 1088.65 829.845 1088.46C829.38 1088.27 828.982 1087.94 828.702 1087.52C828.422 1087.1 828.272 1086.61 828.272 1086.1C828.274 1085.43 828.543 1084.78 829.021 1084.31C829.498 1083.83 830.145 1083.56 830.82 1083.56ZM830.82 1096.3C828.693 1096.3 827.75 1095.9 827.33 1095.56C827.241 1095.5 827.166 1095.42 827.109 1095.32C827.052 1095.23 827.015 1095.13 826.999 1095.02C826.998 1094.25 827.233 1093.49 827.672 1092.86C828.111 1092.22 828.734 1091.73 829.457 1091.46C829.891 1091.29 830.354 1091.2 830.82 1091.2C831.322 1091.2 831.82 1091.3 832.284 1091.49C832.748 1091.68 833.169 1091.96 833.524 1092.32C833.879 1092.67 834.16 1093.09 834.352 1093.56C834.544 1094.02 834.642 1094.52 834.642 1095.02C834.642 1095.02 834.642 1096.3 830.82 1096.3Z" fill="#66B2D9"/>
<defs>
<filter id="filter0_d" x="788" y="71.6523" width="94" height="94" filterUnits="userSpaceOnUse" color-interpolation-filters="sRGB">
<feFlood flood-opacity="0" result="BackgroundImageFix"/>
<feColorMatrix in="SourceAlpha" type="matrix" values="0 0 0 0 0 0 0 0 0 0 0 0 0 0 0 0 0 0 127 0" result="hardAlpha"/>
<feMorphology radius="7" operator="erode" in="SourceAlpha" result="effect1_dropShadow"/>
<feOffset dx="8" dy="12"/>
<feGaussianBlur stdDeviation="11"/>
<feColorMatrix type="matrix" values="0 0 0 0 0 0 0 0 0 0 0 0 0 0 0 0 0 0 0.1 0"/>
<feBlend mode="normal" in2="BackgroundImageFix" result="effect1_dropShadow"/>
<feBlend mode="normal" in="SourceGraphic" in2="effect1_dropShadow" result="shape"/>
</filter>
<filter id="filter1_d" x="234" y="609.652" width="94" height="94" filterUnits="userSpaceOnUse" color-interpolation-filters="sRGB">
<feFlood flood-opacity="0" result="BackgroundImageFix"/>
<feColorMatrix in="SourceAlpha" type="matrix" values="0 0 0 0 0 0 0 0 0 0 0 0 0 0 0 0 0 0 127 0" result="hardAlpha"/>
<feMorphology radius="7" operator="erode" in="SourceAlpha" result="effect1_dropShadow"/>
<feOffset dx="8" dy="12"/>
<feGaussianBlur stdDeviation="11"/>
<feColorMatrix type="matrix" values="0 0 0 0 0 0 0 0 0 0 0 0 0 0 0 0 0 0 0.1 0"/>
<feBlend mode="normal" in2="BackgroundImageFix" result="effect1_dropShadow"/>
<feBlend mode="normal" in="SourceGraphic" in2="effect1_dropShadow" result="shape"/>
</filter>
<filter id="filter2_d" x="788" y="1053.65" width="94" height="94" filterUnits="userSpaceOnUse" color-interpolation-filters="sRGB">
<feFlood flood-opacity="0" result="BackgroundImageFix"/>
<feColorMatrix in="SourceAlpha" type="matrix" values="0 0 0 0 0 0 0 0 0 0 0 0 0 0 0 0 0 0 127 0" result="hardAlpha"/>
<feMorphology radius="7" operator="erode" in="SourceAlpha" result="effect1_dropShadow"/>
<feOffset dx="8" dy="12"/>
<feGaussianBlur stdDeviation="11"/>
<feColorMatrix type="matrix" values="0 0 0 0 0 0 0 0 0 0 0 0 0 0 0 0 0 0 0.1 0"/>
<feBlend mode="normal" in2="BackgroundImageFix" result="effect1_dropShadow"/>
<feBlend mode="normal" in="SourceGraphic" in2="effect1_dropShadow" result="shape"/>
</filter>
</defs>
</svg>
