<svg width="482" height="411" viewBox="0 0 482 411" fill="none" xmlns="http://www.w3.org/2000/svg">
<path d="M13.3987 207.109C14.1273 166.392 34.3456 125.877 61.9002 89.4313C89.0649 52.8067 123.387 20.6412 160.824 26.47C198.154 32.0145 238.315 75.6589 284.55 83.3959C330.679 90.8485 383.272 62.5723 407.662 74.2191C432.051 85.8659 427.952 137.541 433.999 179.947C439.94 222.067 455.85 255.308 458.403 290.922C460.672 326.642 449.975 364.914 421.777 379.596C393.295 394.385 347.88 385.372 312.833 387.716C277.396 389.88 252.789 402.905 223.591 407.929C194.572 412.562 161.068 409.479 131.398 394.941C101.727 380.403 75.501 354.231 53.1656 321.113C31.1146 287.889 12.2802 247.646 13.3987 207.109Z" fill="#E7F3F9"/>
<g clip-path="url(#clip0)">
<path d="M312.749 75.6578C312.749 75.6578 313.72 76.7735 312.057 78.9323C310.395 81.0911 311.737 85.7754 314.895 85.8947C318.054 86.0141 319.585 87.3414 318.824 89.0899C318.062 90.8384 317.147 94.9931 320.587 94.3614C324.027 93.7297 325.114 95.1037 324.505 96.1597C323.896 97.2158 326.038 94.0596 326.038 94.0596C326.038 94.0596 327.955 96.9249 330.307 94.9191C332.66 92.9134 333.595 74.7317 328.799 74.4235C324.003 74.1154 312.749 75.6578 312.749 75.6578Z" fill="#2F2E41"/>
<path d="M337.062 162.12L338.155 169.797H343.073L341.434 161.023L337.062 162.12Z" fill="#9F616A"/>
<path d="M343.62 165.137C343.62 165.137 350.177 171.168 348.538 171.717C346.898 172.265 340.888 178.845 339.795 179.393C338.817 179.884 328.319 183.232 329.959 179.393C331.598 175.555 335.423 173.362 335.423 173.362L336.516 166.782L343.62 165.137Z" fill="#F2F2F2"/>
<path opacity="0.1" d="M343.62 165.137C343.62 165.137 350.177 171.168 348.538 171.717C346.898 172.265 340.888 178.845 339.795 179.393C338.817 179.884 328.319 183.232 329.959 179.393C331.598 175.555 335.423 173.362 335.423 173.362L336.516 166.782L343.62 165.137Z" fill="black"/>
<path d="M343.621 156.362L344.714 164.039H349.632L347.993 155.266L343.621 156.362Z" fill="#9F616A"/>
<path d="M323.07 135.986L330.232 112.223C330.232 112.223 318.21 101.256 326.407 97.9663C334.604 94.6763 336.79 111.126 336.79 111.126L334.057 139.639H323.128L323.07 135.986Z" fill="#FFB8B8"/>
<path d="M339.795 118.527C339.795 118.527 325.672 136.704 327.815 139.405C329.959 142.106 333.784 158.556 333.784 158.556C333.784 158.556 333.237 165.136 335.423 165.136C337.609 165.136 343.074 164.039 343.074 162.394C343.074 160.749 338.155 139.912 338.155 139.912L352.363 121.269L339.795 118.527Z" fill="#3B9DCE"/>
<path d="M340.89 119.626L355.098 111.949C355.098 111.949 364.934 116.884 362.201 121.271C359.469 125.658 346.901 137.172 346.901 137.172C346.901 137.172 350.726 155.816 350.18 156.364C349.633 156.912 343.622 159.106 341.983 158.557C340.343 158.009 331.6 136.624 333.786 135.527C335.972 134.431 343.076 122.916 343.076 122.916L340.89 119.626Z" fill="#3B9DCE"/>
<path d="M302.09 320.864C302.09 320.864 311.926 326.895 313.019 326.895C314.112 326.895 328.866 330.734 322.309 333.475C315.751 336.217 290.615 332.379 291.161 330.734C291.708 329.089 291.161 319.219 292.254 319.219C293.347 319.219 302.09 320.864 302.09 320.864Z" fill="#2F2E41"/>
<path d="M313.02 328.54C313.02 328.54 322.856 334.571 323.949 334.571C325.042 334.571 339.796 338.41 333.238 341.151C326.681 343.893 301.544 340.055 302.091 338.41C302.637 336.765 302.091 326.895 303.184 326.895C304.277 326.895 313.02 328.54 313.02 328.54Z" fill="#2F2E41"/>
<path d="M302.638 212.295C302.638 212.295 304.277 220.52 307.009 226.551C309.741 232.583 306.463 261.096 304.823 265.483C303.184 269.87 287.337 321.961 292.255 322.51C297.173 323.058 307.009 322.51 307.009 322.51L322.856 272.611L320.124 205.715L302.638 212.295Z" fill="#575A88"/>
<path opacity="0.1" d="M302.638 212.295C302.638 212.295 304.277 220.52 307.009 226.551C309.741 232.583 306.463 261.096 304.823 265.483C303.184 269.87 287.337 321.961 292.255 322.51C297.173 323.058 307.009 322.51 307.009 322.51L322.856 272.611L320.124 205.715L302.638 212.295Z" fill="black"/>
<path d="M305.916 212.842C305.916 212.842 308.102 227.647 313.02 230.937C317.938 234.227 316.298 237.517 316.298 237.517L314.113 266.578C314.113 266.578 292.801 319.218 299.359 325.798C305.916 332.378 311.927 329.637 314.659 329.088C317.391 328.54 322.309 317.025 319.577 313.735C316.845 310.445 325.042 290.705 327.227 287.415C329.413 284.125 327.227 279.738 329.96 278.642C332.692 277.545 338.703 270.417 338.703 265.482C338.703 260.547 346.353 207.907 341.435 204.617C336.517 201.327 304.993 211.407 304.993 211.407L305.916 212.842Z" fill="#575A88"/>
<path d="M295.534 136.076C302.173 136.076 307.555 130.675 307.555 124.013C307.555 117.35 302.173 111.949 295.534 111.949C288.894 111.949 283.512 117.35 283.512 124.013C283.512 130.675 288.894 136.076 295.534 136.076Z" fill="#FFB8B8"/>
<path d="M322.856 90.0134C328.288 90.0134 332.692 85.5944 332.692 80.1434C332.692 74.6924 328.288 70.2734 322.856 70.2734C317.423 70.2734 313.02 74.6924 313.02 80.1434C313.02 85.5944 317.423 90.0134 322.856 90.0134Z" fill="#9F616A"/>
<path d="M303.729 124.012C303.729 124.012 310.287 136.075 313.565 136.075C316.844 136.075 300.451 148.687 300.451 148.687C300.451 148.687 294.986 132.785 293.893 132.237C292.8 131.688 303.729 124.012 303.729 124.012Z" fill="#FFB8B8"/>
<path d="M305.914 134.977C305.914 134.977 291.706 139.912 292.253 141.557C292.799 143.202 288.428 147.041 288.428 148.686C288.428 150.331 287.335 165.136 293.892 177.199C300.45 189.262 310.832 198.036 305.914 203.519C300.996 209.002 293.346 218.324 301.542 218.324C309.739 218.324 322.854 206.261 334.876 210.647C346.898 215.034 344.165 198.584 344.165 198.584C344.165 198.584 345.805 185.972 342.526 182.134C339.247 178.296 327.772 150.879 327.772 147.589C327.772 144.299 316.843 131.688 314.111 131.688C311.378 131.688 305.914 134.977 305.914 134.977Z" fill="#8985A8"/>
<path d="M325.586 86.1762C325.586 86.1762 330.036 94.6656 330.27 96.1784C330.504 97.6911 338.154 86.1762 338.154 86.1762L329.411 80.1445L325.586 86.1762Z" fill="#9F616A"/>
<path d="M327.226 92.7567L336.516 82.8867L347.445 87.8217C347.445 87.8217 357.637 110.303 358.279 111.948C358.92 113.593 341.98 121.27 340.341 121.27C338.701 121.27 327.226 104.272 327.226 104.272C327.226 104.272 324.494 96.0467 327.226 92.7567Z" fill="#F2F2F2"/>
<path d="M322.855 105.918V115.788H329.413L327.256 105.918H322.855Z" fill="#9F616A"/>
<path d="M326.596 113.321C325.767 113.309 324.955 113.552 324.267 114.016C323.579 114.48 323.049 115.143 322.746 115.917C322.319 117.076 322.464 118.295 324.494 118.804C328.865 119.901 329.412 118.804 329.412 118.804C329.412 118.804 337.001 117.707 335.392 115.514C333.783 113.321 329.412 113.321 329.412 113.321H326.596Z" fill="#9F616A"/>
<path d="M350.178 160.75C350.178 160.75 356.736 166.782 355.096 167.33C353.457 167.878 347.446 174.458 346.353 175.007C345.376 175.497 334.878 178.845 336.517 175.007C338.157 171.168 341.982 168.975 341.982 168.975L343.075 162.395L350.178 160.75Z" fill="#F2F2F2"/>
<path d="M291.251 114.726C292.003 114.283 292.892 113.733 292.913 112.858C292.894 112.537 292.781 112.228 292.589 111.97C292.397 111.712 292.134 111.516 291.833 111.406C291.226 111.196 290.585 111.109 289.944 111.151C289.699 111.138 289.453 111.163 289.214 111.223C288.592 111.416 288.233 112.05 287.743 112.48C287.031 113.105 286.051 113.289 285.135 113.527C283.601 113.927 282.13 114.538 280.764 115.345C280.494 115.482 280.258 115.677 280.072 115.916C279.857 116.357 279.762 116.846 279.794 117.335C279.671 119.196 278.559 120.815 277.73 122.484C276.9 124.152 276.355 126.23 277.329 127.818C277.715 128.312 278.076 128.826 278.409 129.357C279.1 130.801 278.238 132.578 278.737 134.099C278.96 134.697 279.318 135.236 279.783 135.673C280.743 136.642 281.925 137.361 283.226 137.765C284.468 138.148 286.009 138.404 286.495 139.613C286.704 140.132 286.661 140.743 286.955 141.218C287.32 141.806 288.072 141.996 288.751 142.121C289.513 142.296 290.297 142.353 291.077 142.29C291.467 142.257 291.845 142.144 292.19 141.958C292.535 141.773 292.839 141.519 293.083 141.213C293.304 140.78 293.576 140.376 293.896 140.011C294.687 139.347 295.889 139.871 296.905 139.695C297.317 139.617 297.698 139.423 298.003 139.135C298.309 138.848 298.526 138.478 298.629 138.071C298.657 137.637 298.777 137.214 298.979 136.83C299.611 136.019 301.271 136.591 301.688 135.652C301.958 135.041 301.392 134.396 300.844 134.016C299.951 133.396 298.953 132.919 298.152 132.184C297.351 131.448 296.758 130.347 297.009 129.287C297.385 127.697 299.454 126.822 299.522 125.189C299.562 124.254 298.892 123.433 298.142 122.876C297.392 122.319 296.523 121.919 295.853 121.268C295.363 120.792 294.994 120.195 294.461 119.767C293.498 118.995 292.18 118.901 290.953 118.775C290.295 118.707 287.671 118.402 287.774 117.396C287.86 116.561 290.583 115.118 291.251 114.726Z" fill="#2F2E41"/>
<path d="M327.225 92.207C327.225 92.207 321.214 94.4004 321.214 97.142C321.214 99.8837 318.482 108.657 321.214 108.657C323.947 108.657 329.411 106.552 329.411 106.552L327.225 92.207Z" fill="#F2F2F2"/>
<path d="M325.589 131.689C325.589 131.689 341.436 126.206 341.982 126.206C342.529 126.206 350.179 121.819 349.633 120.174L347.447 106.466C347.447 106.466 338.704 88.3711 344.715 88.3711C350.726 88.3711 354.004 102.628 354.004 102.628C354.004 102.628 367.119 127.303 360.015 132.786C352.911 138.269 323.403 148.139 321.764 146.494C320.124 144.849 325.589 131.689 325.589 131.689Z" fill="#FFB8B8"/>
<path d="M340.886 96.0485L344.575 99.6153L339.793 104.273C339.793 104.273 333.236 101.532 333.782 103.177C334.329 104.822 337.607 109.757 339.793 109.757C341.979 109.757 353.355 102.628 353.405 100.435C353.454 98.2418 346.351 90.5652 344.711 90.0168C343.072 89.4685 340.886 96.0485 340.886 96.0485Z" fill="#9F616A"/>
<path d="M333.953 92.2248C333.953 92.2248 341.982 99.3369 343.075 99.3369C344.167 99.3369 346.155 88.6512 346.155 88.6512C346.155 88.6512 339.677 84.4159 337.278 85.5706C334.878 86.7253 333.953 92.2248 333.953 92.2248Z" fill="#F2F2F2"/>
<path d="M305.914 138.266C305.914 138.266 305.914 130.59 322.307 130.59H329.411L326.133 148.685L315.204 151.975L305.914 138.266Z" fill="#8985A8"/>
<path d="M341.723 76.1447C340.116 76.1369 338.511 76.0376 336.916 75.8472C335.663 72.8089 334.067 70.2595 332.341 69.309C331.116 68.2089 329.226 67.4095 327.743 66.7774C324.102 65.2253 318.041 66.1934 317.687 67.9587C310.522 71.3938 312.333 77.4266 312.333 77.4266C313.446 79.7879 315.944 78.7414 318.062 77.672C318.603 79.3837 319.881 80.8363 321.711 80.9055C325.21 81.0377 326.906 82.5081 326.063 84.4451C325.219 86.3821 324.206 90.9847 328.016 90.2848C331.826 89.585 333.031 91.1072 332.356 92.277C331.681 93.4469 334.055 89.9505 334.055 89.9505C334.055 89.9505 336.178 93.1246 338.784 90.9027C339.048 90.648 339.236 90.3249 339.327 89.9694C340.539 90.4928 341.499 90.6914 342.044 90.4467C345.166 89.0453 343.227 85.7543 343.227 85.7543C343.227 85.7543 347.394 85.1128 346.052 85.2192C344.709 85.3255 343.859 83.5789 346.132 80.4309C348.404 77.2828 343.828 76.2161 341.723 76.1447Z" fill="#2F2E41"/>
<path d="M320.583 73.6757L319.027 73.1562L317.474 77.8388L319.03 78.3582L320.583 73.6757Z" fill="#3B9DCE"/>
<path d="M135.459 115.602C135.459 115.602 134.807 117.783 138.503 119.747C142.199 121.71 143.286 129.128 138.938 131.309C134.59 133.491 133.285 136.327 135.459 138.291C137.634 140.254 141.547 145.49 136.329 146.799C131.111 148.108 130.459 150.726 131.981 151.817C133.503 152.908 128.502 149.854 128.502 149.854C128.502 149.854 127.632 155.09 123.067 153.781C118.501 152.472 105.673 127.601 112.196 124.11C118.718 120.619 135.459 115.602 135.459 115.602Z" fill="#2F2E41"/>
<path d="M118.612 300.559L120.025 313.797L113.9 317.579L108.246 316.634L111.073 300.559H118.612Z" fill="#9F616A"/>
<path d="M123.326 141.699C130.612 141.699 136.518 135.772 136.518 128.461C136.518 121.15 130.612 115.223 123.326 115.223C116.039 115.223 110.133 121.15 110.133 128.461C110.133 135.772 116.039 141.699 123.326 141.699Z" fill="#9F616A"/>
<path d="M127.802 134.841C127.802 134.841 128.98 154.935 130.393 154.935C131.807 154.935 113.902 153.99 113.902 153.99C113.902 153.99 121.441 140.751 117.672 136.496C113.902 132.241 127.802 134.841 127.802 134.841Z" fill="#9F616A"/>
<path d="M108.246 240.984L114.371 264.624L109.659 304.812L120.497 303.866L124.737 240.984H108.246Z" fill="#2F2E41"/>
<path opacity="0.2" d="M108.246 240.984L114.371 264.624L109.659 304.812L120.497 303.866L124.737 240.984H108.246Z" fill="black"/>
<path d="M117.67 311.433C117.67 311.433 118.141 308.596 122.853 311.433C127.565 314.269 147.354 323.253 136.988 325.144C126.622 327.035 105.42 322.78 105.42 321.361C105.42 319.943 104.948 310.96 106.833 311.905C108.718 312.851 114.843 318.997 117.67 311.433Z" fill="#2F2E41"/>
<path d="M111.545 308.122C111.545 308.122 104.006 319.942 103.535 323.252C103.064 326.562 95.9961 315.687 95.9961 315.687L102.593 303.395L111.545 308.122Z" fill="#9F616A"/>
<path d="M136.519 242.875L128.038 271.243C128.038 271.243 112.96 311.431 112.018 310.958C111.076 310.485 99.7675 307.648 99.2963 306.23C98.8251 304.812 113.431 266.515 113.431 266.515L115.316 241.93L136.519 242.875Z" fill="#2F2E41"/>
<path d="M94.5822 313.796C95.8687 313.707 97.1507 314.024 98.2489 314.702C99.3472 315.38 100.207 316.386 100.707 317.578C102.592 321.833 104.948 322.306 105.419 322.779C105.89 323.252 104.006 333.181 105.419 334.126C106.833 335.072 108.246 345.001 103.534 345.001C98.8227 345.001 91.284 339.8 91.7551 338.854C92.2263 337.909 92.2263 331.289 90.8128 328.453C89.3993 325.616 87.0434 320.888 90.8128 318.051C94.5822 315.214 94.5822 313.796 94.5822 313.796Z" fill="#2F2E41"/>
<path d="M139.345 198.907L140.287 207.417C140.287 207.417 147.354 214.509 149.71 223.019C152.066 231.53 171.384 245.714 165.73 247.605C160.076 249.496 153.48 250.442 136.989 247.605C120.498 244.768 94.5832 250.914 94.5832 235.312C94.5832 235.312 91.285 231.057 88.9292 237.203C87.2697 241.402 85.3822 245.505 83.2751 249.496C83.2751 249.496 77.621 239.567 79.5057 235.312C81.3904 231.057 79.5057 231.53 81.8616 226.802C84.2174 222.074 95.9967 204.58 100.708 203.635C105.42 202.689 114.372 190.397 113.901 188.978C113.43 187.56 139.345 198.907 139.345 198.907Z" fill="#3B9DCE"/>
<path d="M113.901 145.953C113.901 145.953 133.219 150.208 134.161 153.045C134.692 154.641 137.16 157.583 139.218 159.852C142.692 163.625 145.002 168.328 145.868 173.392C146.359 176.408 144.294 179.121 143.349 182.595C140.522 192.996 138.402 190.396 141.229 197.961C144.056 205.525 127.094 208.362 120.498 205.053C113.901 201.743 106.598 182.122 106.598 179.758C106.598 177.394 100.237 150.681 105.42 148.79C110.603 146.899 113.901 145.953 113.901 145.953Z" fill="#575A88"/>
<path d="M140.756 168.648L146.41 193.707L165.022 201.981C165.022 201.981 179.157 198.671 179.628 203.872C179.936 207.267 163.608 208.6 163.608 208.6L136.516 197.962L130.391 174.795L140.756 168.648Z" fill="#9F616A"/>
<path d="M134.16 159.191C134.16 159.191 145.94 166.283 143.113 170.066C140.286 173.848 133.218 179.994 131.333 179.994C129.449 179.994 128.035 168.647 128.035 165.338C128.035 162.028 134.16 159.191 134.16 159.191Z" fill="#575A88"/>
<path d="M122.375 111.27C122.375 111.27 121.653 113.686 125.747 115.862C129.842 118.037 131.046 126.254 126.229 128.671C121.412 131.088 119.967 134.229 122.375 136.405C124.784 138.58 129.119 144.38 123.339 145.83C117.558 147.28 116.836 150.181 118.522 151.389C120.208 152.597 114.668 149.214 114.668 149.214C114.668 149.214 113.705 155.014 108.647 153.564C103.589 152.114 98.5423 125.755 104.18 118.965C109.423 112.653 122.375 111.27 122.375 111.27Z" fill="#2F2E41"/>
<path d="M123.915 108.78C123.914 105.239 113.357 107.783 108.831 112.727C105.696 116.15 100.936 121.301 104.925 124.931C108.914 128.562 98.0871 133.321 95.1833 134.764C92.2795 136.207 86.5462 140.62 91.723 143.58C96.8998 146.54 96.8163 149.529 94.8681 150.236C92.9198 150.944 99.1634 149.184 99.1634 149.184C99.1634 149.184 98.5327 155.03 103.793 155.003C109.053 154.975 124.144 125.966 120.539 117.903C117.187 110.406 123.915 108.78 123.915 108.78Z" fill="#2F2E41"/>
<path d="M121.629 108.006C135.746 107.153 137.163 117.816 137.163 117.816C137.065 123.987 127.3 120.98 124.587 121.9C121.315 119.538 115.007 115.068 110.496 111.879C113.771 109.565 117.629 108.222 121.629 108.006Z" fill="#2F2E41"/>
<path d="M231.499 231.625H226.984V337.326H231.499V231.625Z" fill="#381E1D"/>
<path d="M226.984 231.627C226.984 231.627 234.659 221.963 240.979 234.496C240.979 234.496 237.97 240.083 237.067 237.365C236.164 234.647 234.001 230.583 231.471 232.993" fill="#381E1D"/>
<path d="M226.305 213.164C226.305 213.164 237.661 224.381 232.069 233.855C231.896 234.148 231.658 234.398 231.374 234.585C231.091 234.772 230.768 234.892 230.431 234.935C230.095 234.979 229.752 234.944 229.431 234.835C229.109 234.725 228.817 234.544 228.576 234.304C226.648 232.391 223.6 227.639 219.855 215.882L226.305 213.164Z" fill="#FDA57D"/>
<path opacity="0.1" d="M218.332 154.086C218.332 154.086 230.07 157.71 227.812 171.904C225.555 186.098 226.458 196.064 226.458 196.064L229.468 214.185L224.05 221.584C224.05 221.584 214.72 212.222 211.56 202.708C208.4 193.195 208.701 155.596 218.332 154.086Z" fill="black"/>
<path d="M218.18 153.934C218.18 153.934 229.917 157.558 227.66 171.752C225.403 185.946 226.306 195.912 226.306 195.912L229.315 214.032L223.898 221.431C223.898 221.431 214.568 212.069 211.408 202.556C208.248 193.043 208.549 155.444 218.18 153.934Z" fill="#3B9DCE"/>
<path d="M204.416 315.57L202.492 330.029C202.492 330.029 207.432 332.058 208.912 331.599C210.392 331.14 212.987 333.006 212.987 333.006C212.987 333.006 224.024 336.505 226.192 333.361C228.359 330.217 223.443 329.255 219.454 326.885C215.465 324.515 213.778 315.367 213.778 315.367L204.416 315.57Z" fill="black"/>
<path d="M225.479 213.504V266.959L215.247 317.997H204.412L206.067 269.073C206.067 269.073 194.781 229.51 199.747 214.712L225.479 213.504Z" fill="#333333"/>
<path d="M217.133 220.25C217.133 220.25 232.91 222.491 234.03 233.445C234.064 233.784 234.021 234.126 233.904 234.446C233.787 234.766 233.599 235.055 233.354 235.29C233.108 235.526 232.813 235.703 232.49 235.807C232.166 235.91 231.823 235.939 231.487 235.89C228.804 235.502 223.537 233.501 213.559 226.284L217.133 220.25Z" fill="#FDA57D"/>
<path d="M219.085 151.519C219.085 151.519 216.527 155.898 217.58 163.448C217.58 163.448 202.457 162.165 202.908 153.407C202.908 153.407 210.282 151.595 212.013 144.875L219.085 151.519Z" fill="#FDA57D"/>
<path d="M193.881 318.742L191.957 333.201C191.957 333.201 196.897 335.23 198.377 334.771C199.857 334.312 202.451 336.178 202.451 336.178C202.451 336.178 213.489 339.677 215.657 336.533C217.824 333.389 212.908 332.427 208.919 330.057C204.93 327.687 203.243 318.539 203.243 318.539L193.881 318.742Z" fill="black"/>
<path opacity="0.1" d="M214.116 217.656V271.111L203.883 322.149H193.049L194.704 273.225C194.704 273.225 183.418 233.662 188.384 218.864L214.116 217.656Z" fill="black"/>
<path d="M213.667 217.656V271.111L203.434 322.149H192.599L194.255 273.225C194.255 273.225 182.968 233.662 187.934 218.864L213.667 217.656Z" fill="#333333"/>
<path opacity="0.1" d="M208.251 154.235C208.251 154.235 198.77 148.044 192.45 166.466C186.13 184.888 188.688 218.863 188.688 218.863C188.688 218.863 215.624 227.622 225.255 215.39V197.119C225.255 197.119 230.371 176.281 223.148 158.161C223.148 158.161 216.828 160.728 208.251 154.235Z" fill="black"/>
<path opacity="0.1" d="M207.946 154.688C207.946 154.688 198.465 148.497 192.145 166.919C185.825 185.341 188.383 219.317 188.383 219.317C188.383 219.317 215.32 228.075 224.95 215.843V197.572C224.95 197.572 230.067 176.734 222.844 158.614C222.844 158.614 216.523 161.181 207.946 154.688Z" fill="black"/>
<path d="M207.946 154.235C207.946 154.235 198.465 148.044 192.145 166.466C185.825 184.888 188.383 218.863 188.383 218.863C188.383 218.863 215.32 227.622 224.95 215.39V197.119C224.95 197.119 230.067 176.281 222.844 158.161C222.844 158.161 216.523 160.728 207.946 154.235Z" fill="#3B9DCE"/>
<path opacity="0.1" d="M198.316 163.449C198.316 163.449 210.054 167.073 207.797 181.267C205.539 195.462 206.442 205.428 206.442 205.428L221.491 220.679L216.073 228.078C216.073 228.078 194.705 221.585 191.545 212.072C188.384 202.559 188.685 164.959 198.316 163.449Z" fill="black"/>
<path opacity="0.1" d="M197.562 163.902C197.562 163.902 209.3 167.526 207.043 181.721C204.786 195.915 205.688 205.881 205.688 205.881L220.737 221.132L215.319 228.531C215.319 228.531 193.951 222.038 190.791 212.525C187.631 203.012 187.932 165.412 197.562 163.902Z" fill="black"/>
<path d="M197.867 163.449C197.867 163.449 209.605 167.073 207.348 181.267C205.09 195.462 205.993 205.428 205.993 205.428L221.041 220.679L215.624 228.078C215.624 228.078 194.256 221.585 191.095 212.072C187.935 202.559 188.236 164.959 197.867 163.449Z" fill="#3B9DCE"/>
<path opacity="0.1" d="M211.785 145.402L218.858 152.046C218.742 152.255 218.637 152.47 218.543 152.69C217.517 152.965 216.459 153.104 215.397 153.103C212.696 153.103 210.345 151.727 208.324 150.234C209.737 148.954 210.948 147.713 211.785 145.402Z" fill="black"/>
<path d="M213.591 146.911C220.323 146.911 225.781 141.435 225.781 134.68C225.781 127.925 220.323 122.449 213.591 122.449C206.86 122.449 201.402 127.925 201.402 134.68C201.402 141.435 206.86 146.911 213.591 146.911Z" fill="#E0E0E0"/>
<path d="M215.623 152.576C222.355 152.576 227.812 147.099 227.812 140.344C227.812 133.589 222.355 128.113 215.623 128.113C208.891 128.113 203.434 133.589 203.434 140.344C203.434 147.099 208.891 152.576 215.623 152.576Z" fill="#FDA57D"/>
<path d="M203.508 134.684C203.508 134.684 198.943 146.677 208.599 150.344C209.403 149.932 210.098 149.335 210.628 148.601C211.157 147.867 211.505 147.018 211.644 146.123C211.783 145.228 211.709 144.312 211.427 143.452C211.146 142.591 210.665 141.809 210.024 141.171L203.508 134.684Z" fill="#E0E0E0"/>
<path d="M225.483 131.997C225.483 131.997 229.691 133.022 222.317 135.589C221.103 135.997 219.986 136.652 219.036 137.513C218.085 138.373 217.321 139.421 216.791 140.59C216.461 141.304 215.989 141.941 215.403 142.464C214.818 142.987 214.132 143.384 213.388 143.63C212.643 143.876 211.857 143.967 211.076 143.896C210.295 143.825 209.538 143.595 208.849 143.218L206.516 141.931L202.453 132.418L207.269 126.83L215.545 125.773L225.483 131.997Z" fill="#E0E0E0"/>
<path d="M212.387 146.459C213.052 146.459 213.591 145.512 213.591 144.344C213.591 143.177 213.052 142.23 212.387 142.23C211.723 142.23 211.184 143.177 211.184 144.344C211.184 145.512 211.723 146.459 212.387 146.459Z" fill="#FDA57D"/>
<path d="M208.25 154.238C208.25 154.238 216.451 167.149 221.116 167.149C225.781 167.149 217.845 155.043 217.845 155.043L217.655 158.391L208.25 154.238Z" fill="#333333"/>
<path d="M255.492 267.079C228.237 267.079 200.009 264.3 171.106 258.753C93.3753 243.837 51.3725 214.905 49.0733 213.662L42.1445 202.1L42.1463 202.101V202.1C42.7949 202.45 97.9922 231.911 173.835 246.406C243.435 259.707 345.274 262.762 435.187 201.777L433.211 215.703C391.842 243.763 353.717 257.804 302.083 264.244C286.625 266.152 271.065 267.099 255.492 267.079Z" fill="#F55F44"/>
<path d="M53.7786 192.68H44.6875V321.697H53.7786V192.68Z" fill="#E0E0E0"/>
<path d="M41.7235 317.461H56.7446C59.0582 317.461 61.2771 318.383 62.9131 320.025C64.549 321.666 65.4681 323.893 65.4681 326.214V333.751H33V326.214C33 323.893 33.9191 321.666 35.5551 320.025C37.191 318.383 39.4099 317.461 41.7235 317.461Z" fill="#E0E0E0"/>
<path opacity="0.1" d="M49.2356 207.667C54.2565 207.667 58.3267 203.582 58.3267 198.544C58.3267 193.506 54.2565 189.422 49.2356 189.422C44.2147 189.422 40.1445 193.506 40.1445 198.544C40.1445 203.582 44.2147 207.667 49.2356 207.667Z" fill="black"/>
<path d="M49.2356 207.014C54.2565 207.014 58.3267 202.93 58.3267 197.892C58.3267 192.854 54.2565 188.77 49.2356 188.77C44.2147 188.77 40.1445 192.854 40.1445 197.892C40.1445 202.93 44.2147 207.014 49.2356 207.014Z" fill="#E0E0E0"/>
<path opacity="0.1" d="M44.6875 318.109C44.6875 318.109 50.5318 320.061 53.7786 318.11L44.6875 318.109Z" fill="black"/>
<path d="M436.31 192.68H427.219V321.697H436.31V192.68Z" fill="#E0E0E0"/>
<path d="M424.255 317.461H439.276C441.589 317.461 443.808 318.383 445.444 320.025C447.08 321.666 447.999 323.893 447.999 326.214V333.751H415.531V326.214C415.531 323.893 416.45 321.666 418.086 320.025C419.722 318.383 421.941 317.461 424.255 317.461Z" fill="#E0E0E0"/>
<path opacity="0.1" d="M431.767 207.667C436.788 207.667 440.858 203.582 440.858 198.544C440.858 193.506 436.788 189.422 431.767 189.422C426.746 189.422 422.676 193.506 422.676 198.544C422.676 203.582 426.746 207.667 431.767 207.667Z" fill="black"/>
<path d="M431.767 207.014C436.788 207.014 440.858 202.93 440.858 197.892C440.858 192.854 436.788 188.77 431.767 188.77C426.746 188.77 422.676 192.854 422.676 197.892C422.676 202.93 426.746 207.014 431.767 207.014Z" fill="#E0E0E0"/>
<path opacity="0.1" d="M427.219 318.109C427.219 318.109 433.063 320.061 436.31 318.11L427.219 318.109Z" fill="black"/>
</g>
<defs>
<clipPath id="clip0">
<rect width="415" height="279" fill="white" transform="translate(33 66)"/>
</clipPath>
</defs>
</svg>
