<svg width="482" height="411" viewBox="0 0 482 411" fill="none" xmlns="http://www.w3.org/2000/svg">
<path d="M478.806 227.138C471.403 274.206 424.051 312.177 379.298 343.876C334.545 375.574 292.847 400.586 241.629 406.965C190.412 413.344 130.119 401.12 99.5231 364.42C69.3705 327.749 106.452 262.078 104.673 195.594C102.959 131.501 60.1578 68.2299 92.3401 33.2521C124.295 -1.51847 193.13 -2.2834 254.105 9.31986C314.864 20.6865 368.206 44.4508 411.156 84.1932C453.879 124.143 486.21 180.07 478.806 227.138Z" fill="#E7F3F9"/>
<g clip-path="url(#clip0)">
<path d="M75.8709 123.644C75.2169 123.827 74.6626 124.26 74.3295 124.848C73.9964 125.437 73.9118 126.133 74.0942 126.783L116.934 278.847C117.118 279.497 117.554 280.048 118.146 280.379C118.739 280.71 119.439 280.794 120.093 280.613L278.024 236.66C278.678 236.478 279.232 236.044 279.565 235.456C279.898 234.867 279.983 234.171 279.801 233.521L236.96 81.4572C236.776 80.8072 236.341 80.2562 235.748 79.9251C235.156 79.5941 234.456 79.51 233.802 79.6913L75.8709 123.644Z" fill="#E6E6E6"/>
<path d="M122.079 273.432L272.577 231.548L231.818 86.8711L81.3203 128.755L122.079 273.432Z" fill="white"/>
<path d="M101.218 148.073C100.214 148.352 99.8 150.01 100.295 151.768C100.791 153.526 102.01 154.729 103.015 154.449L171.654 135.347C172.659 135.067 173.073 133.41 172.577 131.652C172.082 129.894 170.862 128.691 169.858 128.97L101.218 148.073Z" fill="#E6E6E6"/>
<path d="M106.745 167.694C105.741 167.973 105.327 169.631 105.823 171.389C106.318 173.147 107.538 174.35 108.542 174.071L177.182 154.968C178.186 154.689 178.6 153.031 178.105 151.273C177.609 149.515 176.389 148.312 175.385 148.591L106.745 167.694Z" fill="#E6E6E6"/>
<path d="M112.21 187.088C111.206 187.368 110.792 189.025 111.287 190.784C111.783 192.542 113.003 193.745 114.007 193.465L182.647 174.362C183.651 174.083 184.065 172.425 183.569 170.667C183.074 168.909 181.854 167.706 180.85 167.986L112.21 187.088Z" fill="#E6E6E6"/>
<path d="M117.738 206.709C116.733 206.989 116.319 208.646 116.815 210.405C117.31 212.163 118.53 213.366 119.534 213.086L188.174 193.984C189.178 193.704 189.592 192.046 189.097 190.288C188.602 188.53 187.382 187.327 186.378 187.607L117.738 206.709Z" fill="#E6E6E6"/>
<path d="M204.691 119.502C204.269 119.619 203.875 119.818 203.53 120.086C203.185 120.354 202.898 120.688 202.683 121.067C202.468 121.446 202.33 121.864 202.278 122.296C202.225 122.728 202.259 123.166 202.377 123.585C202.495 124.004 202.695 124.395 202.966 124.738C203.236 125.08 203.572 125.366 203.954 125.579C204.335 125.792 204.756 125.928 205.19 125.98C205.625 126.031 206.066 125.997 206.487 125.879L219.319 122.308C220.17 122.071 220.891 121.508 221.324 120.743C221.758 119.978 221.867 119.073 221.629 118.227C221.391 117.381 220.824 116.664 220.054 116.234C219.284 115.803 218.373 115.694 217.523 115.931L204.691 119.502Z" fill="#E6E6E6"/>
<path d="M210.113 138.745C209.691 138.861 209.296 139.06 208.952 139.328C208.607 139.597 208.319 139.93 208.105 140.309C207.89 140.688 207.752 141.106 207.7 141.538C207.647 141.97 207.681 142.408 207.799 142.827C207.917 143.246 208.117 143.638 208.388 143.98C208.658 144.322 208.994 144.608 209.376 144.821C209.757 145.034 210.178 145.17 210.612 145.222C211.047 145.273 211.488 145.239 211.909 145.121L224.741 141.55C225.592 141.313 226.313 140.75 226.746 139.985C227.179 139.22 227.289 138.315 227.051 137.469C226.812 136.623 226.246 135.907 225.476 135.476C224.706 135.045 223.795 134.937 222.944 135.173L210.113 138.745Z" fill="#E6E6E6"/>
<path d="M215.531 157.987C215.109 158.104 214.716 158.303 214.371 158.571C214.027 158.84 213.74 159.173 213.525 159.552C213.311 159.931 213.174 160.348 213.121 160.78C213.069 161.212 213.103 161.649 213.221 162.068C213.339 162.487 213.539 162.878 213.809 163.22C214.079 163.562 214.414 163.848 214.796 164.061C215.177 164.274 215.597 164.411 216.031 164.463C216.466 164.514 216.906 164.481 217.327 164.364L230.159 160.792C231.01 160.556 231.731 159.993 232.164 159.227C232.598 158.462 232.707 157.557 232.469 156.711C232.231 155.866 231.664 155.149 230.894 154.718C230.124 154.288 229.213 154.179 228.363 154.416L215.531 157.987Z" fill="#E6E6E6"/>
<path d="M220.953 177.224C220.103 177.462 219.383 178.025 218.95 178.79C218.518 179.555 218.409 180.459 218.647 181.304C218.885 182.149 219.451 182.866 220.22 183.296C220.989 183.727 221.899 183.836 222.749 183.601L235.581 180.03C236.431 179.792 237.151 179.229 237.584 178.464C238.016 177.699 238.125 176.795 237.887 175.95C237.649 175.105 237.083 174.388 236.314 173.957C235.545 173.527 234.635 173.417 233.785 173.653L220.953 177.224Z" fill="#E6E6E6"/>
<path d="M226.132 210.578C225.595 210.727 225.092 210.979 224.653 211.321C224.214 211.664 223.847 212.088 223.574 212.571C223.3 213.054 223.125 213.586 223.058 214.137C222.991 214.687 223.034 215.245 223.185 215.779C223.335 216.313 223.59 216.813 223.934 217.249C224.279 217.684 224.707 218.049 225.193 218.32C225.68 218.592 226.215 218.765 226.769 218.831C227.323 218.897 227.884 218.853 228.421 218.703L244.772 214.153C245.856 213.851 246.775 213.134 247.327 212.159C247.879 211.183 248.019 210.03 247.715 208.953C247.412 207.875 246.69 206.961 245.708 206.413C244.727 205.864 243.567 205.726 242.483 206.027L226.132 210.578Z" fill="#3B9DCE"/>
<path d="M242.961 194.168L121.969 227.84L122.27 228.909L243.262 195.237L242.961 194.168Z" fill="#E6E6E6"/>
<path d="M364.495 337.88L354.791 340.212L341.125 304.121L355.447 300.68L364.495 337.88Z" fill="#A0616A"/>
<path d="M338.047 353.998L337.981 353.728C337.212 350.551 337.743 347.2 339.456 344.411C341.17 341.622 343.926 339.622 347.121 338.851L366.107 334.289L369.087 346.54L338.047 353.998Z" fill="#2F2E41"/>
<path d="M321.537 344.452L311.554 344.452L306.805 306.18L321.539 306.18L321.537 344.452Z" fill="#A0616A"/>
<path d="M323.954 353.944L292.02 353.943V353.666C292.02 350.396 293.326 347.261 295.652 344.95C297.978 342.638 301.132 341.34 304.421 341.34H304.422L323.954 341.341L323.954 353.944Z" fill="#2F2E41"/>
<path d="M306.795 329.51L297.102 214.692L337.228 207.341L337.386 207.312L349.131 214.816L345.043 257.072L363.864 322.953L347.613 327.203L328.762 266.103L324.447 247.523L322.237 271.667L323.878 331.208L306.795 329.51Z" fill="#2F2E41"/>
<path d="M295.86 217.298L295.754 217.164L309.62 113.399L309.638 113.263L309.736 113.165C309.94 112.962 314.798 108.191 319.795 108.191C320.518 108.191 321.204 108.173 321.863 108.156C325.687 108.057 328.708 107.978 332.298 111.547C335.955 115.182 347.889 128.455 347.889 146.635C347.889 164.231 349.501 218.914 349.517 219.464L349.54 220.236L348.888 219.815C348.727 219.712 332.677 209.554 319.216 218.997C315.009 221.948 311.23 222.983 307.998 222.983C300.478 222.983 295.924 217.379 295.86 217.298Z" fill="#3B9DCE"/>
<path d="M327.267 99.6272C336.959 94.3612 340.521 82.2831 335.223 72.65C329.925 63.0168 317.773 59.4765 308.081 64.7425C298.388 70.0084 294.826 82.0866 300.125 91.7197C305.423 101.353 317.575 104.893 327.267 99.6272Z" fill="#A0616A"/>
<path d="M287.056 239.598C288.003 238.87 288.776 237.943 289.324 236.885C289.871 235.827 290.178 234.662 290.223 233.473C290.268 232.284 290.051 231.1 289.586 230.004C289.121 228.907 288.419 227.926 287.531 227.128L298.889 200.5L284.018 203.22L275.512 228.089C274.262 229.661 273.636 231.634 273.752 233.634C273.868 235.634 274.718 237.522 276.141 238.94C277.564 240.359 279.461 241.21 281.473 241.331C283.485 241.452 285.471 240.836 287.056 239.598H287.056Z" fill="#A0616A"/>
<path d="M276.082 218.882L279.739 211.207C279.513 211.072 279.327 210.88 279.199 210.651C275.782 204.765 296.423 155.886 297.798 152.643C297.589 150.88 295.422 132.194 297.006 125.895C298.871 118.481 302.701 115.025 309.811 114.341C317.652 113.609 319.767 124.192 319.787 124.3L319.795 151.507L310.796 182.826L290.273 224.437L276.082 218.882Z" fill="#3B9DCE"/>
<path d="M320.23 89.6747C317.832 89.9847 316.024 87.5466 315.185 85.2929C314.346 83.0391 313.707 80.4153 311.622 79.1979C308.774 77.5346 305.131 79.5351 301.874 78.9863C298.196 78.3666 295.805 74.4926 295.618 70.7897C295.43 67.0869 296.913 63.5255 298.368 60.1115L298.875 64.3544C298.807 62.9164 299.112 61.4851 299.76 60.1975C300.407 58.9098 301.377 57.8089 302.575 57L301.92 63.2257C302.331 59.7379 306.111 57.0353 309.568 57.7581L309.465 61.4676C313.713 60.9656 317.998 60.4628 322.259 60.8453C326.519 61.2278 330.809 62.5675 334.038 65.3562C338.868 69.5277 340.632 76.3966 340.04 82.7291C339.448 89.0617 336.818 95.0107 334.077 100.757C333.387 102.203 332.433 103.835 330.834 104.019C329.397 104.185 328.082 102.991 327.635 101.623C327.189 100.256 327.407 98.7702 327.674 97.3572C328.078 95.2227 328.588 93.041 328.208 90.9022C327.828 88.7633 326.28 86.6497 324.11 86.3876C321.941 86.1255 319.721 88.59 320.764 90.4986L320.23 89.6747Z" fill="#2F2E41"/>
<path d="M407.787 353.989H263.859V352.82H408L407.787 353.989Z" fill="#3F3D56"/>
</g>
<defs>
<clipPath id="clip0">
<rect width="334" height="297" fill="white" transform="translate(74 57)"/>
</clipPath>
</defs>
</svg>
