<svg width="94" height="94" viewBox="0 0 94 94" fill="none" xmlns="http://www.w3.org/2000/svg">
<g filter="url(#filter0_d)">
<circle cx="39" cy="35" r="32" fill="#E7F3F9"/>
</g>
<path fill-rule="evenodd" clip-rule="evenodd" d="M46.3868 36.0824C47.2926 35.1932 47.8336 33.9979 47.9038 32.7306C47.974 31.4632 47.5683 30.2154 46.7662 29.2317C45.9642 28.248 44.8236 27.5994 43.5681 27.4129C42.3126 27.2265 41.0328 27.5157 39.9795 28.224C39.727 27.4995 39.314 26.8414 38.7714 26.299C38.2288 25.7565 37.5706 25.3438 36.846 25.0915C36.1215 24.8393 35.3492 24.7541 34.5871 24.8424C33.8249 24.9306 33.0926 25.19 32.4448 25.6011C31.797 26.0122 31.2506 26.5645 30.8462 27.2165C30.4419 27.8686 30.1902 28.6036 30.11 29.3666C30.0298 30.1296 30.123 30.9009 30.3828 31.6228C30.6426 32.3448 31.0623 32.9986 31.6104 33.5355C30.7489 34.1225 30.0435 34.9107 29.5553 35.8318C29.0671 36.7529 28.8108 37.7791 28.8086 38.8216C28.8086 39.7132 29.2667 42.6428 35.1778 42.6428C35.6882 42.6451 36.1984 42.6196 36.706 42.5667C37.1894 43.7386 38.6552 45.1908 42.8203 45.1908C48.7304 45.1908 49.1894 42.2611 49.1894 41.3695C49.1874 40.3268 48.9311 39.3002 48.4427 38.3789C47.9543 37.4576 47.2486 36.6693 46.3868 36.0824ZM35.1778 27.3578C35.6816 27.3579 36.1741 27.5074 36.5929 27.7874C37.0118 28.0674 37.3382 28.4653 37.5309 28.9308C37.7236 29.3963 37.774 29.9085 37.6756 30.4026C37.5772 30.8968 37.3345 31.3506 36.9781 31.7068C36.6218 32.063 36.1678 32.3055 35.6737 32.4037C35.1795 32.5019 34.6673 32.4513 34.2019 32.2584C33.7365 32.0655 33.3387 31.7389 33.0589 31.3199C32.7791 30.901 32.6298 30.4084 32.6299 29.9046C32.632 29.2296 32.9012 28.5829 33.3786 28.1057C33.8559 27.6285 34.5028 27.3596 35.1778 27.3578ZM36.5909 40.0189C36.122 40.0747 35.65 40.1005 35.1778 40.096C31.3555 40.096 31.3555 38.8216 31.3555 38.8216C31.3554 37.9945 31.6237 37.1896 32.1201 36.528C32.6165 35.8664 33.3142 35.3837 34.1084 35.1526C34.9025 34.9214 35.7503 34.9542 36.5242 35.246C37.2982 35.5378 37.9565 36.0728 38.4004 36.7708C37.4955 37.6555 36.8668 38.7838 36.5909 40.0189ZM42.8204 29.9046C43.3243 29.9046 43.8169 30.054 44.2359 30.334C44.6548 30.614 44.9814 31.0119 45.1742 31.4775C45.3671 31.943 45.4175 32.4553 45.3192 32.9495C45.2209 33.4437 44.9782 33.8977 44.6219 34.254C44.2656 34.6104 43.8116 34.853 43.3174 34.9513C42.8232 35.0496 42.3109 34.9992 41.8453 34.8064C41.3798 34.6135 40.9818 34.287 40.7019 33.868C40.4219 33.449 40.2725 32.9564 40.2725 32.4525C40.2744 31.7774 40.5435 31.1304 41.0209 30.653C41.4983 30.1756 42.1452 29.9065 42.8204 29.9046ZM42.8204 42.6429C40.6934 42.6429 39.7501 42.2484 39.3301 41.9046C39.2411 41.8429 39.1658 41.7635 39.1089 41.6715C39.052 41.5794 39.0146 41.4766 38.9991 41.3695C38.9982 40.5958 39.233 39.8401 39.6721 39.2031C40.1111 38.566 40.7337 38.0777 41.4571 37.8031C41.8914 37.6329 42.3539 37.5464 42.8204 37.5482C43.3224 37.5475 43.8196 37.6458 44.2836 37.8376C44.7475 38.0294 45.169 38.3108 45.524 38.6658C45.879 39.0208 46.1605 39.4423 46.3522 39.9063C46.544 40.3702 46.6424 40.8675 46.6416 41.3695C46.6416 41.3695 46.6417 42.6429 42.8204 42.6429Z" fill="#66B2D9"/>
<defs>
<filter id="filter0_d" x="0" y="0" width="94" height="94" filterUnits="userSpaceOnUse" color-interpolation-filters="sRGB">
<feFlood flood-opacity="0" result="BackgroundImageFix"/>
<feColorMatrix in="SourceAlpha" type="matrix" values="0 0 0 0 0 0 0 0 0 0 0 0 0 0 0 0 0 0 127 0" result="hardAlpha"/>
<feMorphology radius="7" operator="erode" in="SourceAlpha" result="effect1_dropShadow"/>
<feOffset dx="8" dy="12"/>
<feGaussianBlur stdDeviation="11"/>
<feColorMatrix type="matrix" values="0 0 0 0 0 0 0 0 0 0 0 0 0 0 0 0 0 0 0.1 0"/>
<feBlend mode="normal" in2="BackgroundImageFix" result="effect1_dropShadow"/>
<feBlend mode="normal" in="SourceGraphic" in2="effect1_dropShadow" result="shape"/>
</filter>
</defs>
</svg>
