<svg width="94" height="94" viewBox="0 0 94 94" fill="none" xmlns="http://www.w3.org/2000/svg">
<g filter="url(#filter0_d)">
<circle cx="39" cy="35" r="32" fill="#E7F3F9"/>
</g>
<path d="M33 29C33 28.7348 33.1054 28.4804 33.2929 28.2929C33.4804 28.1054 33.7348 28 34 28H44C44.2652 28 44.5196 28.1054 44.7071 28.2929C44.8946 28.4804 45 28.7348 45 29C45 29.2652 44.8946 29.5196 44.7071 29.7071C44.5196 29.8946 44.2652 30 44 30H34C33.7348 30 33.4804 29.8946 33.2929 29.7071C33.1054 29.5196 33 29.2652 33 29Z" fill="#66B2D9"/>
<path d="M33 33C33 32.7348 33.1054 32.4804 33.2929 32.2929C33.4804 32.1054 33.7348 32 34 32H44C44.2652 32 44.5196 32.1054 44.7071 32.2929C44.8946 32.4804 45 32.7348 45 33C45 33.2652 44.8946 33.5196 44.7071 33.7071C44.5196 33.8946 44.2652 34 44 34H34C33.7348 34 33.4804 33.8946 33.2929 33.7071C33.1054 33.5196 33 33.2652 33 33Z" fill="#66B2D9"/>
<path d="M34 36C33.7348 36 33.4804 36.1054 33.2929 36.2929C33.1054 36.4804 33 36.7348 33 37C33 37.2652 33.1054 37.5196 33.2929 37.7071C33.4804 37.8946 33.7348 38 34 38H44C44.2652 38 44.5196 37.8946 44.7071 37.7071C44.8946 37.5196 45 37.2652 45 37C45 36.7348 44.8946 36.4804 44.7071 36.2929C44.5196 36.1054 44.2652 36 44 36H34Z" fill="#66B2D9"/>
<path d="M33 41C33 40.7348 33.1054 40.4804 33.2929 40.2929C33.4804 40.1054 33.7348 40 34 40H38C38.2652 40 38.5196 40.1054 38.7071 40.2929C38.8946 40.4804 39 40.7348 39 41C39 41.2652 38.8946 41.5196 38.7071 41.7071C38.5196 41.8946 38.2652 42 38 42H34C33.7348 42 33.4804 41.8946 33.2929 41.7071C33.1054 41.5196 33 41.2652 33 41Z" fill="#66B2D9"/>
<path fill-rule="evenodd" clip-rule="evenodd" d="M29 27C29 26.2044 29.3161 25.4413 29.8787 24.8787C30.4413 24.3161 31.2044 24 32 24H46C46.7956 24 47.5587 24.3161 48.1213 24.8787C48.6839 25.4413 49 26.2044 49 27V43C49 43.7956 48.6839 44.5587 48.1213 45.1213C47.5587 45.6839 46.7956 46 46 46H32C31.2044 46 30.4413 45.6839 29.8787 45.1213C29.3161 44.5587 29 43.7956 29 43V27ZM32 26H46C46.2652 26 46.5196 26.1054 46.7071 26.2929C46.8946 26.4804 47 26.7348 47 27V43C47 43.2652 46.8946 43.5196 46.7071 43.7071C46.5196 43.8946 46.2652 44 46 44H32C31.7348 44 31.4804 43.8946 31.2929 43.7071C31.1054 43.5196 31 43.2652 31 43V27C31 26.7348 31.1054 26.4804 31.2929 26.2929C31.4804 26.1054 31.7348 26 32 26Z" fill="#66B2D9"/>
<defs>
<filter id="filter0_d" x="0" y="0" width="94" height="94" filterUnits="userSpaceOnUse" color-interpolation-filters="sRGB">
<feFlood flood-opacity="0" result="BackgroundImageFix"/>
<feColorMatrix in="SourceAlpha" type="matrix" values="0 0 0 0 0 0 0 0 0 0 0 0 0 0 0 0 0 0 127 0" result="hardAlpha"/>
<feMorphology radius="7" operator="erode" in="SourceAlpha" result="effect1_dropShadow"/>
<feOffset dx="8" dy="12"/>
<feGaussianBlur stdDeviation="11"/>
<feColorMatrix type="matrix" values="0 0 0 0 0 0 0 0 0 0 0 0 0 0 0 0 0 0 0.1 0"/>
<feBlend mode="normal" in2="BackgroundImageFix" result="effect1_dropShadow"/>
<feBlend mode="normal" in="SourceGraphic" in2="effect1_dropShadow" result="shape"/>
</filter>
</defs>
</svg>
