<svg width="482" height="411" viewBox="0 0 482 411" fill="none" xmlns="http://www.w3.org/2000/svg">
<g clip-path="url(#clip0)">
<path d="M95.9937 219.44L91.5934 173.051L78.4727 173.501L88.8591 219.311C88.0117 220.018 87.4017 220.966 87.1106 222.027C86.8194 223.089 86.8611 224.213 87.2301 225.251C87.599 226.288 88.2776 227.188 89.1751 227.832C90.0726 228.475 91.1462 228.831 92.2523 228.851C93.3585 228.871 94.4444 228.555 95.3649 227.944C96.2854 227.334 96.9967 226.459 97.4034 225.435C97.8102 224.412 97.8932 223.29 97.6413 222.219C97.3893 221.147 96.8145 220.178 95.9936 219.44L95.9937 219.44Z" fill="#FFB8B8"/>
<path d="M345.435 322.836C345.314 327.329 344.558 331.782 343.187 336.065C343.156 336.165 343.123 336.263 343.091 336.362H334.701C334.71 336.272 334.719 336.173 334.728 336.065C335.287 329.67 338.512 290.746 334.656 284.09C334.994 284.63 346.084 302.515 345.435 322.836Z" fill="#F0F0F0"/>
<path d="M344.089 335.745C343.942 335.953 343.789 336.16 343.633 336.365H330.473C330.573 336.188 330.688 335.98 330.822 335.745C332.996 331.842 339.431 320.176 345.405 308.078C351.825 295.078 357.715 281.587 357.219 276.703C357.371 277.805 361.812 311.378 344.089 335.745Z" fill="#F0F0F0"/>
<path d="M55.0216 316.021C55.2019 322.712 56.3289 329.344 58.3697 335.723C58.4149 335.871 58.4651 336.017 58.514 336.165H71.0067C70.9936 336.032 70.98 335.884 70.9669 335.723C70.134 326.199 65.3313 268.233 71.0737 258.32C70.571 259.124 54.0511 285.759 55.0216 316.021Z" fill="#F0F0F0"/>
<path d="M55.9594 335.723C56.0639 335.871 56.1725 336.019 56.2838 336.165H65.6556C65.5846 336.039 65.5022 335.891 65.4068 335.723C63.8585 332.944 59.2758 324.635 55.0219 316.021C50.4523 306.765 46.2563 297.157 46.6097 293.68C46.5007 294.464 43.3372 318.372 55.9594 335.723Z" fill="#F0F0F0"/>
<path d="M326.589 287.73H196.165C195.525 287.729 194.911 287.476 194.458 287.026C194.006 286.575 193.751 285.965 193.75 285.328V253.152C193.751 252.515 194.006 251.905 194.458 251.454C194.911 251.004 195.525 250.751 196.165 250.75H326.589C327.229 250.751 327.843 251.004 328.295 251.454C328.748 251.905 329.003 252.515 329.004 253.152V285.328C329.003 285.965 328.748 286.575 328.296 287.026C327.843 287.476 327.229 287.729 326.589 287.73ZM196.165 251.709C195.781 251.71 195.414 251.862 195.142 252.132C194.871 252.401 194.718 252.767 194.717 253.149V285.325C194.718 285.706 194.871 286.072 195.142 286.342C195.414 286.612 195.781 286.764 196.165 286.764H326.589C326.972 286.764 327.34 286.612 327.612 286.342C327.883 286.072 328.036 285.706 328.036 285.325V253.152C328.036 252.77 327.883 252.404 327.612 252.135C327.34 251.865 326.972 251.713 326.589 251.712L196.165 251.709Z" fill="#3F3D56"/>
<path d="M183.854 326.565C189.287 326.565 193.692 322.184 193.692 316.781C193.692 311.377 189.287 306.996 183.854 306.996C178.42 306.996 174.016 311.377 174.016 316.781C174.016 322.184 178.42 326.565 183.854 326.565Z" fill="#E6E6E6"/>
<path d="M206.577 310.598C206.142 310.598 205.725 310.769 205.418 311.075C205.11 311.381 204.938 311.796 204.938 312.228C204.938 312.661 205.11 313.076 205.418 313.381C205.725 313.687 206.142 313.859 206.577 313.859H283.879C284.094 313.859 284.308 313.818 284.507 313.736C284.706 313.655 284.887 313.535 285.04 313.384C285.192 313.233 285.313 313.053 285.396 312.855C285.479 312.658 285.522 312.446 285.522 312.232C285.522 312.017 285.48 311.805 285.398 311.607C285.316 311.409 285.196 311.229 285.044 311.078C284.892 310.926 284.712 310.805 284.513 310.723C284.314 310.641 284.101 310.598 283.886 310.598H206.577Z" fill="#E6E6E6"/>
<path d="M206.576 320.383C206.142 320.382 205.724 320.553 205.416 320.858C205.108 321.163 204.934 321.578 204.934 322.01C204.933 322.443 205.105 322.858 205.412 323.164C205.718 323.471 206.135 323.643 206.57 323.644H239.84C240.275 323.644 240.692 323.472 240.999 323.167C241.307 322.861 241.479 322.446 241.479 322.013C241.479 321.581 241.307 321.166 240.999 320.86C240.692 320.555 240.275 320.383 239.84 320.383H206.576Z" fill="#E6E6E6"/>
<path d="M216.432 278.87C221.866 278.87 226.27 274.489 226.27 269.085C226.27 263.681 221.866 259.301 216.432 259.301C210.999 259.301 206.594 263.681 206.594 269.085C206.594 274.489 210.999 278.87 216.432 278.87Z" fill="#E6E6E6"/>
<path d="M239.155 262.898C238.72 262.898 238.303 263.07 237.996 263.376C237.688 263.682 237.516 264.097 237.516 264.529C237.516 264.962 237.688 265.376 237.996 265.682C238.303 265.988 238.72 266.16 239.155 266.16H316.457C316.892 266.16 317.309 265.988 317.617 265.682C317.924 265.376 318.097 264.962 318.097 264.529C318.097 264.097 317.924 263.682 317.617 263.376C317.309 263.07 316.892 262.898 316.457 262.898H239.155Z" fill="#E6E6E6"/>
<path d="M239.155 272.684C238.72 272.684 238.303 272.855 237.996 273.161C237.688 273.467 237.516 273.882 237.516 274.314C237.516 274.747 237.688 275.162 237.996 275.467C238.303 275.773 238.72 275.945 239.155 275.945H272.419C272.853 275.945 273.271 275.773 273.578 275.467C273.886 275.162 274.058 274.747 274.058 274.314C274.058 273.882 273.886 273.467 273.578 273.161C273.271 272.855 272.853 272.684 272.419 272.684H239.155Z" fill="#E6E6E6"/>
<path d="M301.253 208.088H170.829C170.189 208.087 169.575 207.833 169.122 207.383C168.67 206.933 168.415 206.322 168.414 205.686V94.7652C168.415 94.1284 168.67 93.518 169.122 93.0677C169.575 92.6174 170.189 92.3641 170.829 92.3633H301.253C301.893 92.3641 302.507 92.6174 302.959 93.0677C303.412 93.518 303.667 94.1284 303.668 94.7652V205.685C303.667 206.322 303.412 206.933 302.96 207.383C302.507 207.833 301.893 208.086 301.253 208.087V208.088ZM170.829 93.3222C170.445 93.323 170.078 93.475 169.806 93.7448C169.535 94.0147 169.382 94.3804 169.381 94.7621V205.685C169.382 206.067 169.535 206.433 169.806 206.702C170.078 206.972 170.445 207.124 170.829 207.125H301.253C301.636 207.124 302.004 206.972 302.276 206.703C302.547 206.433 302.7 206.067 302.7 205.685V94.7652C302.7 94.3836 302.547 94.0178 302.275 93.748C302.004 93.4781 301.636 93.3261 301.253 93.3253L170.829 93.3222Z" fill="#3F3D56"/>
<path d="M191.096 121.651C196.53 121.651 200.934 117.27 200.934 111.867C200.934 106.463 196.53 102.082 191.096 102.082C185.663 102.082 181.258 106.463 181.258 111.867C181.258 117.27 185.663 121.651 191.096 121.651Z" fill="#3B9DCE"/>
<path d="M213.815 105.344C213.381 105.344 212.963 105.516 212.656 105.821C212.349 106.127 212.176 106.542 212.176 106.974C212.176 107.407 212.349 107.822 212.656 108.127C212.963 108.433 213.381 108.605 213.815 108.605H291.117C291.552 108.605 291.969 108.433 292.277 108.127C292.584 107.822 292.757 107.407 292.757 106.974C292.757 106.542 292.584 106.127 292.277 105.821C291.969 105.516 291.552 105.344 291.117 105.344H213.815Z" fill="#CCCCCC"/>
<path d="M213.815 115.129C213.381 115.129 212.963 115.301 212.656 115.607C212.349 115.912 212.176 116.327 212.176 116.76C212.176 117.192 212.349 117.607 212.656 117.913C212.963 118.218 213.381 118.39 213.815 118.39H247.079C247.514 118.39 247.931 118.218 248.238 117.913C248.546 117.607 248.718 117.192 248.718 116.76C248.718 116.327 248.546 115.912 248.238 115.607C247.931 115.301 247.514 115.129 247.079 115.129H213.815Z" fill="#CCCCCC"/>
<path d="M135.481 326.94H125.527L119.645 244.596L119.419 265.519L97.7018 323.115L89.1055 316.365L103.357 258.995L96.5707 227.047H140.91L135.481 326.94Z" fill="#2F2E41"/>
<path d="M119.646 125.355C126.143 125.355 131.41 120.117 131.41 113.656C131.41 107.195 126.143 101.957 119.646 101.957C113.149 101.957 107.883 107.195 107.883 113.656C107.883 120.117 113.149 125.355 119.646 125.355Z" fill="#FFB8B8"/>
<path d="M142.267 233.348C123.048 228.443 105.016 225.138 93.856 231.098C95.8105 210.665 93.5497 184.581 86.8431 157.319C84.6651 148.464 86.1423 140.485 94.0822 135.93L104.715 129.855L121.002 130.305L129.501 134.981C133.656 137.047 137.021 140.404 139.083 144.544C141.145 148.684 141.792 153.38 140.926 157.919C136.36 181.816 138.828 207.607 142.267 233.348Z" fill="#3F3D56"/>
<path d="M98.3818 176.203L77.1172 174.853C78.7785 154.048 83.5065 142.675 90.6904 138.855L98.3818 147.855V176.203Z" fill="#3F3D56"/>
<path d="M332.241 193.697H201.817C201.177 193.696 200.563 193.443 200.111 192.992C199.658 192.542 199.403 191.931 199.402 191.295V134.371C199.403 133.734 199.658 133.123 200.111 132.673C200.563 132.223 201.177 131.969 201.817 131.969H332.241C332.882 131.969 333.496 132.223 333.948 132.673C334.401 133.123 334.656 133.734 334.656 134.371V191.295C334.656 191.931 334.401 192.542 333.948 192.992C333.496 193.443 332.882 193.696 332.241 193.697Z" fill="#3B9DCE"/>
<path d="M228.378 151.812C227.943 151.813 227.526 151.984 227.219 152.29C226.911 152.596 226.738 153.011 226.738 153.443C226.738 153.876 226.911 154.29 227.219 154.596C227.526 154.902 227.943 155.074 228.378 155.074H305.68C306.115 155.074 306.532 154.902 306.84 154.596C307.147 154.29 307.32 153.876 307.32 153.443C307.32 153.011 307.147 152.596 306.84 152.29C306.532 151.984 306.115 151.813 305.68 151.812H228.378Z" fill="white"/>
<path d="M228.378 161.262C227.943 161.262 227.526 161.434 227.219 161.739C226.911 162.045 226.738 162.46 226.738 162.892C226.738 163.325 226.911 163.74 227.219 164.045C227.526 164.351 227.943 164.523 228.378 164.523H305.68C306.115 164.523 306.532 164.351 306.84 164.045C307.147 163.74 307.32 163.325 307.32 162.892C307.32 162.46 307.147 162.045 306.84 161.739C306.532 161.434 306.115 161.262 305.68 161.262H228.378Z" fill="white"/>
<path d="M228.378 170.594C227.943 170.594 227.526 170.766 227.219 171.071C226.911 171.377 226.738 171.792 226.738 172.224C226.738 172.657 226.911 173.072 227.219 173.377C227.526 173.683 227.943 173.855 228.378 173.855H261.641C262.076 173.855 262.493 173.683 262.801 173.377C263.108 173.072 263.281 172.657 263.281 172.224C263.281 171.792 263.108 171.377 262.801 171.071C262.493 170.766 262.076 170.594 261.641 170.594H228.378Z" fill="white"/>
<path d="M123.657 98.2608C122.561 98.1466 121.528 98.7266 120.45 98.9637C118.233 99.447 115.962 98.4453 113.682 98.4539C111.723 98.5647 109.817 99.1304 108.117 100.106C106.742 100.752 105.488 101.625 104.407 102.689C103.32 103.77 102.687 105.221 102.637 106.749C102.788 107.624 102.761 108.52 102.558 109.385C102.328 109.821 102.055 110.233 101.743 110.615C101.461 111.065 101.281 111.571 101.215 112.098C101.15 112.625 101.2 113.159 101.363 113.664C101.82 114.665 102.438 115.585 103.192 116.388C104.659 118.26 105.578 120.5 106.894 122.487C107.468 123.349 108.112 124.163 108.82 124.92C108.936 125.055 109.077 125.165 109.235 125.245C109.391 125.3 109.556 125.324 109.721 125.316C112.513 125.395 115.402 125.456 117.973 124.367C118.797 124.083 119.496 123.524 119.952 122.785C120.323 121.771 120.39 120.673 120.146 119.622C120.029 118.451 120.056 117.271 120.226 116.107C120.237 115.714 120.399 115.34 120.678 115.061C120.889 114.931 121.131 114.858 121.379 114.85C121.627 114.842 121.873 114.9 122.092 115.016C122.528 115.245 123.005 115.388 123.496 115.438C124.46 115.438 125.069 114.348 125.264 113.399C125.158 112.546 125.285 111.681 125.631 110.894C125.978 110.107 126.532 109.427 127.234 108.926C127.896 108.091 128.35 107.112 128.561 106.069C128.771 105.027 128.731 103.949 128.444 102.925C127.81 100.95 125.866 98.4804 123.657 98.2608Z" fill="#2F2E41"/>
<path d="M294.014 335.429H163.591C162.951 335.428 162.337 335.175 161.884 334.725C161.431 334.275 161.177 333.664 161.176 333.027V300.851C161.176 300.214 161.431 299.604 161.884 299.154C162.337 298.703 162.951 298.45 163.591 298.449H294.014C294.655 298.45 295.268 298.703 295.721 299.154C296.174 299.604 296.429 300.214 296.429 300.851V333.027C296.429 333.664 296.174 334.274 295.721 334.724C295.268 335.175 294.655 335.428 294.014 335.429V335.429ZM163.591 299.408C163.207 299.409 162.839 299.561 162.568 299.831C162.297 300.101 162.144 300.466 162.143 300.848V333.024C162.144 333.405 162.297 333.771 162.568 334.041C162.839 334.311 163.207 334.463 163.591 334.464H294.014C294.398 334.463 294.766 334.311 295.037 334.041C295.309 333.771 295.461 333.405 295.462 333.024V300.851C295.461 300.469 295.308 300.104 295.037 299.834C294.766 299.564 294.398 299.412 294.014 299.411L163.591 299.408Z" fill="#3F3D56"/>
<path d="M146.216 217.643L141.816 171.254L128.695 171.704L139.082 217.514C138.234 218.221 137.624 219.169 137.333 220.23C137.042 221.292 137.084 222.416 137.453 223.454C137.822 224.491 138.5 225.392 139.398 226.035C140.295 226.678 141.369 227.034 142.475 227.054C143.581 227.074 144.667 226.758 145.588 226.147C146.508 225.537 147.219 224.662 147.626 223.639C148.033 222.615 148.116 221.493 147.864 220.422C147.612 219.35 147.037 218.381 146.216 217.643L146.216 217.643Z" fill="#FFB8B8"/>
<path d="M146.34 172.152L126.432 176.652L125.527 144.254L136.838 144.704L146.34 172.152Z" fill="#3F3D56"/>
<path d="M125.211 326.129L139.65 326.129H139.651C142.091 326.129 144.432 327.093 146.157 328.809C147.883 330.526 148.853 332.853 148.853 335.28V335.578L125.211 335.579L125.211 326.129Z" fill="#2F2E41"/>
<path d="M88.9462 314.762L101.085 322.539L101.085 322.539C103.137 323.854 104.579 325.925 105.095 328.297C105.611 330.669 105.159 333.148 103.837 335.189L103.675 335.439L83.8008 322.705L88.9462 314.762Z" fill="#2F2E41"/>
<path d="M363.977 335.465H29.9766V336.365H363.977V335.465Z" fill="#CACACA"/>
</g>
<defs>
<clipPath id="clip0">
<rect width="334" height="244" fill="white" transform="translate(29.9766 92.3633)"/>
</clipPath>
</defs>
</svg>
