<svg width="120" height="120" viewBox="0 0 120 120" fill="none" xmlns="http://www.w3.org/2000/svg">
<circle cx="60" cy="60" r="60" fill="#E7F3F9"/>
<path d="M55.3346 70.5013L69.3346 60.0013L55.3346 49.5013V70.5013ZM83.3346 60.0013C83.3346 47.0746 72.928 36.668 60.0013 36.668C57.2713 36.668 54.6346 37.1113 52.1146 37.9746L53.748 42.5013C55.7313 41.708 57.808 41.2646 60.0013 41.2646C70.2913 41.2646 78.738 49.7113 78.738 60.0013C78.738 70.2913 70.2913 78.738 60.0013 78.738C49.7113 78.738 41.2646 70.2913 41.2646 60.0013C41.2646 57.808 41.708 55.6146 42.5013 53.6546L37.9746 52.1146C37.1113 54.6346 36.668 57.2713 36.668 60.0013C36.668 72.928 47.0746 83.3346 60.0013 83.3346C72.928 83.3346 83.3346 72.928 83.3346 60.0013ZM44.7646 41.2646C46.748 41.2646 48.3346 42.9213 48.3346 44.7646C48.3346 46.748 46.748 48.3346 44.7646 48.3346C42.9213 48.3346 41.2646 46.748 41.2646 44.7646C41.2646 42.9213 42.9213 41.2646 44.7646 41.2646Z" fill="#66B2D9"/>
</svg>
