<svg width="120" height="120" viewBox="0 0 120 120" fill="none" xmlns="http://www.w3.org/2000/svg">
<circle cx="60" cy="60" r="60" fill="#E7F3F9"/>
<path d="M64.1519 67.6984L78.1519 81.6984L83.0752 76.6584L69.0752 62.6584L64.1519 67.6984ZM72.8319 55.5651C71.9219 55.5651 70.9419 55.4484 70.1719 55.1218L43.5952 81.5818L38.6719 76.6584L55.9619 59.3918L51.8319 55.2384L50.1519 56.8718L46.7685 53.5818V60.2551L45.1352 61.8884L36.9219 53.5818L38.5552 51.9484H45.1119L41.8452 48.6584L50.1519 40.3518C50.7972 39.703 51.5643 39.1882 52.4092 38.8368C53.2542 38.4855 54.1602 38.3047 55.0752 38.3047C55.9903 38.3047 56.8963 38.4855 57.7412 38.8368C58.5861 39.1882 59.3533 39.703 59.9985 40.3518L55.0752 45.3918L58.3652 48.6584L56.7085 50.3151L60.8852 54.4684L65.1319 50.0818C64.8052 49.3118 64.6652 48.3318 64.6652 47.4684C64.6559 46.3912 64.8605 45.3228 65.2671 44.3252C65.6736 43.3276 66.2741 42.4205 67.0337 41.6566C67.7932 40.8927 68.6968 40.2871 69.6921 39.8748C70.6874 39.4626 71.7546 39.252 72.8319 39.2551C74.2085 39.2551 75.4219 39.5818 76.5185 40.2351L70.2885 46.4651L73.7885 49.9651L80.0185 43.7351C80.6719 44.8318 80.9985 45.9984 80.9985 47.4684C80.9985 51.9484 77.3819 55.5651 72.8319 55.5651Z" fill="#66B2D9"/>
</svg>
