<svg width="120" height="120" viewBox="0 0 120 120" fill="none" xmlns="http://www.w3.org/2000/svg">
<circle cx="60" cy="60" r="60" fill="#E7F3F9"/>
<path d="M36.668 81H78.668V76.3333H36.668V81ZM78.668 50.6667H74.0013V43.6667H78.668V50.6667ZM78.668 39H41.3346V62.3333C41.3346 64.8087 42.318 67.1827 44.0683 68.933C45.8186 70.6833 48.1926 71.6667 50.668 71.6667H64.668C67.1433 71.6667 69.5173 70.6833 71.2676 68.933C73.018 67.1827 74.0013 64.8087 74.0013 62.3333V55.3333H78.668C79.9056 55.3333 81.0926 54.8417 81.9678 53.9665C82.843 53.0913 83.3346 51.9043 83.3346 50.6667V43.6667C83.3346 42.429 82.843 41.242 81.9678 40.3668C81.0926 39.4917 79.9056 39 78.668 39Z" fill="#66B2D9"/>
</svg>
