<svg width="120" height="120" viewBox="0 0 120 120" fill="none" xmlns="http://www.w3.org/2000/svg">
<circle cx="60" cy="60" r="60" fill="#E7F3F9"/>
<path d="M50.9008 63.1248L41.1242 53.3715C39.3761 51.6184 38.3945 49.2438 38.3945 46.7681C38.3945 44.2925 39.3761 41.9179 41.1242 40.1648L57.5042 56.4981L50.9008 63.1248ZM63.2908 62.3315L79.3442 78.3848L76.0542 81.6748L60.0008 65.6215L43.9475 81.6748L40.6575 78.3848L63.1742 55.8448L62.7075 55.3315C62.275 54.902 61.9318 54.3913 61.6976 53.8286C61.4634 53.266 61.3428 52.6626 61.3428 52.0531C61.3428 51.4437 61.4634 50.8403 61.6976 50.2776C61.9318 49.715 62.275 49.2042 62.7075 48.7748L72.8342 38.5781L75.0042 40.7248L67.4442 48.3315L69.6842 50.5248L77.2442 42.9415L79.3908 45.0881L71.8075 52.6481L74.0008 54.8881L81.6075 47.3048L83.7542 49.4981L73.5575 59.6248C71.7375 61.4448 68.7975 61.4448 67.0008 59.6248L66.4875 59.1581L63.2908 62.3315Z" fill="#66B2D9"/>
</svg>
