<svg width="120" height="120" viewBox="0 0 120 120" fill="none" xmlns="http://www.w3.org/2000/svg">
<circle cx="60" cy="60" r="60" fill="#E7F3F9"/>
<path d="M76.3346 50.668C77.6413 50.668 78.668 51.6713 78.668 53.0013C78.668 53.6201 78.4221 54.2136 77.9846 54.6512C77.547 55.0888 76.9535 55.3346 76.3346 55.3346C75.0046 55.3346 74.0013 54.2846 74.0013 53.0013C74.0013 51.6713 75.0046 50.668 76.3346 50.668ZM36.668 36.668V57.668C36.668 64.5746 41.778 70.5013 48.6613 71.458C50.108 78.4813 56.3146 83.3346 63.5013 83.3346C65.493 83.3346 67.4652 82.9423 69.3053 82.1801C71.1454 81.4179 72.8174 80.3008 74.2258 78.8924C75.6341 77.4841 76.7513 75.8121 77.5135 73.972C78.2757 72.1319 78.668 70.1597 78.668 68.168V59.558C81.3746 58.578 83.3346 56.0113 83.3346 53.0013C83.3346 51.1448 82.5971 49.3643 81.2844 48.0516C79.9716 46.7388 78.1912 46.0013 76.3346 46.0013C74.4781 46.0013 72.6976 46.7388 71.3849 48.0516C70.0721 49.3643 69.3346 51.1448 69.3346 53.0013C69.3346 56.0113 71.2946 58.6013 74.0013 59.558V67.958C74.0013 73.7913 69.3346 78.458 63.5013 78.458C58.8346 78.458 54.9146 75.6346 53.5146 71.4346C60.0013 70.0346 64.668 64.2013 64.668 57.668V36.668H55.3346V43.668H60.0013V57.668C60.0013 60.1433 59.018 62.5173 57.2676 64.2676C55.5173 66.018 53.1433 67.0013 50.668 67.0013C48.1926 67.0013 45.8186 66.018 44.0683 64.2676C42.318 62.5173 41.3346 60.1433 41.3346 57.668V43.668H46.0013V36.668H36.668Z" fill="#66B2D9"/>
</svg>
